<?xml version="1.0" encoding="UTF-8" standalone="no"?>
<!DOCTYPE svg PUBLIC "-//W3C//DTD SVG 1.1//EN"
"http://www.w3.org/Graphics/SVG/1.1/DTD/svg11.dtd">
<svg viewBox="0 0 909 1286" version="1.1" xmlns="http://www.w3.org/2000/svg" xmlns:xlink="http://www.w3.org/1999/xlink">
<defs>
<clipPath id="c0_4"><path d="M0,1298.2V0H910.6V1298.2Z"/></clipPath>
<clipPath id="c1_4"><path d="M0,1287.9V0H910.6V1287.9Z"/></clipPath>
<clipPath id="c2_4"><path d="M0,681.8V530.4H910.4V681.8Z"/></clipPath>
<clipPath id="c3_4"><path d="M699,1287.9V785.3H910.4v502.6Z"/></clipPath>
<clipPath id="c4_4"><path d="M0,1287.9V909.7H310.4v378.2Z"/></clipPath>
<clipPath id="c5_4"><path d="M0,379.7V228.3H910.4V379.7Z"/></clipPath>
<clipPath id="c6_4"><path d="M40.2,1282.3V133.2h9.2V1282.3Z"/></clipPath>
<clipPath id="c7_4"><path d="M0,144.5V0H910.6V144.5Z"/></clipPath>
<clipPath id="c8_4"><path d="M0,988.2V836.8H910.4V988.2Z"/></clipPath>
<clipPath id="c9_4"><path d="M320.8,768.7V417.8H683V768.7Z"/></clipPath>
<clipPath id="ca_4"><path d="M158,1271.3V1088.7h11.8v182.6Z"/></clipPath>
<clipPath id="cb_4"><path d="M0,1287.6V1136.2H910.4v151.4Z"/></clipPath>
<clipPath id="cc_4"><path d="M306.9,1276.3V1093.8h11.7v182.5Z"/></clipPath>
<clipPath id="cd_4"><path d="M455.8,1272V1089.5h11.7V1272Z"/></clipPath>
<clipPath id="ce_4"><path d="M631.8,1271.3V1088.7h11.7v182.6Z"/></clipPath>
<clipPath id="cf_4"><path d="M768.2,1271.3V1088.7h11.3v182.6Z"/></clipPath>
<style type="text/css"><![CDATA[
.g0_4{
fill: #FFFFFF;
}
.g1_4{
fill: #FFB500;
}
.g2_4{
fill: #FFFFFF;
fill-opacity: 0.098000005;
}
.g3_4{
fill: #F4CCC1;
fill-opacity: 0.22749999;
}
.g4_4{
fill: #6563A5;
fill-opacity: 0.22749999;
}
.g5_4{
fill: #7DA5BC;
fill-opacity: 0.22749999;
}
.g6_4{
fill: #BDB5DA;
fill-opacity: 0.22749999;
}
.g7_4{
fill: #FFFFFF;
fill-opacity: 0.22749999;
}
.g8_4{
fill: #AAD9DD;
fill-opacity: 0.22749999;
}
.g9_4{
fill: #FFFFFF;
fill-opacity: 0.027499998;
}
.ga_4{
fill: #211D1D;
fill-opacity: 0.027499998;
}
.gb_4{
fill: #26262E;
}
.gc_4{
fill: #57595B;
fill-opacity: 0.0588;
}
.gd_4{
fill: #211D1D;
fill-opacity: 0.18820001;
}
]]></style>
</defs>
<path clip-path="url(#c0_4)" d="M0,0H910.6V1287.9H0V0Z" class="g0_4"/>
<path clip-path="url(#c1_4)" d="M0,0H910.6V1287.9H0V0Z" class="g1_4"/>
<path clip-path="url(#c2_4)" d="M-34.8,530.4H945.6V681.8H-34.8V530.4Z" class="g2_4"/>
<image x="90" y="192" width="824" height="825" xlink:href="shade/1.png"/>
<g clip-path="url(#c3_4)">
<path d="M910.8,1289.4c-1.6,-1.6,-3.6,.4,-5.5,.4c-22.3,-.1,-24.4,-12.3,-25.1,-18.2c-.2,1.4,-10.4,-.6,-14.7,1.4c.3,2.5,-1.5,5.6,-2.2,7.9c-1.2,3.5,-3.1,7.4,-2.7,11.2c.7,5.4,7.5,6.1,12,5.8c3.4,-.2,6.6,-1.1,10.2,-1.1c3.8,0,7.5,-.1,11.3,-.1c4.1,0,15,2.4,17.5,-1.9c.9,-1.6,.5,-4,-.8,-5.4Z" class="g3_4"/>
<path d="M870.8,1299.6c-6.7,0,-10.9,-2.4,-11.7,-6.9c-.2,-.9,.4,-1.7,1.3,-1.9c.9,-.1,1.8,.5,1.9,1.4c.8,4.3,8,4.2,10.2,4.1c1.4,-.1,2.7,-.3,4.2,-.5c1.9,-.3,3.9,-.6,6.1,-.6c1.9,0,3.7,-.1,5.6,-.1c1.9,0,3.8,0,5.7,0c1,0,2.3,.1,3.9,.2c4,.4,10.8,1.1,12.2,-1.3c.5,-.9,.2,-2.6,-.6,-3.4c-.2,-.2,-.4,-.3,-1.7,.2c-.5,.2,-1.1,.4,-1.8,.5c-.9,.2,-1.7,-.4,-1.9,-1.3c-.1,-.9,.5,-1.8,1.4,-1.9c.3,-.1,.7,-.2,1.2,-.4c1.3,-.5,3.4,-1.2,5.2,.6c1.8,1.9,2.3,5.2,1.1,7.3c-2.5,4.3,-10,3.6,-15.4,3c-1.5,-.1,-2.7,-.2,-3.6,-.2c-1.9,0,-3.8,0,-5.6,0c-1.9,0,-3.8,.1,-5.7,.1c-1.9,0,-3.7,.2,-5.7,.5c-1.4,.2,-2.9,.4,-4.4,.5c-.7,.1,-1.3,.1,-1.9,.1Z" class="g4_4"/>
<path d="M702.4,1289.4c1.6,-1.6,3.7,.4,5.6,.4c22.2,-.1,24.3,-12.3,25.1,-18.2c.1,1.4,10.3,-.6,14.6,1.4c-.2,2.5,1.6,5.6,2.3,7.9c1.1,3.5,3.1,7.4,2.6,11.2c-.6,5.4,-7.4,6.1,-11.9,5.8c-3.4,-.2,-6.7,-1.1,-10.2,-1.1c-3.8,0,-7.6,-.1,-11.3,-.1c-4.2,0,-15.1,2.4,-17.6,-1.9c-.9,-1.6,-.4,-4,.8,-5.4Z" class="g3_4"/>
<path d="M742.5,1299.6c-.6,0,-1.3,0,-1.9,-.1c-1.6,-.1,-3,-.3,-4.5,-.5c-1.9,-.3,-3.7,-.5,-5.6,-.5c-1.9,0,-3.8,-.1,-5.7,-.1c-1.9,0,-3.8,0,-5.6,0c-.9,0,-2.1,.1,-3.6,.2c-5.5,.6,-12.9,1.3,-15.4,-3c-1.2,-2.1,-.7,-5.4,1,-7.3c1.8,-1.8,4,-1.1,5.3,-.6c.4,.2,.8,.3,1.2,.4c.9,.1,1.5,1,1.4,1.9c-.2,.9,-1,1.5,-1.9,1.3c-.7,-.1,-1.3,-.3,-1.9,-.5c-1.3,-.5,-1.5,-.4,-1.7,-.2c-.7,.8,-1,2.5,-.5,3.4c1.4,2.4,8.1,1.7,12.2,1.3c1.5,-.1,2.8,-.2,3.9,-.2c1.9,0,3.8,0,5.6,0c1.9,0,3.8,.1,5.7,.1c2.1,0,4.1,.3,6.1,.5c1.4,.3,2.8,.5,4.2,.5c2.2,.2,9.4,.3,10.1,-4.1c.2,-.8,1,-1.5,2,-1.3c.9,.2,1.5,1,1.3,1.9c-.8,4.5,-5,6.9,-11.7,6.9Z" class="g4_4"/>
</g>
<path d="M886.6,1249.3c-2.8,-18.5,-5.1,-36.8,-7.1,-55.3c-2.8,-27.2,-7,-107.3,-14.7,-133.5c0,-.7,0,-1.4,0,-2.1c0,-28,-26,-50.7,-58.2,-50.7c-32.1,0,-58.1,22.7,-58.1,50.7c-7.8,26.2,-11.9,108.4,-14.8,135.6c-1.9,18.5,-4.3,36.8,-7,55.3c-1,6.9,-3.2,16.7,.6,23.1c3.4,5.7,9.4,4.2,15,5.2c6.7,1.2,10.1,1.2,11.6,-6.2c1.3,-6.5,1,-13.3,2.3,-19.8c7.6,-38.2,20.9,-88.7,34.6,-125.1c4,-10.7,4,-17.4,15.8,-17.4c11.9,0,11.8,6.7,15.8,17.4c13.7,36.4,27.1,86.9,34.6,125.1c1.3,6.5,1.1,13.2,2.4,19.8c1.4,7.4,4.9,7.4,11.6,6.2c5.5,-1,11.5,.5,14.9,-5.2c3.9,-6.4,1.7,-16.2,.7,-23.1Z" class="g5_4"/>
<path d="M875.1,936.9L857.8,920.4l16.5,-17.1l17.3,16.5l-16.5,17.1Z" class="g3_4"/>
<path d="M875.3,868.9c.4,-.5,.9,-.9,1.4,-1.3c.5,-.4,1.1,-.8,1.6,-1.1c.5,-.3,1.1,-.6,1.7,-.8c.5,-.2,1.1,-.3,1.6,-.4c.6,-.1,1.2,-.2,1.7,-.2c.5,0,1,.1,1.5,.2c.5,.1,1,.3,1.4,.5c.4,.3,.8,.6,1.1,.9c.4,.3,.6,.7,.9,1.1c.2,.4,.4,.8,.6,1.3c.1,.5,.2,1,.2,1.5c.1,.6,0,1.1,0,1.7c-.1,.5,-.2,1.1,-.4,1.7c-.2,.5,-.4,1.1,-.7,1.7c-.3,.5,-.6,1.1,-1,1.6c-.4,.5,-.8,1,-1.3,1.5c-.4,.4,-.9,.9,-1.4,1.3c-.5,.4,-1,.7,-1.6,1c-.5,.3,-1.1,.6,-1.6,.8c-.6,.2,-1.2,.3,-1.7,.4c-.6,.1,-1.1,.2,-1.7,.2c-.5,0,-1,-.1,-1.5,-.2c-.5,-.1,-.9,-.3,-1.3,-.5c-.5,-.3,-.8,-.5,-1.2,-.9c-.3,-.3,-.6,-.7,-.9,-1.1c-.2,-.4,-.4,-.8,-.5,-1.3c-.2,-.5,-.3,-1,-.3,-1.5c0,-.6,0,-1.1,.1,-1.7c0,-.5,.2,-1.1,.4,-1.7c.1,-.5,.4,-1.1,.7,-1.6c.2,-.6,.6,-1.1,.9,-1.7c.4,-.5,.8,-1,1.3,-1.4Z" class="g3_4"/>
<g clip-path="url(#c3_4)">
<path d="M879.9,873.3c-10.9,11.4,-13.4,32.5,-2,43.5c11.4,10.9,32.5,7.6,43.5,-3.8c11,-11.5,10.6,-29.6,-.9,-40.5c-11.4,-11,-29.6,-10.6,-40.6,.8Z" class="g3_4"/>
<path d="M895.1,859.5c9.4,-5.5,17.2,-9.2,32.6,5.5c15.4,14.8,12,22.7,6.9,32.3c-5.1,9.6,-11.2,10,-11.2,10c0,0,4.4,-11.1,-2.5,-17.7c-6.9,-6.6,-8.8,-8.4,-8.8,-8.4c0,0,-1.9,-1.8,-8.8,-8.4c-6.9,-6.6,-17.8,-1.7,-17.8,-1.7c0,0,.2,-6.1,9.6,-11.6Z" class="g6_4"/>
<path d="M923.4,909c-.5,0,-1,-.3,-1.4,-.7c-.3,-.5,-.4,-1.1,-.2,-1.6c.1,-.1,3.9,-10.1,-2.1,-15.9L902.2,874c-6,-5.7,-15.9,-1.4,-16,-1.4c-.9,.4,-1.8,0,-2.2,-.8c-.4,-.9,0,-1.9,.8,-2.2c.5,-.2,12.1,-5.2,19.7,2L922,888.4c5.3,5.1,4.7,12.2,3.8,16.3c2,-1.1,4.8,-3.3,7.4,-8.2c.4,-.8,1.4,-1.1,2.2,-.7c.8,.5,1.1,1.5,.7,2.3c-5.5,10.3,-12.3,10.8,-12.6,10.9c0,0,-.1,0,-.1,0Z" class="g4_4"/>
<path d="M905.8,902.9c.3,.3,.8,.3,1.1,0c1,-1.1,2.7,-1.1,3.8,-.1c1,1,1.1,2.7,.1,3.8c-.3,.3,-.3,.8,0,1c.3,.3,.7,.3,1,0c1.6,-1.6,1.5,-4.3,-.1,-5.8c-1.7,-1.6,-4.3,-1.6,-5.9,.1c-.3,.3,-.2,.7,0,1Z" class="g4_4"/>
</g>
<path d="M885.7,883.6c.3,.3,.8,.3,1,0c1.1,-1,2.8,-1.1,3.8,-.1c1.1,1.1,1.2,2.8,.1,3.8c-.3,.3,-.2,.8,0,1.1c.3,.3,.8,.2,1.1,0c1.6,-1.7,1.5,-4.3,-.1,-5.9c-1.7,-1.6,-4.3,-1.5,-5.9,.1c-.3,.3,-.3,.8,0,1Z" class="g4_4"/>
<path d="M894,900c.8,.8,.8,1.9,.1,2.7l-2.7,-2.6c.7,-.7,1.9,-.8,2.6,-.1Z" class="g4_4"/>
<path d="M885.3,909.1c-2.5,-2.4,-2.9,-5.9,-1,-7.9l8.9,8.6c-1.9,2,-5.4,1.7,-7.9,-.7Z" class="g7_4"/>
<g clip-path="url(#c3_4)">
<path d="M913.3,878.5c-.4,0,-.8,0,-1.3,-.1c-.9,-.1,-1.5,-.9,-1.4,-1.9c.2,-.9,1,-1.5,1.9,-1.3c2.2,.3,3,-.7,4.6,-2.9c1.4,-2,3.2,-4.4,6.8,-5c.9,-.1,1.7,.5,1.9,1.4c.1,.9,-.5,1.7,-1.4,1.9c-2.2,.3,-3.3,1.9,-4.6,3.6c-1.4,2,-3.2,4.3,-6.5,4.3Z" class="g4_4"/>
<path d="M909.2,873.6c-.8,0,-1.5,-.6,-1.6,-1.4c-.2,-.9,.4,-1.7,1.3,-1.9c1.2,-.2,2,-1.3,3,-3c.3,-.4,.6,-.9,.9,-1.3c1.3,-1.8,2.6,-2.3,3.8,-2.8c.6,-.2,1.1,-.4,1.7,-.9c.7,-.5,1.8,-.4,2.3,.4c.6,.7,.4,1.7,-.3,2.3c-1,.7,-1.8,1,-2.5,1.3c-1,.4,-1.6,.6,-2.3,1.6c-.3,.4,-.5,.8,-.8,1.2c-1.1,1.7,-2.4,3.9,-5.2,4.4c-.1,.1,-.2,.1,-.3,.1Z" class="g4_4"/>
<path d="M901.8,868.6c-.7,0,-1.4,-.4,-1.6,-1.1c-.3,-.9,.2,-1.8,1.1,-2.1c1.6,-.5,2.4,-1.5,3.3,-2.9c1.2,-1.5,2.5,-3.5,5.4,-4.3c.9,-.3,1.8,.2,2.1,1.1c.2,.9,-.3,1.8,-1.2,2.1c-1.7,.5,-2.5,1.6,-3.6,3c-1.1,1.6,-2.4,3.4,-5,4.2c-.2,0,-.3,0,-.5,0Z" class="g4_4"/>
</g>
<path d="M897.5,868.6c-.4,0,-.8,-.1,-1.2,-.4c-.6,-.7,-.6,-1.7,0,-2.4c.4,-.4,.8,-.8,1.2,-1.3c1.2,-1.3,2.4,-2.6,3.9,-3.7c.7,-.5,1.7,-.4,2.3,.4c.5,.7,.4,1.7,-.4,2.3c-1.1,.8,-2.3,2.1,-3.3,3.3c-.5,.4,-.9,.9,-1.3,1.3c-.3,.4,-.8,.5,-1.2,.5Z" class="g4_4"/>
<path d="M815.1,913.9c.1,-.2,.2,-.4,.3,-.6c1.6,-1.9,3.2,-3.7,4.8,-5.4c9.3,-9.9,13.6,-9.9,20.4,-5.4q.1,0,.2,.1c.3,.2,.6,.4,.9,.7c20.7,17.8,9.8,2.8,30.1,20.3c20.4,17.5,1.8,7.2,22.5,25c.3,.3,.5,.5,.8,.8q.1,.1,.1,.2c5.5,6,6.2,10.4,-1.7,21.4c-1.4,2,-2.8,3.9,-4.4,5.8c-.1,.2,-.3,.3,-.5,.5c-8.1,9.4,-20.6,12.1,-30.2,19L801.9,947.7c5,-11,5.5,-24,13.2,-33.8Z" class="g3_4"/>
<path d="M806.8,931.8c.2,-.3,.2,-.8,.6,-1c.4,-.2,1,-.1,1.4,-.1c.8,0,1.6,0,2.4,-.1c1.5,-.2,3.1,-.4,4.6,-.7c3.1,-.5,6.1,-1.4,9,-2.4c1.6,-.6,3.2,-1.2,4.8,-1.9c3.3,-1.4,6.4,-3.3,9.2,-5.4c2.7,-2.1,5.1,-4.6,7.4,-7.1c.7,-.8,1.3,-1.5,1.9,-2.2c.5,-.6,.7,-1.2,1.3,-1.7c.7,-.6,8.6,3.9,8.8,4.2c.2,.2,.1,.7,.1,1c0,.4,0,.9,.2,1.2c8.8,15.8,23.8,18,24.4,17.9c1.1,-.2,5.6,6.5,5.6,7c.1,.6,-.2,.9,-.6,1.4c-.4,.6,-.9,1.2,-1.3,1.8c-.9,1.2,-1.7,2.4,-2.6,3.6c-.4,.7,-.9,1.4,-1.3,2.1c-1.8,2.9,-3.3,6,-4.4,9.3c-.6,1.9,-1.1,3.9,-1.5,5.9c-.5,2.9,-.8,5.9,-1,8.9c-.1,3.1,-.1,6.1,.3,9.1c.1,.9,.2,1.7,.4,2.5c.1,.4,.1,.8,.2,1.2c.1,.3,.4,.9,.4,1.2c0,.4,-.3,.5,-.5,.7c-1.2,.7,-9,2,-9.1,9.1c-.2,20.4,-1.9,24.4,-2.3,44.8c-.1,3.2,-.1,6.4,-.1,9.5c0,2.7,.8,6.7,0,9.3c-.7,2.6,-5.2,4.6,-7.3,5.8c-3.3,1.7,-6.7,3.1,-10.2,4.2c-7,2.1,-14.3,3.2,-21.5,3.8c-16.7,1.5,-33.3,.2,-49.8,-2.5c-9.2,-1.4,-18.1,-4.5,-27.1,-7c-3.9,-1,-1.5,-8.6,-1.5,-9.8c-.3,-3.6,.1,-7.1,.7,-10.7c1.5,-8.2,20.4,-49.9,31,-69.6c8.1,-15,17.5,-29.4,27.4,-43.3Z" class="g8_4"/>
<path d="M812.2,1078.1c-20,0,-40.2,-4.5,-57.6,-9.3c-.9,-.2,-1.4,-1.1,-1.2,-2c.3,-.9,1.2,-1.4,2,-1.2c31.4,8.7,71.5,16.3,103.5,-2c.8,-.5,1.8,-.2,2.2,.6c.5,.8,.2,1.8,-.6,2.2c-15,8.6,-31.6,11.7,-48.3,11.7Z" class="g4_4"/>
<path clip-path="url(#c3_4)" d="M933,819.6c12.3,-5.2,24.6,-9.1,37.9,-13.5c9.3,-3.1,17,-15.4,.7,-16c-9,-.3,-22.6,2.4,-31.3,4.8c-37.1,11,-75,28.2,-98,58.9c-18.7,25,-26,39,-28.3,67.2c-.5,5.6,4,13.2,10.2,13.2c6.8,.1,14.8,-11.4,17.5,-16.9c11.4,-23.4,24.1,-52.6,47.3,-70.2c13.3,-10.5,28.6,-20.9,44,-27.5Z" class="g3_4"/>
<path d="M845.7,922.2c5.2,-9,9.4,-18.5,14,-27.8c.9,-1.7,2,-3.3,2.9,-5c.4,-.7,.8,-1.6,.6,-2.5c-.3,-1,-1.3,-1.4,-2.1,-2c-1.4,-1,-2.9,-1.9,-4.3,-3c-2.2,-1.8,-4.4,-3.7,-6.6,-5.6C846,872.5,842.1,868.4,838.5,864c-.9,-1.1,-4,-6.6,-5.9,-5.4c-2.2,1.4,-3.3,3.1,-4.6,5.2c-1.8,2.6,-3.4,5.2,-5,7.9c-.8,1.5,-1.7,3,-2.5,4.4c-5.9,10.8,-16.3,49.8,-13.7,55.7c2.7,6.1,10.6,7.5,17.3,8.2c9.4,.9,17.6,-11,21.6,-17.8Z" class="g8_4"/>
<g clip-path="url(#c3_4)">
<path d="M975.7,863.7c5.7,-12,10,-24.2,14.9,-37.2c3.4,-9.2,16.1,-16.5,16,-.2c0,9,-3.2,22.5,-5.9,31.1c-12.4,36.5,-31,73.7,-62.6,95.5c-25.7,17.7,-40,24.5,-68.4,25.8c-5.5,.3,-13,-4.5,-12.8,-10.7c.2,-6.7,11.9,-14.4,17.6,-16.9c23.8,-10.5,53.6,-22.1,72.1,-44.5c10.9,-12.9,21.9,-27.8,29.1,-42.9Z" class="g3_4"/>
<path d="M869.8,947c9.1,-4.9,18.8,-8.6,28.2,-12.9c1.8,-.8,3.4,-1.9,5.2,-2.8c.7,-.3,1.7,-.7,2.5,-.4c1,.3,1.4,1.3,1.9,2.1c1,1.5,1.9,3,2.9,4.4c1.7,2.3,3.5,4.6,5.4,6.8c3.7,4.3,7.6,8.4,11.9,12.1c1.1,.9,6.5,4.3,5.2,6.1c-1.5,2.1,-3.3,3.1,-5.4,4.4c-2.7,1.6,-5.4,3.2,-8.1,4.7c-1.5,.8,-3,1.5,-4.6,2.3c-11,5.5,-26.1,13.1,-38.3,14.4c-6.2,.6,-9.4,-2.8,-15.2,-5.6c-6,-3,-9.9,-8,-10.3,-14.7c-.6,-9.4,11.7,-17.1,18.7,-20.9Z" class="g8_4"/>
</g>
<g clip-path="url(#c4_4)">
<path d="M131.4,1200c.2,0,.4,0,.6,.1c-.2,-.1,-.4,-.1,-.6,-.1Zm-1.8,-.3c.3,.1,.6,.1,.9,.2c-.3,-.1,-.6,-.1,-.9,-.2Zm-1.7,-.3c.4,0,.7,.1,1.1,.2c-.4,-.1,-.7,-.2,-1.1,-.2Zm-1.7,-.5c.4,.1,.8,.2,1.3,.4c-.5,-.1,-.9,-.3,-1.3,-.4Zm-1.7,-.5c.5,.2,.9,.3,1.4,.4c-.5,-.1,-.9,-.2,-1.4,-.4Zm8.6,1.8c.2,0,.3,0,.4,0c-.1,0,-.2,0,-.4,0ZM99.7,1170.6c-.1,-.5,-.2,-1.1,-.3,-1.6c.1,.5,.2,1.1,.3,1.6ZM141.5,945.9c0,-.2,0,-.5,0,-.7c0,.2,0,.5,0,.7Zm-.2,-1.6c.1,.3,.1,.5,.1,.7c0,-.2,-.1,-.4,-.1,-.7Zm24.1,-5.2c-.1,0,-.2,-.1,-.3,-.1c.1,0,.2,.1,.3,.1Zm3.8,26.1c-.7,0,-1.3,-.1,-1.8,-.3h.1c.5,.2,1.1,.3,1.6,.3h.1ZM150,992.1v0Zm109,330.2l-1,.8c-.7,.4,-1.4,.9,-2.1,1.2c.7,-.3,1.4,-.8,2.1,-1.2l1,-.8Zm-10.3,3.7c-1,0,-2,-.1,-2.9,-.3c.9,.2,1.9,.3,2.9,.3Zm2.7,-16.7l-3.3,-.4v-.4l.1,-.9l9,-128.5c.2,-2.9,-1.8,-5.4,-4.6,-5.9l-80.1,-11.9l-1.9,-.3l-2,-.3l-35.1,-5.3l12.1,-3.8l1.5,-.5l.1,1.8l.7,.1l.7,-1.7l-.7,-.4l.5,-.2l.7,-.3l.1,1.4l-1.1,1.3l9.6,1.4l1.9,.3l2,.3l95.6,14.7c2.8,.5,4.8,3.1,4.6,6l-9.1,131.7l-.1,1.2l-.2,2.4h-1.1l.1,-1.8ZM99.9,1166.1l.1,-.1l33.1,-10.5l-33.2,10.6ZM122.5,991.6q.1,0,.2,0h-.2Zm8.1,-2.6c-.1,0,-.1,-.1,-.2,-.1c.1,0,.1,.1,.2,.1Zm36.2,-24.4c.1,.1,.3,.2,.5,.2c-.2,0,-.4,-.1,-.5,-.2Zm-.6,-.3c.2,.1,.3,.2,.5,.3c-.2,-.1,-.3,-.2,-.5,-.3Zm-.4,-.3c.1,.1,.2,.2,.4,.3c-.2,-.1,-.3,-.2,-.4,-.3Zm-.1,0c-.1,-.1,-.2,-.2,-.3,-.3c.1,.1,.2,.2,.3,.3Zm-2,46.7c1.4,.6,2.9,1.1,4.4,1.4c-1.5,-.3,-3,-.8,-4.4,-1.4Zm-1.4,-.7c.3,.2,.7,.4,1.1,.5c-.4,-.1,-.8,-.3,-1.1,-.5Zm-1.5,-.9c.3,.2,.6,.4,1,.6c-.4,-.2,-.7,-.4,-1,-.6Zm-1.4,-1c.2,.3,.5,.4,.8,.6c-.3,-.2,-.6,-.3,-.8,-.6ZM158,1007c.2,.2,.4,.4,.6,.6c-.2,-.2,-.4,-.4,-.6,-.6Zm17.1,135.2l.2,-.1l-14,4.5l13.8,-4.4ZM125,992q.1,0,.1,0H125Zm45.6,116l-.4,-1.6c0,-.2,-.1,-.4,-.2,-.6c.1,.2,.2,.4,.2,.6l.4,1.3c0,.1,0,.2,0,.3Zm-60.5,1.8l17.1,12.2l-17.4,-12.5l.3,.3Zm42.6,-108.3c-.4,-.4,-.9,-.9,-1.3,-1.3c.4,.5,.9,.9,1.3,1.3Zm.1,.1c.6,.6,1.1,1.2,1.7,1.8c-.5,-.6,-1.1,-1.1,-1.7,-1.8Zm6.1,100.4c.6,-.3,1.3,-.4,1.9,-.5c-.6,.1,-1.3,.2,-1.9,.5Zm5.5,.1c-.9,-.4,-1.9,-.6,-2.8,-.6c.9,0,1.9,.2,2.8,.6l1.7,.7l-1.7,-.7Zm-4.6,6.1v0l4.1,.3c-2.2,-.1,-4.1,-.3,-4.1,-.3Zm-11.4,34.3l-.2,.1l.7,-.2l-.5,.1ZM141.1,1000v0c.5,.3,.9,.7,1.3,1.1c-.4,-.4,-.9,-.8,-1.3,-1.1Zm3,2.8c-.5,-.5,-.9,-1,-1.4,-1.5c.5,.5,.9,1,1.4,1.5Zm7.6,15.7c0,.5,.1,1.1,.1,1.7c0,-.6,-.1,-1.2,-.1,-1.7Zm.1,2c.1,.6,.1,1.2,.1,1.9c0,-.7,0,-1.3,-.1,-1.9Zm-.4,-4.1c.1,.5,.1,1,.2,1.5c-.1,-.5,-.1,-1,-.2,-1.5Zm-.1,16.6c0,.1,-.1,.2,-.1,.3c0,-.1,.1,-.2,.1,-.3Zm.2,-2.2c0,.1,0,.3,0,.5c0,-.2,0,-.4,0,-.5Zm-1.9,8.6c-.1,.1,-.1,.3,-.2,.4c.1,-.1,.1,-.3,.2,-.4Zm.7,-2c-.1,.1,-.1,.3,-.2,.4c.1,-.1,.1,-.3,.2,-.4Zm-1.6,4.2c-.1,.1,-.1,.2,-.2,.3c.1,-.1,.1,-.2,.2,-.3Zm-1,2v0c-.1,.2,-.2,.4,-.3,.6c.1,-.2,.2,-.4,.3,-.6Zm-1.2,2.1c-.4,.6,-.8,1.2,-1.3,1.8c.4,-.5,.8,-1.1,1.2,-1.6v-.2c.1,-.1,.2,-.3,.3,-.4c-.1,.1,-.1,.2,-.2,.4Zm-28.2,41.7l-.1,-.1l.7,.7l10.3,10.6l-10.9,-11.2Zm48.7,25.9c-.4,-.4,-.8,-.8,-1.3,-1.1l-1.4,-.9l1.4,.9c.5,.3,.9,.7,1.3,1.1Zm0,0c.1,.1,.2,.3,.4,.4c-.2,-.1,-.3,-.3,-.4,-.4Zm.6,.6c.1,.3,.3,.5,.4,.8c-.1,-.3,-.3,-.5,-.4,-.8Zm2.4,4.4c.4,.7,.4,1.6,0,2.3c.4,-.7,.4,-1.6,0,-2.3Zm-1.5,5.3v0l-.1,.1l.1,-.1Zm-18,11.1v-.1c.6,-.1,1.2,-.3,1.8,-.6c-.6,.3,-1.2,.5,-1.8,.7Zm-37,-68.3l-2.2,3l2.2,-3Zm31,-63.2c0,0,-.1,-.1,-.2,-.2c.1,.1,.2,.1,.2,.2Zm6.4,11.2c.1,.4,.2,.8,.3,1.3c-.1,-.5,-.2,-.9,-.3,-1.3Zm-.7,-2.1c.1,.4,.3,.8,.4,1.3c-.1,-.5,-.3,-.9,-.4,-1.3Zm-.9,-2.1c.2,.5,.4,.9,.6,1.4c-.2,-.5,-.4,-.9,-.6,-1.4Zm-1,-2c.3,.6,.6,1.1,.8,1.7c-.2,-.6,-.5,-1.1,-.8,-1.7Zm-.9,-1.4v0c.3,.4,.6,.9,.9,1.4c-.3,-.5,-.6,-.9,-.9,-1.4Zm-4.5,43.6c-1.1,1.1,-2.3,2.2,-3.6,3.2c-5.6,4.5,-12.3,7,-19.5,7.2c10.1,-.3,19.4,-5.2,25.4,-13.2c-.8,.9,-1.5,1.9,-2.3,2.8Zm-25.4,36.2l.3,.3l-.3,-.3Zm32.1,48.2h.1l.3,-.1c-.1,.1,-.3,.1,-.4,.1Zm-9.4,-126.5c0,0,0,.1,.1,.1c-.1,0,-.1,-.1,-.1,-.1Zm-.8,-1.1q.1,0,.1,0h-.1Zm1.4,2.3c.1,0,.1,.1,.1,.2c0,-.1,0,-.2,-.1,-.2Zm6.1,-3.4c.1,.1,.1,.2,.2,.3l-.2,-.3Zm-4.3,127.3c-.1,-.1,-.3,-.3,-.5,-.4c.2,.1,.4,.3,.5,.4Zm2.9,1.2v0c.4,.1,.8,.2,1.1,.2c-.3,0,-.7,-.1,-1.1,-.2Zm-.9,-.3v0l.1,.1c0,0,-.1,-.1,-.1,-.1Zm-1.5,-.7l.4,.2c-.3,-.1,-.6,-.2,-.8,-.4l.4,.2Zm-28.6,-50.2l2.4,2.5l-2.4,-2.5Zm28.7,-64.6c0,-.5,-.1,-.9,-.1,-1.3c0,.4,.1,.8,.1,1.3Zm-.6,-4.5v-.1q0,.1,0,.1Zm.3,1.4c.1,.5,.1,1,.2,1.4c-.1,-.4,-.1,-.9,-.2,-1.4Zm-2.8,14.2c-.3,.5,-.6,.9,-.9,1.3c.3,-.4,.6,-.8,.9,-1.3Zm1.4,-2.7v0c-.4,.9,-.8,1.7,-1.3,2.5c.5,-.8,.9,-1.7,1.3,-2.5Zm1.5,-5.5v-.1c0,-.3,.1,-.7,.1,-1.1c0,.4,-.1,.8,-.1,1.2Zm.1,-1.4c.1,-.5,.1,-.9,.1,-1.4c0,.5,0,.9,-.1,1.4Zm-1.2,-8.5c0,0,0,.1,0,.1l-.1,-.2l.1,.1Zm3,131.7l-1.2,.4l-2.5,.7l4.8,-1.4l-1.1,.3Zm11.7,-137.7v0Zm.1,.1q.1,0,.1,.1q0,-.1,-.1,-.1Zm5.5,-61.4c0,-.3,.2,-.5,.5,-.5c.3,0,.5,.2,.5,.5c0,.3,-.2,.5,-.5,.5c-.3,0,-.5,-.2,-.5,-.5Zm-22.1,12.2c-.2,0,-.4,-.1,-.5,-.1c.1,0,.3,.1,.5,.1Zm.5,.1c0,0,-.1,0,-.1,0c0,0,.1,0,.1,0Zm-60,131.8l27.5,19.8L80.6,1088.6Zm19.1,82.1c2.8,13.1,12.4,23.5,24.7,27.7c-12.3,-4.2,-21.9,-14.6,-24.7,-27.7ZM-19.5,1290.2c.1,.1,.1,.2,.2,.3c-.1,-.1,-.1,-.2,-.2,-.3Zm.5,.8c.1,.2,.3,.4,.4,.5c-.1,-.1,-.3,-.3,-.4,-.5Zm-15.6,39.4c.4,.2,.7,.3,1.1,.4c-.4,-.1,-.7,-.2,-1.1,-.4Zm13.5,-46.5l.1,-1.1l.4,-9l-.5,10.1Zm.9,5c.1,.1,.1,.2,.2,.3c-.1,-.1,-.1,-.2,-.2,-.3Zm-.3,-.9c0,.1,.1,.2,.1,.2c0,0,-.1,-.1,-.1,-.2Zm-14.3,42.3l-.1,-.1q.1,.1,.1,.1Zm344.1,18.3V1347c0,-2,-1.3,-3.7,-3.2,-4.3l-19.5,-5.6c-.6,-.2,-1.1,-.5,-1.6,-.9l-20.8,-17.6l-1,.8l-1.5,1l-.6,.5l-.9,.6l-1,.7l1.9,-1.3l1.3,-9.8H267l17.2,-129.6c1.8,-13,-7,-24.7,-19.8,-26.8L176,1140.6v-1l.1,-.9v-4.1L177,1070v-1.3l-1.2,.4l.3,-.4v.1l.9,-1.4l1.8,-2.7l.1,-.2c4.2,-6.5,8.9,-15.1,8.2,-20.3c-.7,-4.8,-5.4,-13.2,-9.2,-19.5l-.1,-.2c-.6,-.9,-1.2,-1.8,-1.7,-2.7l-.1,-.1c-.7,-1.1,-1.3,-2,-1.7,-2.7l-.2,-.3l-.1,-.1l-.6,-.8q0,-.1,0,-.1l.1,-.3l-.1,-.4c-.6,-1.3,-1.2,-2.6,-1.8,-3.8l-.2,-.4l-3,-.6l3,.6l-1,-1.8c-3.4,-5.8,-7.9,-10.9,-13,-14.6l-.4,-.3c0,0,-.1,0,-.1,0l-1.4,-1c-1.2,-.8,-2.5,-1.6,-3.8,-2.2l-.8,-.4h-.1l-.1,-.1l-.7,-.3l2.8,-9.2h1q.1,0,.3,0h.7c.4,-.1,.8,-.1,1.2,-.2v.1l1.2,-.2l.7,-.2c7.1,-1.9,12.7,-8.2,13.9,-16.2l.2,-1.3l-1.4,.2c-.3,.1,-.7,.2,-1.1,.2c-.1,0,-.2,0,-.3,-.1l.1,.1c0,0,.2,0,.2,0c.6,0,1.2,-.1,1.8,-.3l.6,-.2l.1,-1c0,-.3,0,-.6,0,-.9v-7.5l-.8,.1l.8,-.1h.1l2,-.1c.6,-.1,1.1,-.4,1.4,-.9c.3,-.4,.4,-.9,.3,-1.4v-.1l-2,-4.1l-.9,-1.9l-.4,-.7l-.5,-1.1v-1.4l-.4,.6l-.2,-.4l-.8,-1.7l1.4,.9V937c0,-5.5,-1.9,-10.6,-5.5,-14.4l-1.6,-1.7v10.6c0,2,-.6,4,-1.6,5.7l-.7,1.1l1.2,.3q.1,0,.1,0c-.3,0,-.6,-.1,-.9,-.2l-.5,-.1l-.3,.4c-2.1,2.4,-5.1,3.8,-8.3,3.8H140.5l.3,.8l-.3,-.5l-.3,-.3c-.4,-.4,-.8,-.7,-1.2,-1v-.1l-.5,-.2v-.6l-.4,.5V941l-.4,-.1l-.3,-.1h-.1v-.2l-.8,.1v-.1l-.6,.2h-.4v-.3l-.9,.6l-.5,.4l-.4,.2v.1c-.3,.2,-.5,.4,-.7,.7l-.3,.4l-.8,1.4h.3c-.1,.3,-.1,.5,-.1,.8v2.3c0,.1,0,.2,0,.4l.1,.4l.1,2.2l.2,-.3l.1,.1l.9,2.9l.1,-.5l.6,1.1l.1,-.2l.7,.9l.1,-.2c.5,.5,1,.9,1.6,1.2v.1l.5,.3l.5,.2l-1,-.4v18.6c0,5.6,-3.3,10.6,-8.4,12.8l.4,1.8c.3,0,.6,0,.9,.1c-.4,-.1,-.9,-.1,-1.3,-.1c-.1,0,-.5,0,-.5,0h-.1c-1.1,0,-2.3,.2,-3.4,.4v-.1l-1.6,.4l-.5,.1c-.1,0,-.2,.1,-.2,.1v.4l-.4,1.3l.1,.1l-.1,-.1h-2c-.1,0,-.3,0,-.4,0c-.6,0,-1.1,0,-1.6,0h-.2l-.2,.1c-2.7,1.4,-5,3.2,-7.1,5.3l-.4,.5l-1,1h.1c-2.6,3.2,-4.2,6.9,-4.8,10.6l-.2,.1l.1,.6v.1l.1,.2l-.2,.3l-1,2l-.8,1.7l-28.6,55.6c-3,5.8,-1.2,13.1,4.1,16.9v.1l.6,.4l1.1,.8l-.2,-.2l-.5,1.1c-2.3,5.7,-.4,12.4,4.6,15.9l23.3,16.7l-7.7,36.1l.3,-.1l-.3,.1l-.4,1.5l-.3,1.7l-.3,1l-.1,.1l.1,.3l-.1,.5l-.1,.2L97,1165l-.5,2.1h.1l1.5,-.4v-.1l.9,-.2l.1,.7c.1,.6,.2,1.1,.3,1.7c-.1,-.2,-.1,-.4,-.2,-.7H97.4c-.2,1.2,-.4,2.4,-.5,3.6l-3.8,116.7L2.6,1275.7L1,1275.4H.7l-4.1,-.6l-.5,-.1l-.9,-.1l-15.8,-1.8l.1,-1.9l.1,-2.8l-23.3,.4l-2.3,.4l-5.5,.9l11,62.6c.4,2.4,2.4,4,4.8,4H-16v-4.6l-16.8,-.9l16.8,.9l-.3,-1.2c-.9,-3.8,-4.4,-6.5,-8.3,-6.5H-25l.1,-.3l13.5,-23.2l.2,-.5l.3,-.3h.5l-.4,-.3l.4,-.6l-1.1,-.1l-1.4,-1.4l-4.7,-4.7c-.3,-.3,-.5,-.5,-.7,-.8c.2,.3,.4,.5,.7,.8l6.1,6.1l4.5,.4l2.1,-23.7v.1l-1.2,13l6,1.2l.9,.1l1,.2l98.4,18.7c.5,.1,.9,.1,1.3,.1c3,0,5.6,-2,6.4,-4.9l28.2,-103.7h-1.2c.5,0,1,0,1.5,0h29.7H142.6l-30,108.8c-1,3.5,-4.2,6,-7.9,6c-.5,0,-1,-.1,-1.5,-.2L1.5,1295.3l-1,-.2l-1.7,-.4l-5.3,-1l-.5,5.5l-.1,.9l-.1,1l-.5,5.3l115.2,28.8c1.8,.4,3.6,.6,5.3,.6c10.9,0,20.4,-7.4,23.1,-18L168,1200.3h2v-.1l69.1,-.1l-3.8,108.8l-.1,2h.1l-.1,.2h1.5l-1.3,12.3l-1,-.2l-.8,-.2l-1.8,-.4l-3.7,23.2v7.8h76.8c2.3,0,4.2,-1.7,4.4,-4l.1,-1h-.1Z" class="g9_4"/>
<path d="M71.9,1075.3c.1,-2,.6,-4,1.5,-5.8l29.4,-57.3c0,.6,.1,1.2,.1,1.9l-28.7,55.8c-2.8,5.5,-1.1,12.2,3.8,15.8l.7,.4l-.5,.9l-.3,-.3l.3,.3l.5,-.9l.7,.6l.8,.5l28.2,20.2l1.6,1.1l26.9,19.3l-.1,.3c.2,0,.3,.1,.5,.1l5.3,4c.3,.2,.6,.4,1,.6c.3,.2,.6,.3,.9,.5c1,.4,2.1,.7,3.2,.7c.3,0,.6,0,.9,0c.3,0,.6,-.1,.9,-.1c1.1,-.2,2.1,-.5,3.1,-1.1l7.7,-4.4c.2,-.1,.5,-.1,.7,-.1l3.6,.7l.5,-1l-5.8,-5.4c-.4,-.4,-.4,-1,-.1,-1.3c.4,-.4,1,-.4,1.4,-.1l5.4,5.1l1.3,-2.5l-5.4,-5.9c-.3,-.4,-.3,-1,.1,-1.3c.4,-.4,1,-.4,1.3,0l5,5.4l.9,-1.8c.3,-.5,.3,-1,0,-1.5l-2,-3.6c-.5,-.8,-1.2,-1.6,-2,-2.1l-6,-4c-.3,-.2,-.5,-.7,-.3,-1.1c.1,-.4,.5,-.6,.9,-.6l9.8,.7l-.3,-1.3c-.2,-1,-.9,-1.9,-1.9,-2.3l-3.4,-1.5c-1.5,-.6,-3.2,-.6,-4.7,0l-17.7,7.1l-1,.4l-.3,.1c-.2,.1,-.4,.1,-.5,.1l-.1,.2l-.4,-.5h-.1L117.6,1088l-.6,-.6l-.7,-.7l-1.3,-1.4l-.8,-.8l-.8,-.8l-2,-2c-3.4,-3.5,-3.7,-8.9,-.9,-12.9l2.7,-3.6l.8,-1l.7,-1.1l23.7,-32.4c1.4,-1.8,2.3,-3.8,3,-5.9c.1,-.5,.2,-1,.3,-1.4c.2,-.5,.3,-1.1,.3,-1.6c.3,-1.9,.3,-3.9,0,-5.9c-.2,-.9,-.4,-1.8,-.6,-2.6c-.1,-.3,-.2,-.6,-.3,-.9c-.1,-.3,-.2,-.6,-.3,-.9c-1.4,-3.4,-3.7,-6.4,-6.8,-8.6c-.2,-.1,-.3,-.3,-.4,-.5c0,-.3,0,-.5,.2,-.8c.3,-.4,.9,-.5,1.3,-.2c3.3,2.4,5.8,5.5,7.3,9.2c.1,.3,.3,.6,.4,.9c.1,.3,.2,.6,.3,.9c.3,1.1,.6,2.1,.7,3.2c.5,3,.4,6.1,-.4,9c-.1,.5,-.3,.9,-.4,1.4c-.2,.4,-.4,.8,-.5,1.3c-.7,1.6,-1.5,3.1,-2.6,4.5l-20.5,28.1c11,-.3,20.6,-6,26.2,-14.5c.4,-.8,.9,-1.5,1.3,-2.2c.3,-.7,.6,-1.3,1,-2c1.7,-3.8,2.7,-8,2.8,-12.5l.2,-6.3c.2,-5.6,-1.4,-11,-4.6,-15.5c-.2,-.3,-.4,-.6,-.7,-.9c-.1,-.2,-.3,-.5,-.5,-.7c0,-.1,-.1,-.1,-.2,-.2c-1.7,-2.1,-3.9,-4.2,-6.5,-6.1c-4.5,-3.2,-10,-5.9,-16.1,-6.5c-.4,-.1,-.7,-.1,-1,-.1c-.3,-.1,-.6,-.1,-1,-.1c-.9,0,-1.8,0,-2.7,0c-2.7,1.4,-5.2,3.3,-7.2,5.6c-.2,.2,-.5,.5,-.7,.8c-2.7,3.3,-4.3,7,-4.8,10.9v.1c.1,.2,0,.4,-.1,.6v.2l-1,1.9l-.9,1.7c0,-.7,-.1,-1.3,-.1,-1.9l-29.4,57.3c-.9,1.8,-1.4,3.8,-1.5,5.8Zm50.9,-87.7l.1,.6l-.1,-.6l-.4,-1.9l-.3,1.1l.3,-1.1l.4,1.9Zm.4,1.9l-.1,-.1l-.1,-.6l.1,.6l.1,.1Zm1.2,-.4c.3,-.1,.7,-.1,1.1,-.2c.2,-.1,.5,-.1,.7,-.2c-.2,.1,-.5,.1,-.7,.2c-.4,.1,-.8,.1,-1.1,.2Zm6.8,-44c0,-.4,0,-.8,.1,-1.2c-.1,.4,-.1,.8,-.1,1.2Zm1.5,-3.7c.5,-.5,1.2,-1,1.9,-1.2c.3,-.1,.6,-.2,.9,-.3c.1,0,.2,0,.3,0c-.1,0,-.2,0,-.3,0c-.3,.1,-.6,.2,-.9,.3c-.7,.2,-1.4,.7,-1.9,1.2Zm3.8,-1.6h-.1q.1,0,.1,0Zm-5.2,8.9c0,.4,.1,.8,.2,1.2c.2,.7,.4,1.4,.8,2.1c-.4,-.7,-.6,-1.4,-.8,-2.1c-.1,-.4,-.2,-.8,-.2,-1.2Zm2.7,5.8c-.1,-.1,-.2,-.2,-.2,-.3c0,.1,.1,.2,.2,.3c.3,.2,.5,.5,.8,.7c-.3,-.2,-.5,-.5,-.8,-.7Zm12.6,-11.1h-4.7c.4,.8,.6,1.6,.6,2.5c0,.5,-.5,1,-1,1c-.5,0,-.9,-.5,-.9,-1c0,-.9,-.3,-1.8,-.9,-2.5c-.4,-.6,-1.1,-1.1,-1.8,-1.4c-.3,-.1,-.6,-.2,-.9,-.2c-.2,0,-.4,-.1,-.5,-.1q-.1,0,-.1,0c-.1,0,-.3,0,-.4,.1c-.2,0,-.3,0,-.5,0c-.3,.1,-.6,.3,-.9,.5c-.5,.2,-.8,.6,-1.1,1.1c-.3,.5,-.4,1.1,-.4,1.7v2.3c0,.2,0,.5,0,.7c0,.6,.2,1.2,.3,1.8c.2,.5,.4,1,.6,1.4c.2,.4,.4,.7,.7,1c.7,1.1,1.7,2,2.9,2.6c1.2,.6,2.5,1,3.9,1c.5,0,1,.4,1,.9c0,.5,-.5,1,-1,1c-1,0,-1.9,-.2,-2.8,-.5c-.4,-.1,-.8,-.2,-1.1,-.3v17.2c0,6,-3.6,11.4,-8.9,13.7c2.4,0,5.3,.6,8.4,1.8c3.4,1.3,7.1,3.4,10.7,6.2c.3,.2,.5,.4,.8,.6c.2,.2,.5,.4,.8,.6c.7,.7,1.5,1.4,2.3,2.1c1.5,1.4,2.9,2.9,4.3,4.5c.4,.5,.8,1,1.3,1.4c3.1,3.2,6.9,5.2,11,6.1c.1,.1,.2,.1,.3,.1l1,.2c-3.4,-5.9,-8,-10.9,-13.2,-14.7c-1.9,-1.3,-3.8,-2.5,-5.9,-3.4c-.3,-.2,-.5,-.3,-.8,-.4c-.3,-.1,-.6,-.3,-.9,-.4c-1.1,-.4,-2.2,-.8,-3.3,-1.2c-.4,-.1,-.6,-.5,-.6,-.9c0,-.1,0,-.2,0,-.2c.2,-.5,.7,-.8,1.2,-.7c1.1,.4,2.2,.8,3.3,1.2l2.1,-6.9h-2.1c-.5,0,-.9,-.5,-.9,-1c0,-.4,.2,-.7,.6,-.8c.1,-.1,.2,-.1,.3,-.1h4.4c.1,0,.2,0,.3,0c1,-.1,2,-.2,2.9,-.4c7.1,-1.4,12.6,-7.7,13.8,-15.5c-.4,.1,-.9,.1,-1.3,.1c-3,0,-5,-2,-5.1,-2.1c-.4,-.4,-.4,-1,0,-1.3c.4,-.4,1,-.4,1.3,0c.1,0,.8,.7,2,1.2c.5,.2,1,.3,1.6,.3c.5,0,1.1,0,1.7,-.2c.1,-.4,.1,-.8,.1,-1.2v-6.5l-.7,.1c0,0,-.1,0,-.1,0c-.5,0,-.9,-.4,-.9,-.9c-.1,-.5,.3,-1,.8,-1h.1l.8,-.1h.9l1,-.1l1,-.1c.3,0,.6,-.2,.7,-.4c.2,-.2,.2,-.5,.2,-.7l-1.9,-4l-1,-1.9l-.5,-1.2l-.4,-.8l-.5,-1l-.8,-1.7c-.2,-.4,0,-1,.4,-1.2c.3,-.2,.6,-.1,.9,0V937c0,-5.4,-2,-10.3,-5.3,-13.7v8.2c0,2.3,-.6,4.4,-1.7,6.2c-.3,.4,-.5,.8,-.8,1.1c.3,-.3,.5,-.7,.8,-1.1c.9,.2,1.9,.6,2.9,1.1c.5,.2,.7,.8,.4,1.3c-.1,.3,-.5,.5,-.8,.5c-.1,0,-.3,-.1,-.4,-.1c-1.2,-.6,-2.3,-1,-3.3,-1.2c-2.2,2.5,-5.4,4.1,-9,4.1h-7.3Zm1.5,-26.5h11.4H148.1Zm24.6,16.4c.2,1.2,.3,2.4,.3,3.7c0,-1.3,-.1,-2.5,-.3,-3.7Zm-16.8,50.4c-.7,.1,-1.4,.2,-2.1,.2c.7,0,1.4,-.1,2.1,-.2Zm81.6,328.4l-1.1,10.6l9,2c4.2,.9,8.6,.1,12.1,-2.4l2.7,-2l1.1,-8.2H237.5ZM168.3,1199.3h1l69.8,-.2c.2,0,.5,.1,.7,.3c.1,.2,.2,.5,.2,.7l-3.7,108.8l-.1,1.3h15.1l-4.2,-.5v-.2l.1,-1L256.3,1179c.1,-2.4,-1.5,-4.5,-3.8,-4.8l-80.2,-12l-1.9,-.3l-1.9,-.3l-35,-5.2L100,1167c2.2,18.6,17.7,32.4,36.4,32.4h.1l30.8,-.1h1ZM-6.1,1289.2v-1.5H-6h-.1v1.5l-.2,3.6l.2,-3.6Zm99.8,0c-.2,.1,-.5,.2,-.8,.2L1.6,1276.5l-.9,-.2l-.9,-.1l-3.3,-.5H-4l-1.1,12.1h-.3h.3l4.2,.8l.9,.2l.9,.2l99.5,18.9c3,.5,5.8,-1.3,6.6,-4.2l27.9,-102.5l.1,-.4l8.4,.3l-8.4,-.3l-.1,.4c-18.7,-.7,-33.9,-14.5,-36.6,-32.9c-.2,1.1,-.3,2.2,-.5,3.4L94,1288.5c0,.2,-.1,.5,-.3,.7Zm81.4,-149.7l.1,-4l-25.4,7.6l-.9,.2l-.9,.3l-1.1,.3l-1.1,.4l-3.9,1.1l-2.3,.7l-37.4,11.1l-1.2,.3l-1.3,.4l-.2,.1l-.2,.9l-.5,2.3L98,1165l-.2,.8l.1,-.1H98l.9,-.3H99l.8,-.3l46,-14.6l1.1,-.3l1.1,-.4h.2l.9,-.3l.9,-.3l1.6,-.5l1.1,-.4l1.1,-.3l21,-6.7l.3,-.1v-1.7Zm77.1,170.8l1.2,.1l-1.2,-.1Zm12,-154.7L177,1141.7v.2c-.1,.4,-.3,.8,-.7,.9l-20.7,6.6l-2.2,.7l-3.3,1v.7c0,.2,-.1,.4,-.2,.6l-1.9,-.3l-.3,-.2l-.3,.1l-1.8,-.3l1.8,.3l.6,.1l1.9,.3l8.2,1.2l1.9,.3l1.9,.3l95.4,14.7c3.4,.6,5.7,3.6,5.5,7l-9.2,132.5l-.1,.9l-.1,.9h12.8l17.1,-128.8c1.7,-12.5,-6.7,-23.8,-19.1,-25.8ZM107,1122.8l-7.1,33.1l1.1,-.3l1.3,-.4l1.3,-.4l34.1,-10.1l1.1,-.3l1.1,-.4l4,-1.2l2.3,-.6l1.7,-.5l.9,-.3l1,-.3l25.1,-7.4c.1,-.1,.2,-.1,.3,-.1L176,1070c-.1,.1,-.2,.1,-.3,.1c-.2,0,-.4,-.1,-.5,-.2c-.4,-.3,-.5,-.9,-.2,-1.3c0,0,.3,-.4,.7,-1c.1,-.1,.2,-.3,.4,-.6c.3,-.4,.6,-.8,.9,-1.4c.3,-.4,.7,-.9,1,-1.4c3.5,-5.5,8.8,-14.7,8.1,-19.8c-.6,-4.8,-5.4,-13.3,-9.1,-19.4c-.6,-1,-1.2,-1.9,-1.8,-2.8c-.7,-1.1,-1.3,-2,-1.7,-2.7v.4c-.1,-.3,-.2,-.5,-.3,-.8c-.3,-.5,-.5,-.8,-.6,-.8c-.1,-.3,-.2,-.6,-.1,-.9c-.5,-1.3,-1.1,-2.5,-1.7,-3.7l-2.6,-.6c-5.2,-1,-10,-3.9,-13.7,-8.2c-.8,-.9,-1.6,-1.8,-2.4,-2.6c-1.1,-1.2,-2.1,-2.2,-3.2,-3.1q-.1,-.1,-.1,-.1c-.3,-.2,-.6,-.5,-.8,-.7c-.3,-.2,-.5,-.4,-.8,-.6c-6.4,-5.1,-12.8,-7.6,-17.6,-8c-.6,0,-1.2,-.1,-1.7,0q-.1,0,-.1,0c-1.6,0,-3.3,.2,-4.9,.6c-.2,.1,-.5,.1,-.7,.2c.2,0,.4,0,.6,0c7.3,.9,13.8,4.4,18.7,8.4c1.5,1.3,2.9,2.7,4.1,4c.2,.3,.5,.5,.7,.8c.1,.1,.2,.2,.3,.3c.1,.2,.3,.4,.4,.6c3.9,5,6,11.3,5.8,17.7l-.2,6.3c-.2,6.5,-2.1,12.4,-5.3,17.5c-1.1,1.7,-2.4,3.3,-3.8,4.8c-1.1,1.2,-2.3,2.3,-3.6,3.3c-5.8,4.7,-13.1,7.5,-21.2,7.5c-.2,0,-.4,-.1,-.5,-.2l-3,4l1.9,9.3c0,.2,0,.3,0,.4l-1.6,7.8l1.9,2l.7,.7l.7,.7l21.4,22l18.4,-7.4c2,-.8,4.2,-.7,6.2,.1l3.4,1.5c1.4,.6,2.5,1.9,3,3.5l.3,1.3c.1,.6,0,1.2,-.4,1.7c-.4,.5,-1,.7,-1.6,.7l-6.2,-.5l2.9,2c1.1,.7,2,1.7,2.6,2.8l2,3.6c.6,1,.6,2.3,.1,3.3l-1.5,2.8l-.2,.3l-3.3,6.3c-.2,.4,-.6,.6,-1,.5l-3.9,-.8l-7.5,4.3c-1.2,.7,-2.5,1.1,-3.9,1.3c-.3,0,-.6,0,-.9,.1c-.2,0,-.4,0,-.6,0c-.1,0,-.3,0,-.4,0c-2.2,-.1,-4.4,-.8,-6.2,-2.2l-5.4,-3.9c-.1,-.2,-.2,-.3,-.3,-.5l-26.2,-18.8l-2.2,10.3l-.2,1l-.2,1ZM79.4,1089c-2.2,5.2,-.4,11.4,4.2,14.8l22.1,15.8l2.2,-10.2L79.4,1089Zm35.8,-13.9l-1.5,-7.4L112,1070c-2.3,3.1,-2,7.5,.8,10.3l1.1,1.2l1.3,-6.4ZM-7.9,1298.2l2.1,-22.7l-13.9,-1.6l-.4,10c-.2,3,1,6,3.1,8.1l5.9,5.9l3.2,.3Zm-27.8,37.3h18.8v-2.8l-16,-.8c-2.3,-.2,-4.3,-1.9,-4.7,-4.2l-9.1,-57.8l-3.7,.7l10.9,61.7c.3,1.8,1.9,3.2,3.8,3.2ZM-12,1299.7v-.1l-1,-1l-1,-1l-4.3,-4.2c-1,-1,-1.8,-2.2,-2.4,-3.4c-.5,-1,-.8,-2.1,-1.1,-3.2c-.2,-1,-.2,-2,-.2,-3v-1.1l.5,-10v-.9l.2,-2.8l-22.3,.4l-1.3,.2l9.2,57.8c.2,1.4,1.5,2.5,2.9,2.6l15.6,.8c-.8,-3.3,-3.8,-5.8,-7.4,-5.8H-25c-.3,0,-.6,-.1,-.7,-.4c-.2,-.2,-.3,-.5,-.2,-.8v-.2c.1,-.1,.1,-.2,.1,-.2L-12,1299.7Zm146.9,17.8l31.9,-116.3l-23.5,.1v-.1v.1l-29.8,108c-1.3,4.6,-5.9,7.4,-10.5,6.6L.5,1296l-.8,-.2l-1,-.1l-4.4,-.9l-.7,-.1l.7,.1l-.3,3.5l-.1,1l-.1,.9l-.5,5.4l114.4,28.7c12.2,2.8,24.2,-4.6,27.2,-16.8Zm97.6,6.3l-3.5,22v1.9h79.4v-.7c0,-1.6,-1.1,-2.9,-2.5,-3.4L286.4,1338c-.8,-.2,-1.4,-.6,-2,-1.1l-20.2,-17.1l-2.2,1.6l-1.1,.7l-1,.8l-1.4,.9c-3.9,2.8,-8.8,3.8,-13.5,2.8l-8.8,-2l-.9,-.2l-.9,-.2l-1.9,-.4Zm75.8,25.8H229v3.1h75.9c1.8,0,3.3,-1.4,3.4,-3.1Zm1.9,-2.6v2.2c0,3,-2.3,5.4,-5.3,5.4H228.1c-.5,0,-1,-.4,-1,-1v-7.8c0,-.1,.1,-.1,.1,-.2l3.6,-23.1c.1,-.3,.2,-.5,.4,-.6c.2,-.2,.5,-.2,.8,-.2l2.6,.6l1,-10.2h-.4c-.2,0,-.5,-.1,-.6,-.3c-.2,-.2,-.3,-.4,-.3,-.7L238.1,1201l-69.4,.2L136.8,1318c-2.9,11.3,-12.8,18.7,-24,18.7c-1.8,0,-3.7,-.2,-5.5,-.6L-7.9,1307.3c-.5,-.1,-.8,-.6,-.7,-1l.5,-6.3l-1.8,-.1c0,0,-.1,0,-.1,0l-13.5,23.3c4.8,.6,8.4,4.6,8.4,9.5v3.7c0,.6,-.4,1,-.9,1H-35.7c-2.8,0,-5.2,-2,-5.7,-4.8l-11,-62.6c0,-.3,0,-.5,.2,-.7c.1,-.2,.3,-.4,.6,-.4l7.7,-1.4q.1,0,.2,0l23.3,-.4c.3,0,.5,.1,.7,.3c.2,.2,.3,.5,.3,.7l-.2,3.9l14.7,1.7q.1,0,.2,0l1.4,.2l4.1,.5c.2,0,.3,0,.4,.1l91,12.9L96,1171.6c.1,-1.2,.2,-2.4,.5,-3.5c-.2,-.1,-.4,-.1,-.6,-.3c-.2,-.2,-.3,-.5,-.3,-.9l9.7,-45.3L82.6,1105.3C77,1101.4,75.1,1094,77.8,1087.8l-.8,-.6c-5.8,-4.1,-7.6,-11.9,-4.4,-18.1l30.3,-59.2c.5,-4.4,2.3,-8.7,5.4,-12.4c.1,-.2,.2,-.3,.3,-.4c-6.1,-3.1,-9.3,-10.7,-6.5,-17.8l12.6,-30.9v-16c0,-12.5,9.9,-22.7,22.2,-22.7H154c16.7,0,27.4,18.1,19.7,33.3l-.7,1v.9l3.6,7.5q0,.1,.1,.2c.2,.8,.1,1.7,-.4,2.4c-.5,.7,-1.3,1.1,-2.2,1.2l-1.1,.1v6.6c0,10.4,-7,19,-16.1,20.7l-.4,11c8.1,5.5,14.6,13.9,18.4,23.6c2.7,4.1,12.2,18.7,13.1,25.9c.9,6.7,-6.7,18.7,-10,23.5l-1,72.2l87.5,14c13.4,2.1,22.5,14.3,20.7,27.8L268,1311.3c-.1,.4,-.5,.8,-1,.8h-3.8l-.9,6.7l1.4,-1c.3,-.2,.8,-.2,1.1,.1l20.8,17.6c.4,.3,.8,.5,1.3,.7l19.5,5.6c2.3,.7,3.8,2.8,3.8,5.2ZM161.3,944.5c0,-.8,.6,-1.5,1.4,-1.5c.8,0,1.5,.7,1.5,1.5c0,.8,-.7,1.4,-1.5,1.4c-.8,0,-1.4,-.6,-1.4,-1.4Z" class="ga_4"/>
</g>
<path clip-path="url(#c5_4)" d="M-25.6,228.3H954.8V379.7H-25.6V228.3Z" class="g2_4"/>
<path clip-path="url(#c6_4)" d="M40.2,133.2h9.2V1282.3H40.2V133.2Z" class="g0_4"/>
<path clip-path="url(#c7_4)" d="M-34.8,-27.4H945.6V144.5H-34.8V-27.4Z" class="gb_4"/>
<path clip-path="url(#c8_4)" d="M-14.9,836.8H965.5V988.2H-14.9V836.8Z" class="g2_4"/>
<path clip-path="url(#c9_4)" d="M546.9,419.3c-9.8,9.4,-13.3,24.4,-6.8,36.6c5.3,10.1,16.3,15.7,13.7,28.7c-1,4.8,-3.5,9.8,-6.9,13.4c-4.5,4.8,2.7,12.1,7.3,7.3c9.1,-9.8,13.2,-24.7,7.5,-37.2c-4.6,-10,-16.8,-16.1,-14.6,-28.6c.8,-4.8,3.6,-9.6,7.1,-12.9c4.7,-4.7,-2.5,-11.9,-7.3,-7.3Zm-36,0c-9.8,9.4,-13.3,24.4,-6.8,36.6c5.3,10.1,16.3,15.7,13.7,28.7c-1,4.8,-3.5,9.8,-6.9,13.4c-4.5,4.8,2.7,12.1,7.3,7.3c9.1,-9.8,13.2,-24.7,7.5,-37.2c-4.6,-10,-16.8,-16.1,-14.6,-28.6c.9,-4.8,3.6,-9.6,7.1,-12.9c4.7,-4.7,-2.5,-11.9,-7.3,-7.3Zm-36,0c-9.8,9.4,-13.3,24.4,-6.8,36.6c5.3,10.1,16.3,15.7,13.7,28.7c-1,4.8,-3.5,9.8,-6.9,13.4c-4.5,4.8,2.7,12.1,7.3,7.3c9.1,-9.8,13.2,-24.7,7.5,-37.2c-4.6,-10,-16.8,-16.1,-14.6,-28.6c.8,-4.8,3.6,-9.6,7.1,-12.9c4.7,-4.7,-2.5,-11.9,-7.3,-7.3Zm130.9,133c-15.9,11.2,-31.9,22.5,-47.8,33.8c7.1,1.2,14.2,-.1,20.9,-5.4c13.3,-10.6,41.6,-18.6,61,-13c7.6,2.1,13.2,6.2,16.7,11.8c10.5,-3.8,13.3,-7.1,13.3,-8.1c0,-1.8,-8,-9.7,-46.9,-16.5c-5.4,-1,-11.2,-1.8,-17.2,-2.6Zm63.5,32.9c-.3,.1,-.6,.3,-.9,.5c-.2,.1,-.4,.2,-.6,.3c-.5,.2,-1.1,.5,-1.7,.8c-.1,0,-.2,.1,-.3,.2c-.6,.2,-1.1,.4,-1.6,.7c-.3,.1,-.6,.2,-.8,.3c-.5,.2,-.9,.3,-1.3,.5c-.3,.1,-.7,.3,-1,.4c-.4,.1,-.8,.3,-1.3,.5c-.3,.1,-.7,.2,-1.1,.4c-.4,.1,-.8,.3,-1.3,.4c-.4,.1,-.8,.3,-1.2,.4c-.4,.2,-.9,.3,-1.4,.5c-.4,.1,-.8,.2,-1.3,.4c-.5,.1,-1,.3,-1.5,.4c-.4,.1,-.9,.3,-1.3,.4c-.6,.2,-1.1,.3,-1.6,.5c-.5,.1,-1,.2,-1.5,.3c-.6,.2,-1.1,.3,-1.7,.5c-.6,.1,-1.1,.2,-1.6,.4c-.6,.1,-1.2,.3,-1.9,.4c-.5,.1,-1,.3,-1.6,.4c-.6,.1,-1.3,.3,-2,.5c-.5,.1,-1.1,.2,-1.6,.3c-.8,.2,-1.5,.3,-2.3,.5c-.6,.1,-1.1,.2,-1.7,.3c-.8,.2,-1.7,.4,-2.6,.5c-.5,.1,-1,.2,-1.5,.3c-1.4,.3,-2.9,.6,-4.4,.8c-31.1,5.5,-71.9,8.6,-115.5,9c-2.9,0,-5.8,0,-8.8,0c-2.9,0,-5.8,0,-8.7,0c-43.6,-.4,-84.4,-3.5,-115.6,-9c-1.5,-.2,-2.9,-.5,-4.3,-.8c-.5,-.1,-1,-.2,-1.5,-.2c-.9,-.2,-1.8,-.4,-2.7,-.6c-.5,-.1,-1.1,-.2,-1.6,-.3c-.8,-.2,-1.5,-.3,-2.3,-.5c-.5,-.1,-1.1,-.2,-1.6,-.3c-.7,-.2,-1.4,-.4,-2.1,-.5c-.5,-.1,-1,-.3,-1.6,-.4c-.6,-.1,-1.2,-.3,-1.8,-.4c-.6,-.2,-1.1,-.3,-1.6,-.4c-.6,-.2,-1.1,-.3,-1.7,-.5c-.5,-.1,-1,-.2,-1.5,-.3c-.5,-.2,-1,-.3,-1.6,-.5c-.4,-.1,-.9,-.3,-1.4,-.4c-.5,-.1,-1,-.3,-1.4,-.4c-.5,-.2,-.9,-.3,-1.4,-.4c-.4,-.2,-.9,-.3,-1.3,-.5c-.4,-.1,-.9,-.3,-1.2,-.4c-.5,-.1,-.9,-.3,-1.4,-.4c-.3,-.2,-.7,-.3,-1.1,-.4c-.4,-.2,-.8,-.4,-1.2,-.5c-.3,-.1,-.7,-.3,-1,-.4c-.4,-.2,-.8,-.3,-1.3,-.5c-.2,-.1,-.5,-.2,-.8,-.3c-.5,-.3,-1,-.5,-1.5,-.7c-.2,-.1,-.4,-.2,-.5,-.3c-.6,-.2,-1.1,-.5,-1.6,-.7c-.2,-.1,-.4,-.2,-.6,-.3c-.3,-.2,-.6,-.4,-.9,-.5c7,87.3,80,156.2,168.8,156.2c88.8,0,161.9,-68.9,168.9,-156.2ZM546.9,745.6c-14.8,3.9,-30.4,6.1,-46.5,6.1c-16,0,-31.6,-2.2,-46.4,-6.1v13h92.9v-13ZM331,571.4c0,1.3,4.7,6.3,24.1,11.5c2,-5.9,6.1,-14.6,14,-19.4c5.8,-3.5,12.5,-4.3,19.8,-2.4c9.1,2.4,15.4,6.2,20.4,9.3c8.7,5.3,13.4,8.2,27.8,2.3c3.9,-1.6,8,-3.5,12.3,-5.5c23.9,-10.8,53.6,-24.3,74.4,-2.8c6.5,6.6,14.2,13.3,22.3,17.5c.4,-.3,.8,-.5,1.2,-.8c3,-4,6.1,-7.9,9.1,-11.8c5.3,-6.9,10.6,-13.7,15.9,-20.5C550,547,525.6,546,500.4,546c-46.3,0,-89.8,3.2,-122.5,8.9C339,561.7,331,569.6,331,571.4Zm133.3,20.7c-2.6,1.4,-5.1,2.6,-7.6,3.7c14.1,.6,28.8,.9,43.7,.9c7.2,0,14.3,0,21.3,-.2C511.2,587.8,491,577.2,464.3,592.1Zm88,3.3c-1.5,-.5,-3,-1,-4.6,-1.6c-.6,-.1,-1.1,-.3,-1.6,-.6c-9.5,-4,-19.5,-11.2,-29.6,-21.7c-15.8,-16.3,-39.7,-5.4,-62.8,5.1c-4.4,2,-8.6,3.9,-12.7,5.6c-19.2,7.9,-27.9,2.6,-37.1,-3c-4.9,-3,-9.9,-6.1,-17.6,-8.2c-4.6,-1.2,-8.5,-.8,-11.9,1.3c-4.8,3,-7.7,8.8,-9.3,13.1c2.1,.4,4.2,.9,6.5,1.3c.6,-1,1.4,-2,2.5,-2.8c4.7,-3.7,11.9,-4,22.2,-.9c1.6,.5,3.2,1,4.8,1.5c18.4,5.7,35.8,11.1,58.2,-1.4c33.8,-18.8,58.9,-3.6,70.9,7.2c2.3,2.1,5.1,4,8.3,5.7c4.7,-.2,9.3,-.4,13.8,-.6Zm94,-12.6c-2.2,-2.3,-5.3,-4.1,-9.2,-5.2c-15.7,-4.5,-40.7,2.3,-51.8,11.1c-2.5,2,-5.1,3.7,-7.8,4.9c7.6,-.7,15,-1.4,22,-2.3c9.2,-7.9,23.5,-19.3,36.6,-6c3.8,-.8,7.2,-1.7,10.2,-2.5Zm-62,-33c-2.9,3.8,-5.8,7.5,-8.7,11.3c5,-3.6,10,-7.1,15.1,-10.6c-2.1,-.3,-4.2,-.5,-6.4,-.7Zm96.4,-50.4c-5.3,3.8,-10.7,7.6,-16,11.3c-15.5,11,-31.1,22,-46.6,33c2.2,.3,4.5,.7,6.6,1.1c49.7,8.6,55.4,19.3,55.4,26.6c0,79.5,-51.6,147.2,-122.9,171.1v26.4H443.7V742.5C372.4,718.6,320.8,650.9,320.8,571.4c0,-7.3,5.7,-18,55.3,-26.6c33.3,-5.8,77.4,-9,124.3,-9c28,0,55,1.1,79.3,3.3c20.7,-26.8,41.4,-53.7,62.1,-80.5c4.1,-5.2,11.3,2.1,7.3,7.3c-4,5.2,-8,10.4,-12,15.6l-45.4,58.7c4,.4,7.8,.9,11.5,1.4c24.2,-17,48.2,-34.1,72.3,-51.1c5.5,-3.8,10.6,5.1,5.2,8.9Zm-142,230.5C549,727,559,723.1,568.6,718.4c6,-2.9,.8,-11.8,-5.2,-8.9c-8.8,4.3,-17.9,7.8,-27.4,10.5c-6.4,1.7,-3.7,11.7,2.7,9.9Zm55.2,-27.3c-5.3,4.1,-10.4,-4.9,-5.2,-8.9c23.7,-18.2,41.6,-43.1,51.6,-71.3c2.2,-6.2,12.1,-3.6,9.9,2.7c-11,31,-30.4,57.5,-56.3,77.5Z" class="gc_4"/>
<path d="M169.5,163.8c0,3,-2.6,5.5,-5.6,5.5c-3.1,0,-5.6,-2.5,-5.6,-5.5c0,-3.1,2.5,-5.6,5.6,-5.6c3,0,5.6,2.5,5.6,5.6Zm0,22.1c0,3,-2.6,5.5,-5.6,5.5c-3.1,0,-5.6,-2.5,-5.6,-5.5c0,-3,2.5,-5.5,5.6,-5.5c3,0,5.6,2.5,5.6,5.5Zm0,22.1c0,3.1,-2.6,5.5,-5.6,5.5c-3.1,0,-5.6,-2.4,-5.6,-5.5c0,-3,2.5,-5.5,5.6,-5.5c3,0,5.6,2.5,5.6,5.5Zm0,22.1c0,3.1,-2.6,5.6,-5.6,5.6c-3.1,0,-5.6,-2.5,-5.6,-5.6c0,-3,2.5,-5.5,5.6,-5.5c3,0,5.6,2.5,5.6,5.5Zm0,22.2c0,3,-2.6,5.5,-5.6,5.5c-3.1,0,-5.6,-2.5,-5.6,-5.5c0,-3.1,2.5,-5.6,5.6,-5.6c3,0,5.6,2.5,5.6,5.6Zm0,22.1c0,3,-2.6,5.5,-5.6,5.5c-3.1,0,-5.6,-2.5,-5.6,-5.5c0,-3.1,2.5,-5.6,5.6,-5.6c3,0,5.6,2.5,5.6,5.6Zm0,22.1c0,3,-2.6,5.5,-5.6,5.5c-3.1,0,-5.6,-2.5,-5.6,-5.5c0,-3,2.5,-5.5,5.6,-5.5c3,0,5.6,2.5,5.6,5.5Zm0,22.1c0,3.1,-2.6,5.5,-5.6,5.5c-3.1,0,-5.6,-2.4,-5.6,-5.5c0,-3,2.5,-5.5,5.6,-5.5c3,0,5.6,2.5,5.6,5.5Zm0,22.1c0,3.1,-2.6,5.6,-5.6,5.6c-3.1,0,-5.6,-2.5,-5.6,-5.6c0,-3,2.5,-5.5,5.6,-5.5c3,0,5.6,2.5,5.6,5.5Zm0,22.2c0,3,-2.6,5.5,-5.6,5.5c-3.1,0,-5.6,-2.5,-5.6,-5.5c0,-3.1,2.5,-5.6,5.6,-5.6c3,0,5.6,2.5,5.6,5.6Zm0,22.1c0,3,-2.6,5.5,-5.6,5.5c-3.1,0,-5.6,-2.5,-5.6,-5.5c0,-3.1,2.5,-5.6,5.6,-5.6c3,0,5.6,2.5,5.6,5.6Zm0,22.1c0,3,-2.6,5.5,-5.6,5.5c-3.1,0,-5.6,-2.5,-5.6,-5.5c0,-3,2.5,-5.5,5.6,-5.5c3,0,5.6,2.5,5.6,5.5Zm0,22.1c0,3.1,-2.6,5.5,-5.6,5.5c-3.1,0,-5.6,-2.4,-5.6,-5.5c0,-3,2.5,-5.5,5.6,-5.5c3,0,5.6,2.5,5.6,5.5Zm0,22.1c0,3.1,-2.6,5.6,-5.6,5.6c-3.1,0,-5.6,-2.5,-5.6,-5.6c0,-3,2.5,-5.5,5.6,-5.5c3,0,5.6,2.5,5.6,5.5Zm0,22.2c0,3,-2.6,5.5,-5.6,5.5c-3.1,0,-5.6,-2.5,-5.6,-5.5c0,-3.1,2.5,-5.6,5.6,-5.6c3,0,5.6,2.5,5.6,5.6Zm0,22.1c0,3,-2.6,5.5,-5.6,5.5c-3.1,0,-5.6,-2.5,-5.6,-5.5c0,-3.1,2.5,-5.5,5.6,-5.5c3,0,5.6,2.4,5.6,5.5Zm0,22.1c0,3,-2.6,5.5,-5.6,5.5c-3.1,0,-5.6,-2.5,-5.6,-5.5c0,-3,2.5,-5.5,5.6,-5.5c3,0,5.6,2.5,5.6,5.5Zm0,22.1c0,3.1,-2.6,5.6,-5.6,5.6c-3.1,0,-5.6,-2.5,-5.6,-5.6c0,-3,2.5,-5.5,5.6,-5.5c3,0,5.6,2.5,5.6,5.5Zm0,22.1c0,3.1,-2.6,5.6,-5.6,5.6c-3.1,0,-5.6,-2.5,-5.6,-5.6c0,-3,2.5,-5.5,5.6,-5.5c3,0,5.6,2.5,5.6,5.5Zm0,22.2c0,3,-2.6,5.5,-5.6,5.5c-3.1,0,-5.6,-2.5,-5.6,-5.5c0,-3.1,2.5,-5.6,5.6,-5.6c3,0,5.6,2.5,5.6,5.6Zm0,22.1c0,3,-2.6,5.5,-5.6,5.5c-3.1,0,-5.6,-2.5,-5.6,-5.5c0,-3.1,2.5,-5.5,5.6,-5.5c3,0,5.6,2.4,5.6,5.5Z" class="gd_4"/>
<path d="M169.5,629.5c0,3,-2.6,5.5,-5.6,5.5c-3.1,0,-5.6,-2.5,-5.6,-5.5c0,-3,2.5,-5.5,5.6,-5.5c3,0,5.6,2.5,5.6,5.5Zm0,22.1c0,3.1,-2.6,5.5,-5.6,5.5c-3.1,0,-5.6,-2.4,-5.6,-5.5c0,-3,2.5,-5.5,5.6,-5.5c3,0,5.6,2.5,5.6,5.5Zm0,22.1c0,3.1,-2.6,5.6,-5.6,5.6c-3.1,0,-5.6,-2.5,-5.6,-5.6c0,-3,2.5,-5.5,5.6,-5.5c3,0,5.6,2.5,5.6,5.5Zm0,22.2c0,3,-2.6,5.5,-5.6,5.5c-3.1,0,-5.6,-2.5,-5.6,-5.5c0,-3.1,2.5,-5.6,5.6,-5.6c3,0,5.6,2.5,5.6,5.6Zm0,22.1c0,3,-2.6,5.5,-5.6,5.5c-3.1,0,-5.6,-2.5,-5.6,-5.5c0,-3.1,2.5,-5.6,5.6,-5.6c3,0,5.6,2.5,5.6,5.6Zm0,22.1c0,3,-2.6,5.5,-5.6,5.5c-3.1,0,-5.6,-2.5,-5.6,-5.5c0,-3,2.5,-5.5,5.6,-5.5c3,0,5.6,2.5,5.6,5.5Zm0,22.1c0,3.1,-2.6,5.5,-5.6,5.5c-3.1,0,-5.6,-2.4,-5.6,-5.5c0,-3,2.5,-5.5,5.6,-5.5c3,0,5.6,2.5,5.6,5.5Zm0,22.1c0,3.1,-2.6,5.6,-5.6,5.6c-3.1,0,-5.6,-2.5,-5.6,-5.6c0,-3,2.5,-5.5,5.6,-5.5c3,0,5.6,2.5,5.6,5.5Zm0,22.2c0,3,-2.6,5.5,-5.6,5.5c-3.1,0,-5.6,-2.5,-5.6,-5.5c0,-3.1,2.5,-5.6,5.6,-5.6c3,0,5.6,2.5,5.6,5.6Zm0,22.1c0,3,-2.6,5.5,-5.6,5.5c-3.1,0,-5.6,-2.5,-5.6,-5.5c0,-3.1,2.5,-5.6,5.6,-5.6c3,0,5.6,2.5,5.6,5.6Zm0,22.1c0,3,-2.6,5.5,-5.6,5.5c-3.1,0,-5.6,-2.5,-5.6,-5.5c0,-3,2.5,-5.5,5.6,-5.5c3,0,5.6,2.5,5.6,5.5Zm0,22.1c0,3.1,-2.6,5.6,-5.6,5.6c-3.1,0,-5.6,-2.5,-5.6,-5.6c0,-3,2.5,-5.5,5.6,-5.5c3,0,5.6,2.5,5.6,5.5Zm0,22.1c0,3.1,-2.6,5.6,-5.6,5.6c-3.1,0,-5.6,-2.5,-5.6,-5.6c0,-3,2.5,-5.5,5.6,-5.5c3,0,5.6,2.5,5.6,5.5Zm0,22.2c0,3,-2.6,5.5,-5.6,5.5c-3.1,0,-5.6,-2.5,-5.6,-5.5c0,-3.1,2.5,-5.6,5.6,-5.6c3,0,5.6,2.5,5.6,5.6Zm0,22.1c0,3,-2.6,5.5,-5.6,5.5c-3.1,0,-5.6,-2.5,-5.6,-5.5c0,-3.1,2.5,-5.5,5.6,-5.5c3,0,5.6,2.4,5.6,5.5Zm0,22.1c0,3,-2.6,5.5,-5.6,5.5c-3.1,0,-5.6,-2.5,-5.6,-5.5c0,-3,2.5,-5.5,5.6,-5.5c3,0,5.6,2.5,5.6,5.5Zm0,22.1c0,3.1,-2.6,5.6,-5.6,5.6c-3.1,0,-5.6,-2.5,-5.6,-5.6c0,-3,2.5,-5.5,5.6,-5.5c3,0,5.6,2.5,5.6,5.5Zm0,22.1c0,3.1,-2.6,5.6,-5.6,5.6c-3.1,0,-5.6,-2.5,-5.6,-5.6c0,-3,2.5,-5.5,5.6,-5.5c3,0,5.6,2.5,5.6,5.5Zm0,22.2c0,3,-2.6,5.5,-5.6,5.5c-3.1,0,-5.6,-2.5,-5.6,-5.5c0,-3.1,2.5,-5.6,5.6,-5.6c3,0,5.6,2.5,5.6,5.6Zm0,22.1c0,3,-2.6,5.5,-5.6,5.5c-3.1,0,-5.6,-2.5,-5.6,-5.5c0,-3.1,2.5,-5.5,5.6,-5.5c3,0,5.6,2.4,5.6,5.5Zm0,22.1c0,3,-2.6,5.5,-5.6,5.5c-3.1,0,-5.6,-2.5,-5.6,-5.5c0,-3,2.5,-5.5,5.6,-5.5c3,0,5.6,2.5,5.6,5.5Z" class="gd_4"/>
<path clip-path="url(#ca_4)" d="M169.5,1095.2c0,3.1,-2.6,5.5,-5.6,5.5c-3.1,0,-5.6,-2.4,-5.6,-5.5c0,-3,2.5,-5.5,5.6,-5.5c3,0,5.6,2.5,5.6,5.5Zm0,22.1c0,3.1,-2.6,5.6,-5.6,5.6c-3.1,0,-5.6,-2.5,-5.6,-5.6c0,-3,2.5,-5.5,5.6,-5.5c3,0,5.6,2.5,5.6,5.5Zm0,22.2c0,3,-2.6,5.5,-5.6,5.5c-3.1,0,-5.6,-2.5,-5.6,-5.5c0,-3.1,2.5,-5.6,5.6,-5.6c3,0,5.6,2.5,5.6,5.6Zm0,22.1c0,3,-2.6,5.5,-5.6,5.5c-3.1,0,-5.6,-2.5,-5.6,-5.5c0,-3.1,2.5,-5.6,5.6,-5.6c3,0,5.6,2.5,5.6,5.6Zm0,22.1c0,3,-2.6,5.5,-5.6,5.5c-3.1,0,-5.6,-2.5,-5.6,-5.5c0,-3,2.5,-5.5,5.6,-5.5c3,0,5.6,2.5,5.6,5.5Zm0,22.1c0,3.1,-2.6,5.6,-5.6,5.6c-3.1,0,-5.6,-2.5,-5.6,-5.6c0,-3,2.5,-5.5,5.6,-5.5c3,0,5.6,2.5,5.6,5.5Zm0,22.1c0,3.1,-2.6,5.6,-5.6,5.6c-3.1,0,-5.6,-2.5,-5.6,-5.6c0,-3,2.5,-5.5,5.6,-5.5c3,0,5.6,2.5,5.6,5.5Zm0,22.2c0,3,-2.6,5.5,-5.6,5.5c-3.1,0,-5.6,-2.5,-5.6,-5.5c0,-3.1,2.5,-5.6,5.6,-5.6c3,0,5.6,2.5,5.6,5.6Zm0,22.1c0,3,-2.6,5.5,-5.6,5.5c-3.1,0,-5.6,-2.5,-5.6,-5.5c0,-3.1,2.5,-5.5,5.6,-5.5c3,0,5.6,2.4,5.6,5.5Zm0,22.1c0,3,-2.6,5.5,-5.6,5.5c-3.1,0,-5.6,-2.5,-5.6,-5.5c0,-3,2.5,-5.5,5.6,-5.5c3,0,5.6,2.5,5.6,5.5Zm0,22.1c0,3.1,-2.6,5.6,-5.6,5.6c-3.1,0,-5.6,-2.5,-5.6,-5.6c0,-3,2.5,-5.5,5.6,-5.5c3,0,5.6,2.5,5.6,5.5Zm0,22.1c0,3.1,-2.6,5.6,-5.6,5.6c-3.1,0,-5.6,-2.5,-5.6,-5.6c0,-3,2.5,-5.5,5.6,-5.5c3,0,5.6,2.5,5.6,5.5Zm0,22.2c0,3,-2.6,5.5,-5.6,5.5c-3.1,0,-5.6,-2.5,-5.6,-5.5c0,-3.1,2.5,-5.6,5.6,-5.6c3,0,5.6,2.5,5.6,5.6Zm0,22.1c0,3,-2.6,5.5,-5.6,5.5c-3.1,0,-5.6,-2.5,-5.6,-5.5c0,-3.1,2.5,-5.5,5.6,-5.5c3,0,5.6,2.4,5.6,5.5Zm0,22.1c0,3,-2.6,5.5,-5.6,5.5c-3.1,0,-5.6,-2.5,-5.6,-5.5c0,-3,2.5,-5.5,5.6,-5.5c3,0,5.6,2.5,5.6,5.5Zm0,22.1c0,3.1,-2.6,5.6,-5.6,5.6c-3.1,0,-5.6,-2.5,-5.6,-5.6c0,-3,2.5,-5.5,5.6,-5.5c3,0,5.6,2.5,5.6,5.5Zm0,22.1c0,3.1,-2.6,5.6,-5.6,5.6c-3.1,0,-5.6,-2.5,-5.6,-5.6c0,-3,2.5,-5.5,5.6,-5.5c3,0,5.6,2.5,5.6,5.5Zm0,22.2c0,3,-2.6,5.5,-5.6,5.5c-3.1,0,-5.6,-2.5,-5.6,-5.5c0,-3.1,2.5,-5.6,5.6,-5.6c3,0,5.6,2.5,5.6,5.6Zm0,22.1c0,3,-2.6,5.5,-5.6,5.5c-3.1,0,-5.6,-2.5,-5.6,-5.5c0,-3.1,2.5,-5.5,5.6,-5.5c3,0,5.6,2.4,5.6,5.5Zm0,22.1c0,3.1,-2.6,5.5,-5.6,5.5c-3.1,0,-5.6,-2.4,-5.6,-5.5c0,-3,2.5,-5.5,5.6,-5.5c3,0,5.6,2.5,5.6,5.5Zm0,22.1c0,3.1,-2.6,5.6,-5.6,5.6c-3.1,0,-5.6,-2.5,-5.6,-5.6c0,-3,2.5,-5.5,5.6,-5.5c3,0,5.6,2.5,5.6,5.5Z" class="gd_4"/>
<path clip-path="url(#cb_4)" d="M0,1136.2H980.5v151.4H0V1136.2Z" class="g2_4"/>
<path d="M318.3,168.8c0,3,-2.5,5.5,-5.6,5.5c-3.1,0,-5.6,-2.5,-5.6,-5.5c0,-3.1,2.5,-5.6,5.6,-5.6c3.1,0,5.6,2.5,5.6,5.6Zm0,22.1c0,3,-2.5,5.5,-5.6,5.5c-3.1,0,-5.6,-2.5,-5.6,-5.5c0,-3,2.5,-5.5,5.6,-5.5c3.1,0,5.6,2.5,5.6,5.5Zm0,22.1c0,3.1,-2.5,5.5,-5.6,5.5c-3.1,0,-5.6,-2.4,-5.6,-5.5c0,-3,2.5,-5.5,5.6,-5.5c3.1,0,5.6,2.5,5.6,5.5Zm0,22.1c0,3.1,-2.5,5.6,-5.6,5.6c-3.1,0,-5.6,-2.5,-5.6,-5.6c0,-3,2.5,-5.5,5.6,-5.5c3.1,0,5.6,2.5,5.6,5.5Zm0,22.2c0,3,-2.5,5.5,-5.6,5.5c-3.1,0,-5.6,-2.5,-5.6,-5.5c0,-3.1,2.5,-5.6,5.6,-5.6c3.1,0,5.6,2.5,5.6,5.6Zm0,22.1c0,3,-2.5,5.5,-5.6,5.5c-3.1,0,-5.6,-2.5,-5.6,-5.5c0,-3.1,2.5,-5.5,5.6,-5.5c3.1,0,5.6,2.4,5.6,5.5Zm0,22.1c0,3,-2.5,5.5,-5.6,5.5c-3.1,0,-5.6,-2.5,-5.6,-5.5c0,-3,2.5,-5.5,5.6,-5.5c3.1,0,5.6,2.5,5.6,5.5Zm0,22.1c0,3.1,-2.5,5.6,-5.6,5.6c-3.1,0,-5.6,-2.5,-5.6,-5.6c0,-3,2.5,-5.5,5.6,-5.5c3.1,0,5.6,2.5,5.6,5.5Zm0,22.1c0,3.1,-2.5,5.6,-5.6,5.6c-3.1,0,-5.6,-2.5,-5.6,-5.6c0,-3,2.5,-5.5,5.6,-5.5c3.1,0,5.6,2.5,5.6,5.5Zm0,22.2c0,3,-2.5,5.5,-5.6,5.5c-3.1,0,-5.6,-2.5,-5.6,-5.5c0,-3.1,2.5,-5.6,5.6,-5.6c3.1,0,5.6,2.5,5.6,5.6Zm0,22.1c0,3,-2.5,5.5,-5.6,5.5c-3.1,0,-5.6,-2.5,-5.6,-5.5c0,-3.1,2.5,-5.5,5.6,-5.5c3.1,0,5.6,2.4,5.6,5.5Zm0,22.1c0,3,-2.5,5.5,-5.6,5.5c-3.1,0,-5.6,-2.5,-5.6,-5.5c0,-3,2.5,-5.5,5.6,-5.5c3.1,0,5.6,2.5,5.6,5.5Zm0,22.1c0,3.1,-2.5,5.6,-5.6,5.6c-3.1,0,-5.6,-2.5,-5.6,-5.6c0,-3,2.5,-5.5,5.6,-5.5c3.1,0,5.6,2.5,5.6,5.5Zm0,22.1c0,3.1,-2.5,5.6,-5.6,5.6c-3.1,0,-5.6,-2.5,-5.6,-5.6c0,-3,2.5,-5.5,5.6,-5.5c3.1,0,5.6,2.5,5.6,5.5Zm0,22.2c0,3,-2.5,5.5,-5.6,5.5c-3.1,0,-5.6,-2.5,-5.6,-5.5c0,-3.1,2.5,-5.6,5.6,-5.6c3.1,0,5.6,2.5,5.6,5.6Zm0,22.1c0,3,-2.5,5.5,-5.6,5.5c-3.1,0,-5.6,-2.5,-5.6,-5.5c0,-3.1,2.5,-5.5,5.6,-5.5c3.1,0,5.6,2.4,5.6,5.5Zm0,22.1c0,3,-2.5,5.5,-5.6,5.5c-3.1,0,-5.6,-2.5,-5.6,-5.5c0,-3,2.5,-5.5,5.6,-5.5c3.1,0,5.6,2.5,5.6,5.5Zm0,22.1c0,3.1,-2.5,5.6,-5.6,5.6c-3.1,0,-5.6,-2.5,-5.6,-5.6c0,-3,2.5,-5.5,5.6,-5.5c3.1,0,5.6,2.5,5.6,5.5Zm0,22.1c0,3.1,-2.5,5.6,-5.6,5.6c-3.1,0,-5.6,-2.5,-5.6,-5.6c0,-3,2.5,-5.5,5.6,-5.5c3.1,0,5.6,2.5,5.6,5.5Zm0,22.2c0,3,-2.5,5.5,-5.6,5.5c-3.1,0,-5.6,-2.5,-5.6,-5.5c0,-3.1,2.5,-5.6,5.6,-5.6c3.1,0,5.6,2.5,5.6,5.6Zm0,22.1c0,3,-2.5,5.5,-5.6,5.5c-3.1,0,-5.6,-2.5,-5.6,-5.5c0,-3.1,2.5,-5.5,5.6,-5.5c3.1,0,5.6,2.4,5.6,5.5Z" class="gd_4"/>
<path d="M318.3,634.5c0,3,-2.5,5.5,-5.6,5.5c-3.1,0,-5.6,-2.5,-5.6,-5.5c0,-3,2.5,-5.5,5.6,-5.5c3.1,0,5.6,2.5,5.6,5.5Zm0,22.1c0,3.1,-2.5,5.6,-5.6,5.6c-3.1,0,-5.6,-2.5,-5.6,-5.6c0,-3,2.5,-5.5,5.6,-5.5c3.1,0,5.6,2.5,5.6,5.5Zm0,22.1c0,3.1,-2.5,5.6,-5.6,5.6c-3.1,0,-5.6,-2.5,-5.6,-5.6c0,-3,2.5,-5.5,5.6,-5.5c3.1,0,5.6,2.5,5.6,5.5Zm0,22.2c0,3,-2.5,5.5,-5.6,5.5c-3.1,0,-5.6,-2.5,-5.6,-5.5c0,-3.1,2.5,-5.6,5.6,-5.6c3.1,0,5.6,2.5,5.6,5.6Zm0,22.1c0,3,-2.5,5.5,-5.6,5.5c-3.1,0,-5.6,-2.5,-5.6,-5.5c0,-3.1,2.5,-5.5,5.6,-5.5c3.1,0,5.6,2.4,5.6,5.5Zm0,22.1c0,3,-2.5,5.5,-5.6,5.5c-3.1,0,-5.6,-2.5,-5.6,-5.5c0,-3,2.5,-5.5,5.6,-5.5c3.1,0,5.6,2.5,5.6,5.5Zm0,22.1c0,3.1,-2.5,5.6,-5.6,5.6c-3.1,0,-5.6,-2.5,-5.6,-5.6c0,-3,2.5,-5.5,5.6,-5.5c3.1,0,5.6,2.5,5.6,5.5Zm0,22.1c0,3.1,-2.5,5.6,-5.6,5.6c-3.1,0,-5.6,-2.5,-5.6,-5.6c0,-3,2.5,-5.5,5.6,-5.5c3.1,0,5.6,2.5,5.6,5.5Zm0,22.2c0,3,-2.5,5.5,-5.6,5.5c-3.1,0,-5.6,-2.5,-5.6,-5.5c0,-3.1,2.5,-5.6,5.6,-5.6c3.1,0,5.6,2.5,5.6,5.6Zm0,22.1c0,3,-2.5,5.5,-5.6,5.5c-3.1,0,-5.6,-2.5,-5.6,-5.5c0,-3.1,2.5,-5.5,5.6,-5.5c3.1,0,5.6,2.4,5.6,5.5Zm0,22.1c0,3,-2.5,5.5,-5.6,5.5c-3.1,0,-5.6,-2.5,-5.6,-5.5c0,-3,2.5,-5.5,5.6,-5.5c3.1,0,5.6,2.5,5.6,5.5Zm0,22.1c0,3.1,-2.5,5.6,-5.6,5.6c-3.1,0,-5.6,-2.5,-5.6,-5.6c0,-3,2.5,-5.5,5.6,-5.5c3.1,0,5.6,2.5,5.6,5.5Zm0,22.1c0,3.1,-2.5,5.6,-5.6,5.6c-3.1,0,-5.6,-2.5,-5.6,-5.6c0,-3,2.5,-5.5,5.6,-5.5c3.1,0,5.6,2.5,5.6,5.5Zm0,22.2c0,3,-2.5,5.5,-5.6,5.5c-3.1,0,-5.6,-2.5,-5.6,-5.5c0,-3.1,2.5,-5.6,5.6,-5.6c3.1,0,5.6,2.5,5.6,5.6Zm0,22.1c0,3,-2.5,5.5,-5.6,5.5c-3.1,0,-5.6,-2.5,-5.6,-5.5c0,-3.1,2.5,-5.5,5.6,-5.5c3.1,0,5.6,2.4,5.6,5.5Zm0,22.1c0,3.1,-2.5,5.5,-5.6,5.5c-3.1,0,-5.6,-2.4,-5.6,-5.5c0,-3,2.5,-5.5,5.6,-5.5c3.1,0,5.6,2.5,5.6,5.5Zm0,22.1c0,3.1,-2.5,5.6,-5.6,5.6c-3.1,0,-5.6,-2.5,-5.6,-5.6c0,-3,2.5,-5.5,5.6,-5.5c3.1,0,5.6,2.5,5.6,5.5Zm0,22.2c0,3,-2.5,5.5,-5.6,5.5c-3.1,0,-5.6,-2.5,-5.6,-5.5c0,-3.1,2.5,-5.6,5.6,-5.6c3.1,0,5.6,2.5,5.6,5.6Zm0,22.1c0,3,-2.5,5.5,-5.6,5.5c-3.1,0,-5.6,-2.5,-5.6,-5.5c0,-3.1,2.5,-5.6,5.6,-5.6c3.1,0,5.6,2.5,5.6,5.6Zm0,22.1c0,3,-2.5,5.5,-5.6,5.5c-3.1,0,-5.6,-2.5,-5.6,-5.5c0,-3,2.5,-5.5,5.6,-5.5c3.1,0,5.6,2.5,5.6,5.5Zm0,22.1c0,3.1,-2.5,5.5,-5.6,5.5c-3.1,0,-5.6,-2.4,-5.6,-5.5c0,-3,2.5,-5.5,5.6,-5.5c3.1,0,5.6,2.5,5.6,5.5Z" class="gd_4"/>
<path clip-path="url(#cc_4)" d="M318.3,1100.2c0,3.1,-2.5,5.6,-5.6,5.6c-3.1,0,-5.6,-2.5,-5.6,-5.6c0,-3,2.5,-5.5,5.6,-5.5c3.1,0,5.6,2.5,5.6,5.5Zm0,22.1c0,3.1,-2.5,5.6,-5.6,5.6c-3.1,0,-5.6,-2.5,-5.6,-5.6c0,-3,2.5,-5.5,5.6,-5.5c3.1,0,5.6,2.5,5.6,5.5Zm0,22.2c0,3,-2.5,5.5,-5.6,5.5c-3.1,0,-5.6,-2.5,-5.6,-5.5c0,-3.1,2.5,-5.6,5.6,-5.6c3.1,0,5.6,2.5,5.6,5.6Zm0,22.1c0,3,-2.5,5.5,-5.6,5.5c-3.1,0,-5.6,-2.5,-5.6,-5.5c0,-3.1,2.5,-5.5,5.6,-5.5c3.1,0,5.6,2.4,5.6,5.5Zm0,22.1c0,3,-2.5,5.5,-5.6,5.5c-3.1,0,-5.6,-2.5,-5.6,-5.5c0,-3,2.5,-5.5,5.6,-5.5c3.1,0,5.6,2.5,5.6,5.5Zm0,22.1c0,3.1,-2.5,5.6,-5.6,5.6c-3.1,0,-5.6,-2.5,-5.6,-5.6c0,-3,2.5,-5.5,5.6,-5.5c3.1,0,5.6,2.5,5.6,5.5Zm0,22.1c0,3.1,-2.5,5.6,-5.6,5.6c-3.1,0,-5.6,-2.5,-5.6,-5.6c0,-3,2.5,-5.5,5.6,-5.5c3.1,0,5.6,2.5,5.6,5.5Zm0,22.2c0,3,-2.5,5.5,-5.6,5.5c-3.1,0,-5.6,-2.5,-5.6,-5.5c0,-3.1,2.5,-5.6,5.6,-5.6c3.1,0,5.6,2.5,5.6,5.6Zm0,22.1c0,3,-2.5,5.5,-5.6,5.5c-3.1,0,-5.6,-2.5,-5.6,-5.5c0,-3.1,2.5,-5.5,5.6,-5.5c3.1,0,5.6,2.4,5.6,5.5Zm0,22.1c0,3.1,-2.5,5.5,-5.6,5.5c-3.1,0,-5.6,-2.4,-5.6,-5.5c0,-3,2.5,-5.5,5.6,-5.5c3.1,0,5.6,2.5,5.6,5.5Zm0,22.1c0,3.1,-2.5,5.6,-5.6,5.6c-3.1,0,-5.6,-2.5,-5.6,-5.6c0,-3,2.5,-5.5,5.6,-5.5c3.1,0,5.6,2.5,5.6,5.5Zm0,22.2c0,3,-2.5,5.5,-5.6,5.5c-3.1,0,-5.6,-2.5,-5.6,-5.5c0,-3.1,2.5,-5.6,5.6,-5.6c3.1,0,5.6,2.5,5.6,5.6Zm0,22.1c0,3,-2.5,5.5,-5.6,5.5c-3.1,0,-5.6,-2.5,-5.6,-5.5c0,-3.1,2.5,-5.6,5.6,-5.6c3.1,0,5.6,2.5,5.6,5.6Zm0,22.1c0,3,-2.5,5.5,-5.6,5.5c-3.1,0,-5.6,-2.5,-5.6,-5.5c0,-3,2.5,-5.5,5.6,-5.5c3.1,0,5.6,2.5,5.6,5.5Zm0,22.1c0,3.1,-2.5,5.5,-5.6,5.5c-3.1,0,-5.6,-2.4,-5.6,-5.5c0,-3,2.5,-5.5,5.6,-5.5c3.1,0,5.6,2.5,5.6,5.5Zm0,22.1c0,3.1,-2.5,5.6,-5.6,5.6c-3.1,0,-5.6,-2.5,-5.6,-5.6c0,-3,2.5,-5.5,5.6,-5.5c3.1,0,5.6,2.5,5.6,5.5Zm0,22.2c0,3,-2.5,5.5,-5.6,5.5c-3.1,0,-5.6,-2.5,-5.6,-5.5c0,-3.1,2.5,-5.6,5.6,-5.6c3.1,0,5.6,2.5,5.6,5.6Zm0,22.1c0,3,-2.5,5.5,-5.6,5.5c-3.1,0,-5.6,-2.5,-5.6,-5.5c0,-3.1,2.5,-5.6,5.6,-5.6c3.1,0,5.6,2.5,5.6,5.6Zm0,22.1c0,3,-2.5,5.5,-5.6,5.5c-3.1,0,-5.6,-2.5,-5.6,-5.5c0,-3,2.5,-5.5,5.6,-5.5c3.1,0,5.6,2.5,5.6,5.5Zm0,22.1c0,3.1,-2.5,5.5,-5.6,5.5c-3.1,0,-5.6,-2.4,-5.6,-5.5c0,-3,2.5,-5.5,5.6,-5.5c3.1,0,5.6,2.5,5.6,5.5Zm0,22.1c0,3.1,-2.5,5.6,-5.6,5.6c-3.1,0,-5.6,-2.5,-5.6,-5.6c0,-3,2.5,-5.5,5.6,-5.5c3.1,0,5.6,2.5,5.6,5.5Z" class="gd_4"/>
<path d="M467.3,164.5c0,3,-2.5,5.5,-5.6,5.5c-3.1,0,-5.6,-2.5,-5.6,-5.5c0,-3.1,2.5,-5.6,5.6,-5.6c3.1,0,5.6,2.5,5.6,5.6Zm0,22.1c0,3,-2.5,5.5,-5.6,5.5c-3.1,0,-5.6,-2.5,-5.6,-5.5c0,-3,2.5,-5.5,5.6,-5.5c3.1,0,5.6,2.5,5.6,5.5Zm0,22.1c0,3.1,-2.5,5.5,-5.6,5.5c-3.1,0,-5.6,-2.4,-5.6,-5.5c0,-3,2.5,-5.5,5.6,-5.5c3.1,0,5.6,2.5,5.6,5.5Zm0,22.1c0,3.1,-2.5,5.6,-5.6,5.6c-3.1,0,-5.6,-2.5,-5.6,-5.6c0,-3,2.5,-5.5,5.6,-5.5c3.1,0,5.6,2.5,5.6,5.5Zm0,22.2c0,3,-2.5,5.5,-5.6,5.5c-3.1,0,-5.6,-2.5,-5.6,-5.5c0,-3.1,2.5,-5.6,5.6,-5.6c3.1,0,5.6,2.5,5.6,5.6Zm0,22.1c0,3,-2.5,5.5,-5.6,5.5c-3.1,0,-5.6,-2.5,-5.6,-5.5c0,-3.1,2.5,-5.5,5.6,-5.5c3.1,0,5.6,2.4,5.6,5.5Zm0,22.1c0,3,-2.5,5.5,-5.6,5.5c-3.1,0,-5.6,-2.5,-5.6,-5.5c0,-3,2.5,-5.5,5.6,-5.5c3.1,0,5.6,2.5,5.6,5.5Zm0,22.1c0,3.1,-2.5,5.6,-5.6,5.6c-3.1,0,-5.6,-2.5,-5.6,-5.6c0,-3,2.5,-5.5,5.6,-5.5c3.1,0,5.6,2.5,5.6,5.5Zm0,22.1c0,3.1,-2.5,5.6,-5.6,5.6c-3.1,0,-5.6,-2.5,-5.6,-5.6c0,-3,2.5,-5.5,5.6,-5.5c3.1,0,5.6,2.5,5.6,5.5Zm0,22.2c0,3,-2.5,5.5,-5.6,5.5c-3.1,0,-5.6,-2.5,-5.6,-5.5c0,-3.1,2.5,-5.6,5.6,-5.6c3.1,0,5.6,2.5,5.6,5.6Zm0,22.1c0,3,-2.5,5.5,-5.6,5.5c-3.1,0,-5.6,-2.5,-5.6,-5.5c0,-3.1,2.5,-5.5,5.6,-5.5c3.1,0,5.6,2.4,5.6,5.5Zm0,22.1c0,3,-2.5,5.5,-5.6,5.5c-3.1,0,-5.6,-2.5,-5.6,-5.5c0,-3,2.5,-5.5,5.6,-5.5c3.1,0,5.6,2.5,5.6,5.5Zm0,22.1c0,3.1,-2.5,5.6,-5.6,5.6c-3.1,0,-5.6,-2.5,-5.6,-5.6c0,-3,2.5,-5.5,5.6,-5.5c3.1,0,5.6,2.5,5.6,5.5Zm0,22.1c0,3.1,-2.5,5.6,-5.6,5.6c-3.1,0,-5.6,-2.5,-5.6,-5.6c0,-3,2.5,-5.5,5.6,-5.5c3.1,0,5.6,2.5,5.6,5.5Zm0,22.2c0,3,-2.5,5.5,-5.6,5.5c-3.1,0,-5.6,-2.5,-5.6,-5.5c0,-3.1,2.5,-5.6,5.6,-5.6c3.1,0,5.6,2.5,5.6,5.6Zm0,22.1c0,3,-2.5,5.5,-5.6,5.5c-3.1,0,-5.6,-2.5,-5.6,-5.5c0,-3.1,2.5,-5.5,5.6,-5.5c3.1,0,5.6,2.4,5.6,5.5Zm0,22.1c0,3,-2.5,5.5,-5.6,5.5c-3.1,0,-5.6,-2.5,-5.6,-5.5c0,-3,2.5,-5.5,5.6,-5.5c3.1,0,5.6,2.5,5.6,5.5Zm0,22.1c0,3.1,-2.5,5.6,-5.6,5.6c-3.1,0,-5.6,-2.5,-5.6,-5.6c0,-3,2.5,-5.5,5.6,-5.5c3.1,0,5.6,2.5,5.6,5.5Zm0,22.1c0,3.1,-2.5,5.6,-5.6,5.6c-3.1,0,-5.6,-2.5,-5.6,-5.6c0,-3,2.5,-5.5,5.6,-5.5c3.1,0,5.6,2.5,5.6,5.5Zm0,22.2c0,3,-2.5,5.5,-5.6,5.5c-3.1,0,-5.6,-2.5,-5.6,-5.5c0,-3.1,2.5,-5.6,5.6,-5.6c3.1,0,5.6,2.5,5.6,5.6Zm0,22.1c0,3,-2.5,5.5,-5.6,5.5c-3.1,0,-5.6,-2.5,-5.6,-5.5c0,-3.1,2.5,-5.5,5.6,-5.5c3.1,0,5.6,2.4,5.6,5.5Z" class="gd_4"/>
<path d="M467.3,630.2c0,3,-2.5,5.5,-5.6,5.5c-3.1,0,-5.6,-2.5,-5.6,-5.5c0,-3,2.5,-5.5,5.6,-5.5c3.1,0,5.6,2.5,5.6,5.5Zm0,22.1c0,3.1,-2.5,5.6,-5.6,5.6c-3.1,0,-5.6,-2.5,-5.6,-5.6c0,-3,2.5,-5.5,5.6,-5.5c3.1,0,5.6,2.5,5.6,5.5Zm0,22.1c0,3.1,-2.5,5.6,-5.6,5.6c-3.1,0,-5.6,-2.5,-5.6,-5.6c0,-3,2.5,-5.5,5.6,-5.5c3.1,0,5.6,2.5,5.6,5.5Zm0,22.2c0,3,-2.5,5.5,-5.6,5.5c-3.1,0,-5.6,-2.5,-5.6,-5.5c0,-3.1,2.5,-5.6,5.6,-5.6c3.1,0,5.6,2.5,5.6,5.6Zm0,22.1c0,3,-2.5,5.5,-5.6,5.5c-3.1,0,-5.6,-2.5,-5.6,-5.5c0,-3.1,2.5,-5.5,5.6,-5.5c3.1,0,5.6,2.4,5.6,5.5Zm0,22.1c0,3,-2.5,5.5,-5.6,5.5c-3.1,0,-5.6,-2.5,-5.6,-5.5c0,-3,2.5,-5.5,5.6,-5.5c3.1,0,5.6,2.5,5.6,5.5Zm0,22.1c0,3.1,-2.5,5.6,-5.6,5.6c-3.1,0,-5.6,-2.5,-5.6,-5.6c0,-3,2.5,-5.5,5.6,-5.5c3.1,0,5.6,2.5,5.6,5.5Zm0,22.1c0,3.1,-2.5,5.6,-5.6,5.6c-3.1,0,-5.6,-2.5,-5.6,-5.6c0,-3,2.5,-5.5,5.6,-5.5c3.1,0,5.6,2.5,5.6,5.5Zm0,22.2c0,3,-2.5,5.5,-5.6,5.5c-3.1,0,-5.6,-2.5,-5.6,-5.5c0,-3.1,2.5,-5.6,5.6,-5.6c3.1,0,5.6,2.5,5.6,5.6Zm0,22.1c0,3,-2.5,5.5,-5.6,5.5c-3.1,0,-5.6,-2.5,-5.6,-5.5c0,-3.1,2.5,-5.5,5.6,-5.5c3.1,0,5.6,2.4,5.6,5.5Zm0,22.1c0,3,-2.5,5.5,-5.6,5.5c-3.1,0,-5.6,-2.5,-5.6,-5.5c0,-3,2.5,-5.5,5.6,-5.5c3.1,0,5.6,2.5,5.6,5.5Zm0,22.1c0,3.1,-2.5,5.6,-5.6,5.6c-3.1,0,-5.6,-2.5,-5.6,-5.6c0,-3,2.5,-5.5,5.6,-5.5c3.1,0,5.6,2.5,5.6,5.5Zm0,22.1c0,3.1,-2.5,5.6,-5.6,5.6c-3.1,0,-5.6,-2.5,-5.6,-5.6c0,-3,2.5,-5.5,5.6,-5.5c3.1,0,5.6,2.5,5.6,5.5Zm0,22.2c0,3,-2.5,5.5,-5.6,5.5c-3.1,0,-5.6,-2.5,-5.6,-5.5c0,-3.1,2.5,-5.6,5.6,-5.6c3.1,0,5.6,2.5,5.6,5.6Zm0,22.1c0,3,-2.5,5.5,-5.6,5.5c-3.1,0,-5.6,-2.5,-5.6,-5.5c0,-3.1,2.5,-5.5,5.6,-5.5c3.1,0,5.6,2.4,5.6,5.5Zm0,22.1c0,3.1,-2.5,5.5,-5.6,5.5c-3.1,0,-5.6,-2.4,-5.6,-5.5c0,-3,2.5,-5.5,5.6,-5.5c3.1,0,5.6,2.5,5.6,5.5Zm0,22.1c0,3.1,-2.5,5.6,-5.6,5.6c-3.1,0,-5.6,-2.5,-5.6,-5.6c0,-3,2.5,-5.5,5.6,-5.5c3.1,0,5.6,2.5,5.6,5.5Zm0,22.2c0,3,-2.5,5.5,-5.6,5.5c-3.1,0,-5.6,-2.5,-5.6,-5.5c0,-3.1,2.5,-5.6,5.6,-5.6c3.1,0,5.6,2.5,5.6,5.6Zm0,22.1c0,3,-2.5,5.5,-5.6,5.5c-3.1,0,-5.6,-2.5,-5.6,-5.5c0,-3.1,2.5,-5.6,5.6,-5.6c3.1,0,5.6,2.5,5.6,5.6Zm0,22.1c0,3,-2.5,5.5,-5.6,5.5c-3.1,0,-5.6,-2.5,-5.6,-5.5c0,-3,2.5,-5.5,5.6,-5.5c3.1,0,5.6,2.5,5.6,5.5Zm0,22.1c0,3.1,-2.5,5.5,-5.6,5.5c-3.1,0,-5.6,-2.4,-5.6,-5.5c0,-3,2.5,-5.5,5.6,-5.5c3.1,0,5.6,2.5,5.6,5.5Z" class="gd_4"/>
<path clip-path="url(#cd_4)" d="M467.3,1095.9c0,3.1,-2.5,5.6,-5.6,5.6c-3.1,0,-5.6,-2.5,-5.6,-5.6c0,-3,2.5,-5.5,5.6,-5.5c3.1,0,5.6,2.5,5.6,5.5Zm0,22.1c0,3.1,-2.5,5.6,-5.6,5.6c-3.1,0,-5.6,-2.5,-5.6,-5.6c0,-3,2.5,-5.5,5.6,-5.5c3.1,0,5.6,2.5,5.6,5.5Zm0,22.2c0,3,-2.5,5.5,-5.6,5.5c-3.1,0,-5.6,-2.5,-5.6,-5.5c0,-3.1,2.5,-5.6,5.6,-5.6c3.1,0,5.6,2.5,5.6,5.6Zm0,22.1c0,3,-2.5,5.5,-5.6,5.5c-3.1,0,-5.6,-2.5,-5.6,-5.5c0,-3.1,2.5,-5.5,5.6,-5.5c3.1,0,5.6,2.4,5.6,5.5Zm0,22.1c0,3,-2.5,5.5,-5.6,5.5c-3.1,0,-5.6,-2.5,-5.6,-5.5c0,-3,2.5,-5.5,5.6,-5.5c3.1,0,5.6,2.5,5.6,5.5Zm0,22.1c0,3.1,-2.5,5.6,-5.6,5.6c-3.1,0,-5.6,-2.5,-5.6,-5.6c0,-3,2.5,-5.5,5.6,-5.5c3.1,0,5.6,2.5,5.6,5.5Zm0,22.1c0,3.1,-2.5,5.6,-5.6,5.6c-3.1,0,-5.6,-2.5,-5.6,-5.6c0,-3,2.5,-5.5,5.6,-5.5c3.1,0,5.6,2.5,5.6,5.5Zm0,22.2c0,3,-2.5,5.5,-5.6,5.5c-3.1,0,-5.6,-2.5,-5.6,-5.5c0,-3.1,2.5,-5.6,5.6,-5.6c3.1,0,5.6,2.5,5.6,5.6Zm0,22.1c0,3,-2.5,5.5,-5.6,5.5c-3.1,0,-5.6,-2.5,-5.6,-5.5c0,-3.1,2.5,-5.5,5.6,-5.5c3.1,0,5.6,2.4,5.6,5.5Zm0,22.1c0,3.1,-2.5,5.5,-5.6,5.5c-3.1,0,-5.6,-2.4,-5.6,-5.5c0,-3,2.5,-5.5,5.6,-5.5c3.1,0,5.6,2.5,5.6,5.5Zm0,22.1c0,3.1,-2.5,5.6,-5.6,5.6c-3.1,0,-5.6,-2.5,-5.6,-5.6c0,-3,2.5,-5.5,5.6,-5.5c3.1,0,5.6,2.5,5.6,5.5Zm0,22.2c0,3,-2.5,5.5,-5.6,5.5c-3.1,0,-5.6,-2.5,-5.6,-5.5c0,-3.1,2.5,-5.6,5.6,-5.6c3.1,0,5.6,2.5,5.6,5.6Zm0,22.1c0,3,-2.5,5.5,-5.6,5.5c-3.1,0,-5.6,-2.5,-5.6,-5.5c0,-3.1,2.5,-5.6,5.6,-5.6c3.1,0,5.6,2.5,5.6,5.6Zm0,22.1c0,3,-2.5,5.5,-5.6,5.5c-3.1,0,-5.6,-2.5,-5.6,-5.5c0,-3,2.5,-5.5,5.6,-5.5c3.1,0,5.6,2.5,5.6,5.5Zm0,22.1c0,3.1,-2.5,5.5,-5.6,5.5c-3.1,0,-5.6,-2.4,-5.6,-5.5c0,-3,2.5,-5.5,5.6,-5.5c3.1,0,5.6,2.5,5.6,5.5Zm0,22.1c0,3.1,-2.5,5.6,-5.6,5.6c-3.1,0,-5.6,-2.5,-5.6,-5.6c0,-3,2.5,-5.5,5.6,-5.5c3.1,0,5.6,2.5,5.6,5.5Zm0,22.2c0,3,-2.5,5.5,-5.6,5.5c-3.1,0,-5.6,-2.5,-5.6,-5.5c0,-3.1,2.5,-5.6,5.6,-5.6c3.1,0,5.6,2.5,5.6,5.6Zm0,22.1c0,3,-2.5,5.5,-5.6,5.5c-3.1,0,-5.6,-2.5,-5.6,-5.5c0,-3.1,2.5,-5.6,5.6,-5.6c3.1,0,5.6,2.5,5.6,5.6Zm0,22.1c0,3,-2.5,5.5,-5.6,5.5c-3.1,0,-5.6,-2.5,-5.6,-5.5c0,-3,2.5,-5.5,5.6,-5.5c3.1,0,5.6,2.5,5.6,5.5Zm0,22.1c0,3.1,-2.5,5.5,-5.6,5.5c-3.1,0,-5.6,-2.4,-5.6,-5.5c0,-3,2.5,-5.5,5.6,-5.5c3.1,0,5.6,2.5,5.6,5.5Zm0,22.1c0,3.1,-2.5,5.6,-5.6,5.6c-3.1,0,-5.6,-2.5,-5.6,-5.6c0,-3,2.5,-5.5,5.6,-5.5c3.1,0,5.6,2.5,5.6,5.5Z" class="gd_4"/>
<path d="M643.3,163.8c0,3,-2.5,5.5,-5.6,5.5c-3.1,0,-5.6,-2.5,-5.6,-5.5c0,-3.1,2.5,-5.6,5.6,-5.6c3.1,0,5.6,2.5,5.6,5.6Zm0,22.1c0,3,-2.5,5.5,-5.6,5.5c-3.1,0,-5.6,-2.5,-5.6,-5.5c0,-3,2.5,-5.5,5.6,-5.5c3.1,0,5.6,2.5,5.6,5.5Zm0,22.1c0,3.1,-2.5,5.5,-5.6,5.5c-3.1,0,-5.6,-2.4,-5.6,-5.5c0,-3,2.5,-5.5,5.6,-5.5c3.1,0,5.6,2.5,5.6,5.5Zm0,22.1c0,3.1,-2.5,5.6,-5.6,5.6c-3.1,0,-5.6,-2.5,-5.6,-5.6c0,-3,2.5,-5.5,5.6,-5.5c3.1,0,5.6,2.5,5.6,5.5Zm0,22.2c0,3,-2.5,5.5,-5.6,5.5c-3.1,0,-5.6,-2.5,-5.6,-5.5c0,-3.1,2.5,-5.6,5.6,-5.6c3.1,0,5.6,2.5,5.6,5.6Zm0,22.1c0,3,-2.5,5.5,-5.6,5.5c-3.1,0,-5.6,-2.5,-5.6,-5.5c0,-3.1,2.5,-5.6,5.6,-5.6c3.1,0,5.6,2.5,5.6,5.6Zm0,22.1c0,3,-2.5,5.5,-5.6,5.5c-3.1,0,-5.6,-2.5,-5.6,-5.5c0,-3,2.5,-5.5,5.6,-5.5c3.1,0,5.6,2.5,5.6,5.5Zm0,22.1c0,3.1,-2.5,5.5,-5.6,5.5c-3.1,0,-5.6,-2.4,-5.6,-5.5c0,-3,2.5,-5.5,5.6,-5.5c3.1,0,5.6,2.5,5.6,5.5Zm0,22.1c0,3.1,-2.5,5.6,-5.6,5.6c-3.1,0,-5.6,-2.5,-5.6,-5.6c0,-3,2.5,-5.5,5.6,-5.5c3.1,0,5.6,2.5,5.6,5.5Zm0,22.2c0,3,-2.5,5.5,-5.6,5.5c-3.1,0,-5.6,-2.5,-5.6,-5.5c0,-3.1,2.5,-5.6,5.6,-5.6c3.1,0,5.6,2.5,5.6,5.6Zm0,22.1c0,3,-2.5,5.5,-5.6,5.5c-3.1,0,-5.6,-2.5,-5.6,-5.5c0,-3.1,2.5,-5.6,5.6,-5.6c3.1,0,5.6,2.5,5.6,5.6Zm0,22.1c0,3,-2.5,5.5,-5.6,5.5c-3.1,0,-5.6,-2.5,-5.6,-5.5c0,-3,2.5,-5.5,5.6,-5.5c3.1,0,5.6,2.5,5.6,5.5Zm0,22.1c0,3.1,-2.5,5.5,-5.6,5.5c-3.1,0,-5.6,-2.4,-5.6,-5.5c0,-3,2.5,-5.5,5.6,-5.5c3.1,0,5.6,2.5,5.6,5.5Zm0,22.1c0,3.1,-2.5,5.6,-5.6,5.6c-3.1,0,-5.6,-2.5,-5.6,-5.6c0,-3,2.5,-5.5,5.6,-5.5c3.1,0,5.6,2.5,5.6,5.5Zm0,22.2c0,3,-2.5,5.5,-5.6,5.5c-3.1,0,-5.6,-2.5,-5.6,-5.5c0,-3.1,2.5,-5.6,5.6,-5.6c3.1,0,5.6,2.5,5.6,5.6Zm0,22.1c0,3,-2.5,5.5,-5.6,5.5c-3.1,0,-5.6,-2.5,-5.6,-5.5c0,-3.1,2.5,-5.5,5.6,-5.5c3.1,0,5.6,2.4,5.6,5.5Zm0,22.1c0,3,-2.5,5.5,-5.6,5.5c-3.1,0,-5.6,-2.5,-5.6,-5.5c0,-3,2.5,-5.5,5.6,-5.5c3.1,0,5.6,2.5,5.6,5.5Zm0,22.1c0,3.1,-2.5,5.6,-5.6,5.6c-3.1,0,-5.6,-2.5,-5.6,-5.6c0,-3,2.5,-5.5,5.6,-5.5c3.1,0,5.6,2.5,5.6,5.5Zm0,22.1c0,3.1,-2.5,5.6,-5.6,5.6c-3.1,0,-5.6,-2.5,-5.6,-5.6c0,-3,2.5,-5.5,5.6,-5.5c3.1,0,5.6,2.5,5.6,5.5Zm0,22.2c0,3,-2.5,5.5,-5.6,5.5c-3.1,0,-5.6,-2.5,-5.6,-5.5c0,-3.1,2.5,-5.6,5.6,-5.6c3.1,0,5.6,2.5,5.6,5.6Zm0,22.1c0,3,-2.5,5.5,-5.6,5.5c-3.1,0,-5.6,-2.5,-5.6,-5.5c0,-3.1,2.5,-5.5,5.6,-5.5c3.1,0,5.6,2.4,5.6,5.5Z" class="gd_4"/>
<path d="M643.3,629.5c0,3,-2.5,5.5,-5.6,5.5c-3.1,0,-5.6,-2.5,-5.6,-5.5c0,-3,2.5,-5.5,5.6,-5.5c3.1,0,5.6,2.5,5.6,5.5Zm0,22.1c0,3.1,-2.5,5.5,-5.6,5.5c-3.1,0,-5.6,-2.4,-5.6,-5.5c0,-3,2.5,-5.5,5.6,-5.5c3.1,0,5.6,2.5,5.6,5.5Zm0,22.1c0,3.1,-2.5,5.6,-5.6,5.6c-3.1,0,-5.6,-2.5,-5.6,-5.6c0,-3,2.5,-5.5,5.6,-5.5c3.1,0,5.6,2.5,5.6,5.5Zm0,22.2c0,3,-2.5,5.5,-5.6,5.5c-3.1,0,-5.6,-2.5,-5.6,-5.5c0,-3.1,2.5,-5.6,5.6,-5.6c3.1,0,5.6,2.5,5.6,5.6Zm0,22.1c0,3,-2.5,5.5,-5.6,5.5c-3.1,0,-5.6,-2.5,-5.6,-5.5c0,-3.1,2.5,-5.6,5.6,-5.6c3.1,0,5.6,2.5,5.6,5.6Zm0,22.1c0,3,-2.5,5.5,-5.6,5.5c-3.1,0,-5.6,-2.5,-5.6,-5.5c0,-3,2.5,-5.5,5.6,-5.5c3.1,0,5.6,2.5,5.6,5.5Zm0,22.1c0,3.1,-2.5,5.5,-5.6,5.5c-3.1,0,-5.6,-2.4,-5.6,-5.5c0,-3,2.5,-5.5,5.6,-5.5c3.1,0,5.6,2.5,5.6,5.5Zm0,22.1c0,3.1,-2.5,5.6,-5.6,5.6c-3.1,0,-5.6,-2.5,-5.6,-5.6c0,-3,2.5,-5.5,5.6,-5.5c3.1,0,5.6,2.5,5.6,5.5Zm0,22.2c0,3,-2.5,5.5,-5.6,5.5c-3.1,0,-5.6,-2.5,-5.6,-5.5c0,-3.1,2.5,-5.6,5.6,-5.6c3.1,0,5.6,2.5,5.6,5.6Zm0,22.1c0,3,-2.5,5.5,-5.6,5.5c-3.1,0,-5.6,-2.5,-5.6,-5.5c0,-3.1,2.5,-5.6,5.6,-5.6c3.1,0,5.6,2.5,5.6,5.6Zm0,22.1c0,3,-2.5,5.5,-5.6,5.5c-3.1,0,-5.6,-2.5,-5.6,-5.5c0,-3,2.5,-5.5,5.6,-5.5c3.1,0,5.6,2.5,5.6,5.5Zm0,22.1c0,3.1,-2.5,5.6,-5.6,5.6c-3.1,0,-5.6,-2.5,-5.6,-5.6c0,-3,2.5,-5.5,5.6,-5.5c3.1,0,5.6,2.5,5.6,5.5Zm0,22.1c0,3.1,-2.5,5.6,-5.6,5.6c-3.1,0,-5.6,-2.5,-5.6,-5.6c0,-3,2.5,-5.5,5.6,-5.5c3.1,0,5.6,2.5,5.6,5.5Zm0,22.2c0,3,-2.5,5.5,-5.6,5.5c-3.1,0,-5.6,-2.5,-5.6,-5.5c0,-3.1,2.5,-5.6,5.6,-5.6c3.1,0,5.6,2.5,5.6,5.6Zm0,22.1c0,3,-2.5,5.5,-5.6,5.5c-3.1,0,-5.6,-2.5,-5.6,-5.5c0,-3.1,2.5,-5.5,5.6,-5.5c3.1,0,5.6,2.4,5.6,5.5Zm0,22.1c0,3,-2.5,5.5,-5.6,5.5c-3.1,0,-5.6,-2.5,-5.6,-5.5c0,-3,2.5,-5.5,5.6,-5.5c3.1,0,5.6,2.5,5.6,5.5Zm0,22.1c0,3.1,-2.5,5.6,-5.6,5.6c-3.1,0,-5.6,-2.5,-5.6,-5.6c0,-3,2.5,-5.5,5.6,-5.5c3.1,0,5.6,2.5,5.6,5.5Zm0,22.1c0,3.1,-2.5,5.6,-5.6,5.6c-3.1,0,-5.6,-2.5,-5.6,-5.6c0,-3,2.5,-5.5,5.6,-5.5c3.1,0,5.6,2.5,5.6,5.5Zm0,22.2c0,3,-2.5,5.5,-5.6,5.5c-3.1,0,-5.6,-2.5,-5.6,-5.5c0,-3.1,2.5,-5.6,5.6,-5.6c3.1,0,5.6,2.5,5.6,5.6Zm0,22.1c0,3,-2.5,5.5,-5.6,5.5c-3.1,0,-5.6,-2.5,-5.6,-5.5c0,-3.1,2.5,-5.5,5.6,-5.5c3.1,0,5.6,2.4,5.6,5.5Zm0,22.1c0,3,-2.5,5.5,-5.6,5.5c-3.1,0,-5.6,-2.5,-5.6,-5.5c0,-3,2.5,-5.5,5.6,-5.5c3.1,0,5.6,2.5,5.6,5.5Z" class="gd_4"/>
<path clip-path="url(#ce_4)" d="M643.3,1095.2c0,3.1,-2.5,5.5,-5.6,5.5c-3.1,0,-5.6,-2.4,-5.6,-5.5c0,-3,2.5,-5.5,5.6,-5.5c3.1,0,5.6,2.5,5.6,5.5Zm0,22.1c0,3.1,-2.5,5.6,-5.6,5.6c-3.1,0,-5.6,-2.5,-5.6,-5.6c0,-3,2.5,-5.5,5.6,-5.5c3.1,0,5.6,2.5,5.6,5.5Zm0,22.2c0,3,-2.5,5.5,-5.6,5.5c-3.1,0,-5.6,-2.5,-5.6,-5.5c0,-3.1,2.5,-5.6,5.6,-5.6c3.1,0,5.6,2.5,5.6,5.6Zm0,22.1c0,3,-2.5,5.5,-5.6,5.5c-3.1,0,-5.6,-2.5,-5.6,-5.5c0,-3.1,2.5,-5.6,5.6,-5.6c3.1,0,5.6,2.5,5.6,5.6Zm0,22.1c0,3,-2.5,5.5,-5.6,5.5c-3.1,0,-5.6,-2.5,-5.6,-5.5c0,-3,2.5,-5.5,5.6,-5.5c3.1,0,5.6,2.5,5.6,5.5Zm0,22.1c0,3.1,-2.5,5.6,-5.6,5.6c-3.1,0,-5.6,-2.5,-5.6,-5.6c0,-3,2.5,-5.5,5.6,-5.5c3.1,0,5.6,2.5,5.6,5.5Zm0,22.1c0,3.1,-2.5,5.6,-5.6,5.6c-3.1,0,-5.6,-2.5,-5.6,-5.6c0,-3,2.5,-5.5,5.6,-5.5c3.1,0,5.6,2.5,5.6,5.5Zm0,22.2c0,3,-2.5,5.5,-5.6,5.5c-3.1,0,-5.6,-2.5,-5.6,-5.5c0,-3.1,2.5,-5.6,5.6,-5.6c3.1,0,5.6,2.5,5.6,5.6Zm0,22.1c0,3,-2.5,5.5,-5.6,5.5c-3.1,0,-5.6,-2.5,-5.6,-5.5c0,-3.1,2.5,-5.5,5.6,-5.5c3.1,0,5.6,2.4,5.6,5.5Zm0,22.1c0,3,-2.5,5.5,-5.6,5.5c-3.1,0,-5.6,-2.5,-5.6,-5.5c0,-3,2.5,-5.5,5.6,-5.5c3.1,0,5.6,2.5,5.6,5.5Zm0,22.1c0,3.1,-2.5,5.6,-5.6,5.6c-3.1,0,-5.6,-2.5,-5.6,-5.6c0,-3,2.5,-5.5,5.6,-5.5c3.1,0,5.6,2.5,5.6,5.5Zm0,22.1c0,3.1,-2.5,5.6,-5.6,5.6c-3.1,0,-5.6,-2.5,-5.6,-5.6c0,-3,2.5,-5.5,5.6,-5.5c3.1,0,5.6,2.5,5.6,5.5Zm0,22.2c0,3,-2.5,5.5,-5.6,5.5c-3.1,0,-5.6,-2.5,-5.6,-5.5c0,-3.1,2.5,-5.6,5.6,-5.6c3.1,0,5.6,2.5,5.6,5.6Zm0,22.1c0,3,-2.5,5.5,-5.6,5.5c-3.1,0,-5.6,-2.5,-5.6,-5.5c0,-3.1,2.5,-5.5,5.6,-5.5c3.1,0,5.6,2.4,5.6,5.5Zm0,22.1c0,3,-2.5,5.5,-5.6,5.5c-3.1,0,-5.6,-2.5,-5.6,-5.5c0,-3,2.5,-5.5,5.6,-5.5c3.1,0,5.6,2.5,5.6,5.5Zm0,22.1c0,3.1,-2.5,5.6,-5.6,5.6c-3.1,0,-5.6,-2.5,-5.6,-5.6c0,-3,2.5,-5.5,5.6,-5.5c3.1,0,5.6,2.5,5.6,5.5Zm0,22.1c0,3.1,-2.5,5.6,-5.6,5.6c-3.1,0,-5.6,-2.5,-5.6,-5.6c0,-3,2.5,-5.5,5.6,-5.5c3.1,0,5.6,2.5,5.6,5.5Zm0,22.2c0,3,-2.5,5.5,-5.6,5.5c-3.1,0,-5.6,-2.5,-5.6,-5.5c0,-3.1,2.5,-5.6,5.6,-5.6c3.1,0,5.6,2.5,5.6,5.6Zm0,22.1c0,3,-2.5,5.5,-5.6,5.5c-3.1,0,-5.6,-2.5,-5.6,-5.5c0,-3.1,2.5,-5.5,5.6,-5.5c3.1,0,5.6,2.4,5.6,5.5Zm0,22.1c0,3.1,-2.5,5.5,-5.6,5.5c-3.1,0,-5.6,-2.4,-5.6,-5.5c0,-3,2.5,-5.5,5.6,-5.5c3.1,0,5.6,2.5,5.6,5.5Zm0,22.1c0,3.1,-2.5,5.6,-5.6,5.6c-3.1,0,-5.6,-2.5,-5.6,-5.6c0,-3,2.5,-5.5,5.6,-5.5c3.1,0,5.6,2.5,5.6,5.5Z" class="gd_4"/>
<path d="M779.5,163.8c0,3,-2.5,5.5,-5.6,5.5c-3.1,0,-5.6,-2.5,-5.6,-5.5c0,-3.1,2.5,-5.6,5.6,-5.6c3.1,0,5.6,2.5,5.6,5.6Zm0,22.1c0,3,-2.5,5.5,-5.6,5.5c-3.1,0,-5.6,-2.5,-5.6,-5.5c0,-3,2.5,-5.5,5.6,-5.5c3.1,0,5.6,2.5,5.6,5.5Zm0,22.1c0,3.1,-2.5,5.5,-5.6,5.5c-3.1,0,-5.6,-2.4,-5.6,-5.5c0,-3,2.5,-5.5,5.6,-5.5c3.1,0,5.6,2.5,5.6,5.5Zm0,22.1c0,3.1,-2.5,5.6,-5.6,5.6c-3.1,0,-5.6,-2.5,-5.6,-5.6c0,-3,2.5,-5.5,5.6,-5.5c3.1,0,5.6,2.5,5.6,5.5Zm0,22.2c0,3,-2.5,5.5,-5.6,5.5c-3.1,0,-5.6,-2.5,-5.6,-5.5c0,-3.1,2.5,-5.6,5.6,-5.6c3.1,0,5.6,2.5,5.6,5.6Zm0,22.1c0,3,-2.5,5.5,-5.6,5.5c-3.1,0,-5.6,-2.5,-5.6,-5.5c0,-3.1,2.5,-5.6,5.6,-5.6c3.1,0,5.6,2.5,5.6,5.6Zm0,22.1c0,3,-2.5,5.5,-5.6,5.5c-3.1,0,-5.6,-2.5,-5.6,-5.5c0,-3,2.5,-5.5,5.6,-5.5c3.1,0,5.6,2.5,5.6,5.5Zm0,22.1c0,3.1,-2.5,5.5,-5.6,5.5c-3.1,0,-5.6,-2.4,-5.6,-5.5c0,-3,2.5,-5.5,5.6,-5.5c3.1,0,5.6,2.5,5.6,5.5Zm0,22.1c0,3.1,-2.5,5.6,-5.6,5.6c-3.1,0,-5.6,-2.5,-5.6,-5.6c0,-3,2.5,-5.5,5.6,-5.5c3.1,0,5.6,2.5,5.6,5.5Zm0,22.2c0,3,-2.5,5.5,-5.6,5.5c-3.1,0,-5.6,-2.5,-5.6,-5.5c0,-3.1,2.5,-5.6,5.6,-5.6c3.1,0,5.6,2.5,5.6,5.6Zm0,22.1c0,3,-2.5,5.5,-5.6,5.5c-3.1,0,-5.6,-2.5,-5.6,-5.5c0,-3.1,2.5,-5.6,5.6,-5.6c3.1,0,5.6,2.5,5.6,5.6Zm0,22.1c0,3,-2.5,5.5,-5.6,5.5c-3.1,0,-5.6,-2.5,-5.6,-5.5c0,-3,2.5,-5.5,5.6,-5.5c3.1,0,5.6,2.5,5.6,5.5Zm0,22.1c0,3.1,-2.5,5.5,-5.6,5.5c-3.1,0,-5.6,-2.4,-5.6,-5.5c0,-3,2.5,-5.5,5.6,-5.5c3.1,0,5.6,2.5,5.6,5.5Zm0,22.1c0,3.1,-2.5,5.6,-5.6,5.6c-3.1,0,-5.6,-2.5,-5.6,-5.6c0,-3,2.5,-5.5,5.6,-5.5c3.1,0,5.6,2.5,5.6,5.5Zm0,22.2c0,3,-2.5,5.5,-5.6,5.5c-3.1,0,-5.6,-2.5,-5.6,-5.5c0,-3.1,2.5,-5.6,5.6,-5.6c3.1,0,5.6,2.5,5.6,5.6Zm0,22.1c0,3,-2.5,5.5,-5.6,5.5c-3.1,0,-5.6,-2.5,-5.6,-5.5c0,-3.1,2.5,-5.5,5.6,-5.5c3.1,0,5.6,2.4,5.6,5.5Zm0,22.1c0,3,-2.5,5.5,-5.6,5.5c-3.1,0,-5.6,-2.5,-5.6,-5.5c0,-3,2.5,-5.5,5.6,-5.5c3.1,0,5.6,2.5,5.6,5.5Zm0,22.1c0,3.1,-2.5,5.6,-5.6,5.6c-3.1,0,-5.6,-2.5,-5.6,-5.6c0,-3,2.5,-5.5,5.6,-5.5c3.1,0,5.6,2.5,5.6,5.5Zm0,22.1c0,3.1,-2.5,5.6,-5.6,5.6c-3.1,0,-5.6,-2.5,-5.6,-5.6c0,-3,2.5,-5.5,5.6,-5.5c3.1,0,5.6,2.5,5.6,5.5Zm0,22.2c0,3,-2.5,5.5,-5.6,5.5c-3.1,0,-5.6,-2.5,-5.6,-5.5c0,-3.1,2.5,-5.6,5.6,-5.6c3.1,0,5.6,2.5,5.6,5.6Zm0,22.1c0,3,-2.5,5.5,-5.6,5.5c-3.1,0,-5.6,-2.5,-5.6,-5.5c0,-3.1,2.5,-5.5,5.6,-5.5c3.1,0,5.6,2.4,5.6,5.5Z" class="gd_4"/>
<path d="M779.5,629.5c0,3,-2.5,5.5,-5.6,5.5c-3.1,0,-5.6,-2.5,-5.6,-5.5c0,-3,2.5,-5.5,5.6,-5.5c3.1,0,5.6,2.5,5.6,5.5Zm0,22.1c0,3.1,-2.5,5.5,-5.6,5.5c-3.1,0,-5.6,-2.4,-5.6,-5.5c0,-3,2.5,-5.5,5.6,-5.5c3.1,0,5.6,2.5,5.6,5.5Zm0,22.1c0,3.1,-2.5,5.6,-5.6,5.6c-3.1,0,-5.6,-2.5,-5.6,-5.6c0,-3,2.5,-5.5,5.6,-5.5c3.1,0,5.6,2.5,5.6,5.5Zm0,22.2c0,3,-2.5,5.5,-5.6,5.5c-3.1,0,-5.6,-2.5,-5.6,-5.5c0,-3.1,2.5,-5.6,5.6,-5.6c3.1,0,5.6,2.5,5.6,5.6Zm0,22.1c0,3,-2.5,5.5,-5.6,5.5c-3.1,0,-5.6,-2.5,-5.6,-5.5c0,-3.1,2.5,-5.6,5.6,-5.6c3.1,0,5.6,2.5,5.6,5.6Zm0,22.1c0,3,-2.5,5.5,-5.6,5.5c-3.1,0,-5.6,-2.5,-5.6,-5.5c0,-3,2.5,-5.5,5.6,-5.5c3.1,0,5.6,2.5,5.6,5.5Zm0,22.1c0,3.1,-2.5,5.5,-5.6,5.5c-3.1,0,-5.6,-2.4,-5.6,-5.5c0,-3,2.5,-5.5,5.6,-5.5c3.1,0,5.6,2.5,5.6,5.5Zm0,22.1c0,3.1,-2.5,5.6,-5.6,5.6c-3.1,0,-5.6,-2.5,-5.6,-5.6c0,-3,2.5,-5.5,5.6,-5.5c3.1,0,5.6,2.5,5.6,5.5Zm0,22.2c0,3,-2.5,5.5,-5.6,5.5c-3.1,0,-5.6,-2.5,-5.6,-5.5c0,-3.1,2.5,-5.6,5.6,-5.6c3.1,0,5.6,2.5,5.6,5.6Zm0,22.1c0,3,-2.5,5.5,-5.6,5.5c-3.1,0,-5.6,-2.5,-5.6,-5.5c0,-3.1,2.5,-5.6,5.6,-5.6c3.1,0,5.6,2.5,5.6,5.6Zm0,22.1c0,3,-2.5,5.5,-5.6,5.5c-3.1,0,-5.6,-2.5,-5.6,-5.5c0,-3,2.5,-5.5,5.6,-5.5c3.1,0,5.6,2.5,5.6,5.5Zm0,22.1c0,3.1,-2.5,5.6,-5.6,5.6c-3.1,0,-5.6,-2.5,-5.6,-5.6c0,-3,2.5,-5.5,5.6,-5.5c3.1,0,5.6,2.5,5.6,5.5Zm0,22.1c0,3.1,-2.5,5.6,-5.6,5.6c-3.1,0,-5.6,-2.5,-5.6,-5.6c0,-3,2.5,-5.5,5.6,-5.5c3.1,0,5.6,2.5,5.6,5.5Zm0,22.2c0,3,-2.5,5.5,-5.6,5.5c-3.1,0,-5.6,-2.5,-5.6,-5.5c0,-3.1,2.5,-5.6,5.6,-5.6c3.1,0,5.6,2.5,5.6,5.6Zm0,22.1c0,3,-2.5,5.5,-5.6,5.5c-3.1,0,-5.6,-2.5,-5.6,-5.5c0,-3.1,2.5,-5.5,5.6,-5.5c3.1,0,5.6,2.4,5.6,5.5Zm0,22.1c0,3,-2.5,5.5,-5.6,5.5c-3.1,0,-5.6,-2.5,-5.6,-5.5c0,-3,2.5,-5.5,5.6,-5.5c3.1,0,5.6,2.5,5.6,5.5Zm0,22.1c0,3.1,-2.5,5.6,-5.6,5.6c-3.1,0,-5.6,-2.5,-5.6,-5.6c0,-3,2.5,-5.5,5.6,-5.5c3.1,0,5.6,2.5,5.6,5.5Zm0,22.1c0,3.1,-2.5,5.6,-5.6,5.6c-3.1,0,-5.6,-2.5,-5.6,-5.6c0,-3,2.5,-5.5,5.6,-5.5c3.1,0,5.6,2.5,5.6,5.5Zm0,22.2c0,3,-2.5,5.5,-5.6,5.5c-3.1,0,-5.6,-2.5,-5.6,-5.5c0,-3.1,2.5,-5.6,5.6,-5.6c3.1,0,5.6,2.5,5.6,5.6Zm0,22.1c0,3,-2.5,5.5,-5.6,5.5c-3.1,0,-5.6,-2.5,-5.6,-5.5c0,-3.1,2.5,-5.5,5.6,-5.5c3.1,0,5.6,2.4,5.6,5.5Zm0,22.1c0,3,-2.5,5.5,-5.6,5.5c-3.1,0,-5.6,-2.5,-5.6,-5.5c0,-3,2.5,-5.5,5.6,-5.5c3.1,0,5.6,2.5,5.6,5.5Z" class="gd_4"/>
<path clip-path="url(#cf_4)" d="M779.5,1095.2c0,3.1,-2.5,5.5,-5.6,5.5c-3.1,0,-5.6,-2.4,-5.6,-5.5c0,-3,2.5,-5.5,5.6,-5.5c3.1,0,5.6,2.5,5.6,5.5Zm0,22.1c0,3.1,-2.5,5.6,-5.6,5.6c-3.1,0,-5.6,-2.5,-5.6,-5.6c0,-3,2.5,-5.5,5.6,-5.5c3.1,0,5.6,2.5,5.6,5.5Zm0,22.2c0,3,-2.5,5.5,-5.6,5.5c-3.1,0,-5.6,-2.5,-5.6,-5.5c0,-3.1,2.5,-5.6,5.6,-5.6c3.1,0,5.6,2.5,5.6,5.6Zm0,22.1c0,3,-2.5,5.5,-5.6,5.5c-3.1,0,-5.6,-2.5,-5.6,-5.5c0,-3.1,2.5,-5.6,5.6,-5.6c3.1,0,5.6,2.5,5.6,5.6Zm0,22.1c0,3,-2.5,5.5,-5.6,5.5c-3.1,0,-5.6,-2.5,-5.6,-5.5c0,-3,2.5,-5.5,5.6,-5.5c3.1,0,5.6,2.5,5.6,5.5Zm0,22.1c0,3.1,-2.5,5.6,-5.6,5.6c-3.1,0,-5.6,-2.5,-5.6,-5.6c0,-3,2.5,-5.5,5.6,-5.5c3.1,0,5.6,2.5,5.6,5.5Zm0,22.1c0,3.1,-2.5,5.6,-5.6,5.6c-3.1,0,-5.6,-2.5,-5.6,-5.6c0,-3,2.5,-5.5,5.6,-5.5c3.1,0,5.6,2.5,5.6,5.5Zm0,22.2c0,3,-2.5,5.5,-5.6,5.5c-3.1,0,-5.6,-2.5,-5.6,-5.5c0,-3.1,2.5,-5.6,5.6,-5.6c3.1,0,5.6,2.5,5.6,5.6Zm0,22.1c0,3,-2.5,5.5,-5.6,5.5c-3.1,0,-5.6,-2.5,-5.6,-5.5c0,-3.1,2.5,-5.5,5.6,-5.5c3.1,0,5.6,2.4,5.6,5.5Zm0,22.1c0,3,-2.5,5.5,-5.6,5.5c-3.1,0,-5.6,-2.5,-5.6,-5.5c0,-3,2.5,-5.5,5.6,-5.5c3.1,0,5.6,2.5,5.6,5.5Zm0,22.1c0,3.1,-2.5,5.6,-5.6,5.6c-3.1,0,-5.6,-2.5,-5.6,-5.6c0,-3,2.5,-5.5,5.6,-5.5c3.1,0,5.6,2.5,5.6,5.5Zm0,22.1c0,3.1,-2.5,5.6,-5.6,5.6c-3.1,0,-5.6,-2.5,-5.6,-5.6c0,-3,2.5,-5.5,5.6,-5.5c3.1,0,5.6,2.5,5.6,5.5Zm0,22.2c0,3,-2.5,5.5,-5.6,5.5c-3.1,0,-5.6,-2.5,-5.6,-5.5c0,-3.1,2.5,-5.6,5.6,-5.6c3.1,0,5.6,2.5,5.6,5.6Zm0,22.1c0,3,-2.5,5.5,-5.6,5.5c-3.1,0,-5.6,-2.5,-5.6,-5.5c0,-3.1,2.5,-5.5,5.6,-5.5c3.1,0,5.6,2.4,5.6,5.5Zm0,22.1c0,3,-2.5,5.5,-5.6,5.5c-3.1,0,-5.6,-2.5,-5.6,-5.5c0,-3,2.5,-5.5,5.6,-5.5c3.1,0,5.6,2.5,5.6,5.5Zm0,22.1c0,3.1,-2.5,5.6,-5.6,5.6c-3.1,0,-5.6,-2.5,-5.6,-5.6c0,-3,2.5,-5.5,5.6,-5.5c3.1,0,5.6,2.5,5.6,5.5Zm0,22.1c0,3.1,-2.5,5.6,-5.6,5.6c-3.1,0,-5.6,-2.5,-5.6,-5.6c0,-3,2.5,-5.5,5.6,-5.5c3.1,0,5.6,2.5,5.6,5.5Zm0,22.2c0,3,-2.5,5.5,-5.6,5.5c-3.1,0,-5.6,-2.5,-5.6,-5.5c0,-3.1,2.5,-5.6,5.6,-5.6c3.1,0,5.6,2.5,5.6,5.6Zm0,22.1c0,3,-2.5,5.5,-5.6,5.5c-3.1,0,-5.6,-2.5,-5.6,-5.5c0,-3.1,2.5,-5.5,5.6,-5.5c3.1,0,5.6,2.4,5.6,5.5Zm0,22.1c0,3.1,-2.5,5.5,-5.6,5.5c-3.1,0,-5.6,-2.4,-5.6,-5.5c0,-3,2.5,-5.5,5.6,-5.5c3.1,0,5.6,2.5,5.6,5.5Zm0,22.1c0,3.1,-2.5,5.6,-5.6,5.6c-3.1,0,-5.6,-2.5,-5.6,-5.6c0,-3,2.5,-5.5,5.6,-5.5c3.1,0,5.6,2.5,5.6,5.5Z" class="gd_4"/>
</svg>