<?xml version="1.0" encoding="UTF-8" standalone="no"?>
<!DOCTYPE svg PUBLIC "-//W3C//DTD SVG 1.1//EN"
"http://www.w3.org/Graphics/SVG/1.1/DTD/svg11.dtd">
<svg viewBox="0 0 909 1286" version="1.1" xmlns="http://www.w3.org/2000/svg" xmlns:xlink="http://www.w3.org/1999/xlink">
<defs>
<clipPath id="c0"><path d="M0,1298.2V0H910.6V1298.2Z"/></clipPath>
<clipPath id="c1"><path d="M0,1287.9V0H910.6V1287.9Z"/></clipPath>
<clipPath id="c2"><path d="M553,535.3V25.5H910.4V535.3Z"/></clipPath>
<clipPath id="c3"><path d="M0,1112.5V597.6H322.3v514.9Z"/></clipPath>
<clipPath id="c4"><path d="M0,1112.5V603.8H322.3v508.7Z"/></clipPath>
<clipPath id="c5"><path d="M14.2,1267.2V959.9H321.6v307.3Z"/></clipPath>
<clipPath id="c6"><path d="M359.9,1162.7v-46.8h46.7v46.8Z"/></clipPath>
<clipPath id="c7"><path d="M362.3,1219.1v-55.9h59.6v55.9Z"/></clipPath>
<style type="text/css"><![CDATA[
.g0{
fill: #FFFFFF;
}
.g1{
fill: #FFDF2B;
fill-opacity: 0.1765;
}
.g2{
fill: #FFDF2B;
fill-opacity: 0.30980003;
}
.g3{
fill: #FFDF2B;
fill-opacity: 0.67840004;
}
.g4{
fill: #271511;
fill-opacity: 0.08629999;
}
.g5{
fill: #331D18;
fill-opacity: 0.08629999;
}
.g6{
fill: #412621;
fill-opacity: 0.08629999;
}
.g7{
fill: #E3A574;
fill-opacity: 0.08629999;
}
.g8{
fill: #42BFB4;
fill-opacity: 0.08629999;
}
.g9{
fill: #379E95;
fill-opacity: 0.08629999;
}
.ga{
fill: #0F0D0E;
fill-opacity: 0.08629999;
}
.gb{
fill: #FFFFFF;
fill-opacity: 0.08629999;
}
.gc{
fill: #D5D4D5;
fill-opacity: 0.08629999;
}
.gd{
fill: #050308;
fill-opacity: 0.08629999;
}
.ge{
fill: #110F10;
fill-opacity: 0.08629999;
}
.gf{
fill: #302C35;
fill-opacity: 0.08629999;
}
.gg{
fill: #0B0909;
fill-opacity: 0.08629999;
}
.gh{
fill: #231F20;
fill-opacity: 0.08629999;
}
.gi{
fill: #BDBCBC;
fill-opacity: 0.08629999;
}
.gj{
fill: #D3D2D2;
fill-opacity: 0.08629999;
}
.gk{
fill: #231F25;
fill-opacity: 0.08629999;
}
.gl{
fill: #E43137;
fill-opacity: 0.08629999;
}
.gm{
fill: #A6A8DC;
fill-opacity: 0.1765;
}
.gn{
fill: #FCDDEE;
fill-opacity: 0.1765;
}
.go{
fill: #211D1D;
fill-opacity: 0.1765;
}
.gp{
fill: #F3623C;
}
.gq{
fill: #FFDF2B;
}
.gr{
}
.gs{
fill: #D9307F;
}
]]></style>
</defs>
<path clip-path="url(#c0)" d="M0,0H910.6V1287.9H0V0Z" class="g0"/>
<path clip-path="url(#c1)" d="M0,0H910.6V1287.9H0V0Z" class="g0"/>
<path d="M90.2,0H0L72.2,65.6L0,131.2H90.2L162.4,65.6L90.2,0Z" class="g1"/>
<path d="M193.5,0H103.3l72.2,65.6l-72.2,65.6h90.2L265.7,65.6L193.5,0Z" class="g2"/>
<path d="M296.7,0H206.5l72.1,65.6l-72.1,65.6h90.2L368.9,65.6L296.7,0Z" class="g3"/>
<path d="M759.6,141.3c0,0,-7.8,20.4,-.7,30.1c7.1,9.6,14.5,14.9,12.8,22.8c-1.8,8,-4.5,17.4,-1.6,23.9c2.9,6.4,5.8,8,1.4,15.7c-4.5,7.6,-3.6,15.3,-1,22.1c2.6,6.8,4,14.2,.4,20.6c0,0,8,-5.5,6.2,-13.6c-1.8,-8,-2.4,-16.7,.8,-22.8c3.2,-6.1,5.8,-10.6,2.9,-18.9c-2.9,-8.4,0,-13.8,2.9,-23.1c2.9,-9.2,7.1,-16.7,3.2,-24.1c-3.8,-7.4,-5.3,-13.9,-5.8,-18.7c-.6,-7.3,3.2,-20.9,-15.2,-18.3c-9.9,1.4,-.3,1.4,-6.3,4.3Z" class="g4"/>
<path d="M750.2,141.3c0,0,-7.9,20.4,-.7,30.1c7,9.6,14.4,14.9,12.7,22.8c-1.7,8,-4.5,17.4,-1.6,23.9c3,6.4,5.8,8,1.4,15.7c-4.4,7.6,-3.6,15.3,-1,22.1c2.6,6.8,4,14.2,.5,20.6c0,0,7.9,-5.5,6.1,-13.6c-1.8,-8,-2.4,-16.7,.8,-22.8c3.3,-6.1,5.8,-10.6,2.9,-18.9c-2.9,-8.4,.1,-13.8,2.9,-23.1c2.9,-9.2,7.1,-16.7,3.3,-24.1c-3.9,-7.4,-5.4,-13.9,-5.8,-18.7C771,148,774.8,134.4,756.4,137c-9.9,1.4,-.3,1.4,-6.2,4.3Z" class="g4"/>
<path d="M773.9,145.3c0,0,4.4,16.4,-2.8,26.1c-7,9.6,-14.4,14.9,-12.7,22.8c1.7,8,4.5,17.4,1.6,23.9c-3,6.4,-5.9,8,-1.4,15.7c4.4,7.6,3.6,15.3,1,22.1c-2.6,6.8,-4,14.2,-.5,20.6c0,0,-8,-5.5,-6.1,-13.6c1.8,-8,2.4,-16.7,-.9,-22.8c-3.2,-6.1,-5.7,-10.6,-2.8,-18.9c2.9,-8.4,-.1,-13.8,-2.9,-23.1c-2.9,-9.2,-7.1,-16.7,-3.3,-24.1c3.9,-7.4,5.4,-13.9,5.8,-18.7c.7,-7.3,-3.1,-20.9,15.3,-18.3c9.9,1.4,3.8,5.4,9.7,8.3Z" class="g4"/>
<path d="M754.5,174c2.4,-10,-13,-18.4,-3,-38.2c4.7,-9.4,15.3,-11.9,18.1,12.1c2.4,20.9,-10.8,41.8,-4.9,73.6c1.9,9.8,5.1,25.6,2.5,33.6c-2.6,8.1,-4,16.8,-.5,24.3c0,0,-12.9,-5.8,-10.2,-15.1c9.9,-34.7,-2.9,-15.5,-2.2,-42.4c.2,-9.8,-5.4,-15.5,-6.2,-21.9c-1.8,-14.8,7.1,-15.2,6.4,-26Z" class="g5"/>
<path d="M778.8,174c-2.4,-10,8,-17.7,-2,-37.5c-4.8,-9.4,-26,-15.2,-28.8,8.8c-2.5,20.9,32.9,44.2,16.3,79.8c-4.3,9,-.8,22,1.8,30c2.6,8.1,4,16.8,.5,24.3c0,0,12.9,-5.8,10.2,-15.1c-9.9,-34.7,2.9,-15.5,2.2,-42.4c-.2,-9.8,5.4,-15.5,6.2,-21.9c1.8,-14.8,-7.1,-15.2,-6.4,-26Z" class="g6"/>
<path d="M689.2,204.4c2.8,-8.3,20.2,-3,25.6,-6.6c11.9,-7.7,18.6,-3.4,20.5,-9.2c2,-5.8,-9.7,-23.2,-13.4,-30.1c-4.2,-7.8,-10.8,-24.1,-21.6,-24.1c-8.3,0,-14.8,3.5,-25.3,16.8c-7.3,9.3,-17,44.6,-18.8,55c-3.1,7.4,-18.6,20.5,-19.2,37.9c.5,34.4,1.2,20.9,23.1,42c2.2,1.9,5.3,1,9.1,0c4.5,-1.2,10,-2.4,16.2,1.4c0,0,1.1,-.6,1.5,-1.3c.7,-.2,1.6,-1.3,1.6,-1.3c-1.4,-6.5,20.6,-6.3,17.4,-11.3c-4.8,-10.2,.3,-20.8,-5.8,-35.7C696.5,232.2,686,210.6,689.2,204.4Z" class="g7"/>
<path d="M772,108.6c0,0,-13.5,-1.9,-26.4,2.9c-11.4,4.2,-15.2,5.2,-22.8,14.6c-7,8.6,-1.3,-8.1,4.4,-15.1c5.6,-7,20.2,-14.4,24,-16.7c12.9,-7.9,22.7,-3.8,25.1,4.6c2.6,8.7,4.1,5.8,-4.3,9.7Z" class="g6"/>
<path d="M724.8,140.3c0,0,-7.7,9.9,-15.2,9.3c-7.5,-.7,9.8,23.7,11.6,20.7c2.3,-4,9.9,-9,15.5,-10.3c0,0,-6.7,-10.5,-11.9,-19.7Z" class="g7"/>
<path d="M720.5,51.2c1,-.7,2.5,-1.2,3.7,-1.7c7,-2.8,26.5,-1.5,43.2,-1.1c15.8,.5,30.3,0,30.3,0l2.5,11.8c0,0,-14.8,-1.8,-37.5,.8c-21.4,2.5,-34.7,3.9,-45.5,3.4c-3.9,-1.1,.7,-11.6,3.3,-13.2Z" class="g7"/>
<path d="M719.4,52.5c2.4,-3.9,14.8,2.6,11.8,9.7c-9.1,16.8,-20.7,88.5,-39.7,83c0,0,-21.6,13.3,-12.9,-5.3c2.2,-4.6,17.8,-40.5,23.6,-53.7C705.4,79,717,57.6,719.4,52.5Z" class="g7"/>
<path d="M785.2,59.6c0,0,9.4,-.3,13.4,1.3c3.2,1.2,4.7,1,10.6,2.1c6.3,1.2,6.5,1.8,8.5,2.8c1.9,1,4.9,-2.1,-.4,-4.7c-5.3,-2.6,-6.6,-2.5,-6.6,-2.5c0,0,8.8,.1,13.4,.1c4.6,0,8.5,.5,8.2,-1.7c-.1,-1.2,-1.7,-2,-7.9,-2.3C818.2,54.4,811.2,54,811.2,54c0,0,23.6,.7,23.6,-2c0,-1.7,-1.8,-2.5,-9.1,-2.4c-7.4,.1,-14.4,.5,-14.4,.5c0,0,19.6,-2.1,21.1,-2.2c2,-.2,3.2,-3.9,-4.4,-3.1c-7.6,.9,-17.6,1.9,-17.6,1.9c0,0,17.1,-2.5,17,-4.7c0,-2.8,-8.7,-.3,-18.5,1.5c-9.7,1.7,-9.3,2.5,-11.8,3.9c-2.4,1.3,-12.5,2.1,-12.5,2.1l.6,10.1Z" class="g7"/>
<path d="M812.6,212.8c1.1,-.4,2.4,-1.5,3.4,-2.2c6,-4.6,15.1,-21.9,23.4,-36.4c7.9,-13.7,15.8,-25.8,15.8,-25.8l-8.7,-8.3c0,0,-6.2,13.5,-20.2,31.6c-13.3,17,-21.5,27.6,-26.7,37c-1.1,3.9,10.3,5.5,13,4.1Z" class="g7"/>
<path d="M810.9,213.1c4.6,-.1,5.5,-14,-2.1,-15.1c-19.1,-1,-86.2,-28.6,-91.5,-9.4c0,0,-22.5,11.4,-2.2,13.7c5.1,.6,43.8,5.9,58.2,7.9c7.7,1,32,2.3,37.6,2.9Z" class="g7"/>
<path d="M839.2,153.2c0,0,5.1,-7.9,5.9,-12.1c.6,-3.4,1.6,-4.6,3.7,-10.1c2.3,-6.1,1.9,-6.6,2.1,-8.7c.1,-2.2,4.3,-3.2,3.8,2.7c-.6,5.9,-1.3,7,-1.3,7c0,0,4.4,-7.6,6.8,-11.5c2.4,-4,4,-7.6,5.8,-6.2c.9,.8,.8,2.5,-2.2,8c-3,5.4,-6.2,11.6,-6.2,11.6c0,0,11.7,-20.4,14,-19.1c1.4,.9,1.2,2.8,-2.8,9.1c-3.9,6.2,-7.9,12,-7.9,12c0,0,12,-15.6,12.9,-16.9c1.3,-1.6,5,-.7,.3,5.4c-4.7,6,-10.8,14,-10.8,14c0,0,11.1,-13.3,12.9,-12.1c2.4,1.6,-4.3,7.7,-10.9,15c-6.5,7.4,-7.1,6.7,-9.5,8.1c-2.4,1.4,-8.3,9.7,-8.3,9.7l-8.3,-5.9Z" class="g7"/>
<path d="M706.8,134.4c.2,.3,-16.4,15.8,-31.8,16.8c0,0,-6.1,6.9,-10.5,13.1C655.6,176.1,651,195,647.6,205.1c-5.1,11.4,-10.4,31.1,-10.1,31.4c0,.5,18.5,1.9,61.7,-1.5c-.6,.5,-4.7,-15.4,-3.6,-17.3c1.8,-8.5,8.5,-12.7,12.5,-16.1c2.9,-2.5,6.4,-3.3,6.5,-3.4c0,0,2.2,-15.4,21.1,-15.5c0,0,-2.2,-3.5,-3.2,-5.2c-.1,-.3,-2.4,.7,-5.7,1.7c-7.2,2,-19.8,4.1,-28.8,-5.5c-14.7,-16.6,-3.7,-24.6,12.4,-34.4c-1.2,-1.6,-2.4,-3.3,-3.6,-4.9Z" class="g8"/>
<path d="M675.7,188.6c-2.8,0,-5.9,-.8,-8.8,-2.4c-6.2,-3.5,-8.7,-11.1,-5.2,-17.5c-2,6.1,.6,12.6,6.2,15.9c3.1,1.8,6.4,2.7,9.4,2.7c2.6,0,5,-.6,6.9,-1.6c-2.1,1.9,-5.2,2.9,-8.5,2.9Z" class="g9"/>
<path d="M702.1,203.8c-3.1,0,-6.9,-1,-10.7,-3.2c-6.1,-3.4,-9.2,-9.7,-6.8,-14.6c-1.1,4.8,2,10.2,7.5,13.5c4,2.4,8.2,3.6,11.4,3.6c1.2,0,2.3,-.2,3.1,-.5c-1,.8,-2.6,1.2,-4.5,1.2Z" class="g9"/>
<path d="M725.8,112.8c0,0,-14.1,17.8,-4.4,35L724,155l13.5,-44.6l-11.7,2.4Z" class="g6"/>
<path d="M760.1,172.5c0,0,-23,2.7,-31.1,-12.2l-5.3,-5.7l45.8,8.7l-9.4,9.2Z" class="g6"/>
<path d="M775,163.4c-18.6,11.2,-41.7,7.2,-51.5,-9.1c-9.8,-16.2,-2.7,-38.5,15.9,-49.8C758,93.3,781,97.3,790.9,113.6c9.8,16.2,2.7,38.5,-15.9,49.8Z" class="g7"/>
<path d="M766.1,104.2c0,0,8.6,5.5,7.1,17.3c-3.1,23.9,6.1,36.3,-16.6,46.4c-6.1,2.7,-9.6,5.7,3.5,4.6c9,-.7,26,-12,29.8,-14.2c12.9,-7.8,22.3,-35,-.6,-55.6c-6.7,-6,-10.9,-9.9,-23.2,1.5Z" class="g6"/>
<path d="M768.8,110.2c0,0,-29.6,14.9,-41.7,4.1c0,0,8.3,-17.1,30.1,-21c17.8,-3.2,21.6,9.8,21.6,9.8c0,0,18.1,1.7,20.4,23.3c3.1,28.2,-30.2,45.4,-30.2,45.4c0,0,-29.7,-32,-.2,-61.6Z" class="g6"/>
<path d="M769.3,110.5l4.7,-3.3c-10.2,12.1,-15.1,25,-14.7,38.2c.2,5.8,1.5,10.9,3,15.1c-6.2,-11.7,-11.5,-31.4,7,-50Zm-40.8,4c13.5,1.5,33.1,-3.7,42.3,-6.4l-2.2,1.6c-1.6,.7,-28.3,13.6,-40.1,4.8ZM757.2,93.9c12.1,-2.2,17.6,3.5,19.7,7.1l.3,.4l.5,1.6l-.2,.2l-.6,-1v.5c-1.9,-2,-7.1,-6,-16.2,-5.5c-9.2,.5,-19.8,5.4,-31.4,14.7c3.2,-4.8,11.8,-15.1,27.9,-18Zm10,35.9c-2.5,9.9,-4.4,23.1,-1.7,34.5c-5.2,-10.9,-10.3,-31.6,8.2,-54.9c-1.7,4.2,-4.4,11.7,-6.5,20.4Zm9.7,-23.7c-.5,18.7,-6.4,53.5,-8.1,63.2c-9.5,-22.9,5.9,-59,7.6,-63l.5,-.2Zm-6.5,62c1.8,-10.6,7.1,-41.7,7.9,-60.1c1.2,2.8,2.8,8,3.3,15.1c.7,9.9,-.7,25.4,-11.2,45Zm12.1,-61.5c2.7,2.2,6.3,5.5,9,9.9c6.3,10.6,8.1,27.7,-17.7,50.6c2.8,-3.7,6.6,-9.1,9.7,-15.5c5.3,-11.1,9.7,-27.4,.4,-42.8c-.4,-.7,-.9,-1.5,-1.4,-2.2Zm-4.3,-2.4l.3,-.2c1.6,1.8,2.9,3.7,4.1,5.6c9.1,15,4.8,31,-.4,41.8c-3.2,6.5,-7,12,-9.8,15.5c10,-19.2,11.4,-34.5,10.7,-44.2c-.6,-9.2,-3.2,-15.2,-4.3,-17.4l.3,.1l-.9,-1.2Zm-1.4,1.2l.1,-.1v.1h-.1ZM760.4,98.5c7.4,-.4,12.1,2.4,14.5,4.4c-11.3,-2.4,-23,.2,-31.1,3c-4.2,1.4,-7.8,3,-10.5,4.3c10,-7.4,19.1,-11.3,27.1,-11.7Zm12.9,7.6c-7.2,2.3,-28,8.3,-42.5,7.3c7.8,-2.4,29.7,-8.6,42.5,-7.3Zm-39.9,5.3c8.6,-4.1,26.3,-11.1,42.5,-6.9l-.8,.6c-11.8,-1.9,-32,3.4,-41.7,6.3Zm65.1,15.3c1.3,11.5,-3.4,22.4,-13.7,32.6c-3.3,3.3,-6.7,6,-9.6,8c26,-23.3,24.1,-40.8,17.6,-51.6c-3.1,-5.1,-7.3,-8.8,-10.2,-10.9c3.5,1.2,8.6,3.9,12,9.7c2.1,3.4,3.4,7.5,3.9,12.2ZM785.8,160c7.3,-7.3,15.8,-19,14.2,-33.8c-.6,-4.8,-1.9,-9,-4,-12.5c-5.6,-9.2,-15.8,-13.3,-17.7,-13.5c-.2,-.4,.6,1.1,0,0c-2.3,-3.8,-8.1,-9.8,-21,-7.5c-22.1,3.9,-30.8,21.4,-30.8,21.6l-.2,.3l.2,.2c5.1,4.6,14.1,5.3,26,2.1c5.8,-1.6,10.9,-3.7,13.9,-5C748,132.3,756,153.3,762.6,164.3c3,4.9,5.8,7.9,5.8,7.9l.3,.4l.5,-.3c.4,-.2,8.6,-4.5,16.6,-12.3Z" class="g4"/>
<path d="M595.7,396.6c-1.4,1,-2.7,2.7,-3.7,4c-6.4,7.8,-14.6,34.5,-17.8,53.2c-3.3,18.7,-13,44.8,-13,44.8l15.3,6.2c0,0,8,-30.3,18.5,-53c12.8,-27.6,13.5,-34.4,16.6,-48.3c-.3,-5.4,-12.8,-9.6,-15.9,-6.9Z" class="g7"/>
<path d="M592.7,399.7c-1.5,5.9,14.8,12.8,18.9,3.7c6.6,-19.3,35,-81.9,40.4,-101.7c0,0,-20.1,-41.2,-33.1,-17.5c-8.7,15.9,-16.3,60.2,-21.6,80.4c-2.4,9.2,-4.4,27.5,-4.6,35.1Z" class="g7"/>
<path d="M672.3,301.6l-1.2,-51.8H634.9c-7.2,12.6,-14.5,26.4,-19.2,41.5c-7.4,19.4,-13.7,55.6,-18.4,73.3c-2.4,9.2,-3.8,26.7,-6.4,34.7c-2.6,8,-12.7,25.9,-16.7,54.5c-1.4,9.5,-5,20.7,-7.8,29.6l14.9,5.1c3.3,-10.6,8.2,-24.7,13.7,-36.7c12.8,-27.6,13.5,-34.4,16.6,-48.3v-.1c6.1,-17.9,32.5,-71.1,40.4,-94.9c5.1,-9.3,20.2,-7,20.3,-6.9Z" class="ga"/>
<path fill-rule="evenodd" d="M560.7,498.8l2,-6.4l16.7,3.3l-1.3,6.6c0,0,-16,2.6,-17.4,-3.5Z" class="gb"/>
<path d="M553.9,516.9c0,0,-.9,6.3,-.1,9.4c.8,3.1,2.8,9,15.5,8.4l.1,-2.8c0,0,-15.5,-14.5,-15.5,-15Z" class="gc"/>
<path d="M583.6,516.9c0,0,.9,6.3,.1,9.4c-.8,3.1,-2.8,9,-15.4,8.4l-.2,-2.8c0,0,15.5,-14.5,15.5,-15Z" class="gc"/>
<path fill-rule="evenodd" d="M559.5,499.2c0,0,8.7,-2.8,18,-.1c0,0,-1.4,5.6,-2.8,6.8c-1.4,1.2,-10.3,2.1,-10.6,2.1c-.2,-.1,-4.6,-8.8,-4.6,-8.8Z" class="gd"/>
<path fill-rule="evenodd" d="M579.9,502.2c.1,-10.8,-4.3,-2.3,-4.7,-1.4c-.6,1.6,-12.3,1.6,-12.9,0c-.3,-.9,-4.1,-10.4,-4.9,1.8c0,0,-4,16.3,-3.2,21.3c1.9,7.6,3.2,8.5,14.6,8.5c11.4,0,13.5,-1.4,14.5,-8.5c.9,-5,-3.4,-21.7,-3.4,-21.7Z" class="ge"/>
<path fill-rule="evenodd" d="M573.3,532.2c0,1.1,-1.6,1.1,-3.6,1.1c-2,0,-3.6,0,-3.6,-1.1c0,-1.1,1.6,-2.1,3.6,-2.1c2,0,3.6,1,3.6,2.1Z" class="gc"/>
<path fill-rule="evenodd" d="M583.3,523.9c.3,-1.5,.1,-4,-.3,-6.9c-.7,-.3,-1.4,-.6,-2,-.9c-3.6,-1.5,-10.2,-5.8,-7.7,1.4c0,0,8.9,4.8,6.1,13.6c2.5,-1.2,3.4,-3.3,3.9,-7.2Z" class="gf"/>
<path fill-rule="evenodd" d="M554.6,516.3c2.7,-5.7,8.5,-7,8.5,-7l-.2,-2.4c-3.1,.4,-5.6,2.7,-7.4,4.9c2.3,-5.6,7.4,-6.4,7.4,-6.4l-.2,-2.8c-2.8,1,-4.9,2.7,-6.3,4.3c-.6,2.6,-1.3,6.1,-1.8,9.4Z" class="gf"/>
<path fill-rule="evenodd" d="M574.7,505.4c0,0,5,.8,7.3,6.4c-1.7,-2.2,-4.2,-4.5,-7.4,-4.9l-.1,2.4c0,0,5.6,1.2,8.3,6.8c-.5,-3.3,-1.2,-6.7,-1.8,-9.4c-1.4,-1.5,-3.5,-3.2,-6.2,-4.1l-.1,2.8Z" class="gf"/>
<path fill-rule="evenodd" d="M564.3,517.5c3.7,-8.2,-4.1,-2.9,-7.7,-1.4c-.7,.3,-1.4,.6,-2.1,.9c-.4,2.9,-.5,5.4,-.3,6.9c1,4,1.8,6.1,4,7.2c-4.1,-9.2,6.1,-13.6,6.1,-13.6Z" class="gf"/>
<path d="M563.3,499.8c0,0,1.5,19.5,3.8,21.7c2.2,2.2,4.1,-.3,5.6,-7.5c1.4,-7.1,2.6,-14.5,2.6,-14.5c0,0,.8,-2.6,-3.1,-3.5c-4.4,-1.1,-10.3,.5,-8.9,3.8Z" class="ge"/>
<path fill-rule="evenodd" d="M566.2,501.7c0,0,-.5,-1.2,-3.5,-.9c0,0,.1,12.1,1.6,16.7c1.4,4.5,2.1,6.7,5.7,6.3c3.7,-.4,4.6,-6.6,5.5,-11.6c1,-5.1,1.1,-11.1,1.1,-11.1c0,0,-2.4,-.8,-3.9,.6c0,0,-.6,20.4,-3.3,20.9c-2.6,.4,-3.7,-16.3,-3.2,-20.9Z" class="gg"/>
<path fill-rule="evenodd" d="M572.6,504.4c.5,.2,1.2,.1,1.5,-.2c.3,-.3,.1,-.7,-.4,-.9c-.5,-.2,-1.2,-.1,-1.5,.3c-.3,.3,-.2,.7,.4,.8Z" class="gb"/>
<path fill-rule="evenodd" d="M572.7,504.3c.4,.2,.9,.1,1.2,-.2c.2,-.2,.1,-.5,-.3,-.7c-.5,-.1,-1,0,-1.2,.2c-.3,.3,-.1,.6,.3,.7Z" class="gh"/>
<path fill-rule="evenodd" d="M572.1,508.9c.4,.2,1.1,.1,1.5,-.2c.4,-.2,.3,-.6,-.2,-.9c-.5,-.2,-1.2,-.1,-1.6,.2c-.3,.3,-.2,.7,.3,.9Z" class="gb"/>
<path fill-rule="evenodd" d="M572.2,508.8c.4,.1,.9,.1,1.2,-.1c.3,-.3,.2,-.6,-.2,-.7c-.4,-.2,-.9,-.2,-1.2,.1c-.3,.2,-.2,.5,.2,.7Z" class="gh"/>
<path fill-rule="evenodd" d="M571.1,513.2c.5,.2,1.2,.2,1.6,-.1c.4,-.2,.4,-.6,0,-.9c-.5,-.2,-1.2,-.2,-1.6,.1c-.4,.2,-.4,.6,0,.9Z" class="gb"/>
<path fill-rule="evenodd" d="M571.3,513.1c.4,.2,.9,.2,1.2,0c.4,-.3,.4,-.6,0,-.8c-.3,-.2,-.9,-.2,-1.2,.1c-.4,.2,-.3,.5,0,.7Z" class="gh"/>
<path fill-rule="evenodd" d="M570.8,517.5c.3,.3,1,.3,1.5,.1c.5,-.2,.6,-.6,.3,-.9c-.4,-.3,-1.1,-.3,-1.6,-.1c-.5,.2,-.6,.6,-.2,.9Z" class="gb"/>
<path fill-rule="evenodd" d="M571,517.4c.2,.2,.8,.3,1.2,.1c.4,-.2,.5,-.5,.2,-.7c-.3,-.2,-.9,-.3,-1.3,-.1c-.4,.2,-.4,.5,-.1,.7Z" class="gh"/>
<path fill-rule="evenodd" d="M572.5,506.5c.5,.2,1.2,0,1.5,-.3c.3,-.3,.2,-.7,-.4,-.8c-.5,-.2,-1.2,-.1,-1.5,.2c-.3,.3,-.1,.7,.4,.9Z" class="gb"/>
<path fill-rule="evenodd" d="M572.6,506.4c.4,.1,1,0,1.2,-.2c.3,-.3,.1,-.6,-.3,-.7c-.4,-.2,-.9,-.1,-1.2,.2c-.2,.2,-.1,.5,.3,.7Z" class="gh"/>
<path fill-rule="evenodd" d="M571.8,511c.5,.2,1.2,.1,1.6,-.2c.3,-.3,.2,-.7,-.3,-.9c-.5,-.2,-1.2,-.1,-1.5,.2c-.4,.2,-.3,.6,.2,.9Z" class="gb"/>
<path fill-rule="evenodd" d="M571.9,510.9c.4,.1,1,.1,1.3,-.2c.3,-.2,.2,-.5,-.2,-.7c-.4,-.1,-.9,-.1,-1.2,.1c-.3,.3,-.2,.6,.1,.8Z" class="gh"/>
<path fill-rule="evenodd" d="M571,515.3c.5,.2,1.2,.2,1.6,-.1c.4,-.2,.4,-.6,-.1,-.9c-.4,-.2,-1.1,-.2,-1.5,0c-.5,.3,-.4,.7,0,1Z" class="gb"/>
<path fill-rule="evenodd" d="M571.2,515.2c.3,.2,.9,.1,1.2,-.1c.3,-.2,.3,-.5,0,-.7c-.4,-.2,-.9,-.2,-1.3,0c-.3,.2,-.3,.6,.1,.8Z" class="gh"/>
<path fill-rule="evenodd" d="M570,519.5c.4,.3,1.1,.4,1.6,.2c.5,-.3,.6,-.7,.2,-1c-.4,-.2,-1.1,-.3,-1.6,-.1c-.5,.2,-.6,.6,-.2,.9Z" class="gb"/>
<path fill-rule="evenodd" d="M570.2,519.4c.3,.3,.8,.3,1.2,.1c.4,-.1,.5,-.4,.2,-.7c-.3,-.2,-.8,-.2,-1.2,-.1c-.4,.2,-.5,.5,-.2,.7Z" class="gh"/>
<path fill-rule="evenodd" d="M565.4,504.4c-.5,.2,-1.2,.1,-1.5,-.2c-.3,-.3,-.1,-.7,.4,-.9c.5,-.2,1.2,-.1,1.5,.3c.3,.3,.2,.7,-.4,.8Z" class="gb"/>
<path fill-rule="evenodd" d="M565.3,504.3c-.4,.2,-.9,.1,-1.2,-.2c-.2,-.2,-.1,-.5,.3,-.7c.5,-.1,1,0,1.2,.2c.3,.3,.1,.6,-.3,.7Z" class="gh"/>
<path fill-rule="evenodd" d="M573.2,505.9c-.3,-.3,-.2,-.4,-1.8,0c-3,.7,-4.6,-1.2,-5.8,-2.3c0,0,-1.8,-.1,-1.2,.8c0,0,2.5,2.7,4.7,2.5h.1c.4,0,.9,0,1.7,-.1c2.5,-.3,2.5,-.7,2.3,-.9Z" class="gi"/>
<path fill-rule="evenodd" d="M566,508.9c-.5,.2,-1.2,.1,-1.6,-.2c-.4,-.2,-.3,-.6,.2,-.9c.5,-.2,1.2,-.1,1.6,.2c.4,.3,.2,.7,-.2,.9Z" class="gb"/>
<path fill-rule="evenodd" d="M565.8,508.8c-.4,.1,-.9,.1,-1.2,-.1c-.3,-.3,-.2,-.6,.2,-.7c.4,-.2,.9,-.2,1.2,.1c.3,.2,.2,.5,-.2,.7Z" class="gh"/>
<path fill-rule="evenodd" d="M572.6,510.4c-.2,-.2,-.2,-.5,-1.8,-.1c-.2,0,-.5,.1,-.8,.1c-2.3,-.4,-2.2,-1,-4,-2.3c0,0,-1.9,0,-1.1,.9c0,0,1,.8,2.3,1.4c.2,.5,.8,.9,2.9,.8c2.6,-.1,2.6,-.5,2.5,-.8Z" class="gi"/>
<path fill-rule="evenodd" d="M566.9,513.2c-.5,.2,-1.2,.2,-1.6,-.1c-.4,-.2,-.4,-.6,0,-.9c.5,-.2,1.2,-.2,1.6,.1c.4,.2,.4,.6,0,.9Z" class="gb"/>
<path fill-rule="evenodd" d="M566.7,513.1c-.4,.2,-.9,.2,-1.2,0c-.4,-.3,-.4,-.6,0,-.8c.3,-.2,.9,-.2,1.2,.1c.4,.2,.3,.5,0,.7Z" class="gh"/>
<path fill-rule="evenodd" d="M571.9,514.8c-.1,-.2,-.1,-.3,-.4,-.4l-.3,-.1c-2.5,-.2,-2.4,-.7,-4.5,-1.9c0,0,-1.8,.1,-.9,.9c0,0,.4,.3,1.1,.6c3.7,2.1,5.1,1.1,5,.9Z" class="gi"/>
<path fill-rule="evenodd" d="M567.2,517.5c-.3,.3,-1,.3,-1.5,.1c-.5,-.2,-.6,-.6,-.3,-.9c.4,-.3,1.1,-.3,1.6,-.1c.5,.2,.6,.6,.2,.9Z" class="gb"/>
<path fill-rule="evenodd" d="M567,517.4c-.2,.2,-.8,.3,-1.2,.1c-.4,-.2,-.5,-.5,-.2,-.7c.3,-.2,.9,-.3,1.3,-.1c.4,.2,.4,.5,.1,.7Z" class="gh"/>
<path fill-rule="evenodd" d="M571,518.6c-2,-.3,-1.8,-.8,-4.1,-1.9c0,0,-1.8,.3,-.7,1c0,0,2.5,1.7,4.5,1.7c.2,0,.4,0,.6,-.1c0,0,.6,-.5,-.3,-.7Z" class="gi"/>
<path fill-rule="evenodd" d="M565.5,506.5c-.5,.2,-1.2,0,-1.5,-.3c-.3,-.3,-.2,-.7,.4,-.8c.5,-.2,1.2,-.1,1.5,.2c.3,.3,.1,.7,-.4,.9Z" class="gb"/>
<path fill-rule="evenodd" d="M565.4,506.4c-.4,.1,-1,0,-1.2,-.2c-.3,-.3,-.1,-.6,.3,-.7c.4,-.2,.9,-.1,1.2,.2c.2,.2,.1,.5,-.3,.7Z" class="gh"/>
<path fill-rule="evenodd" d="M572.4,503.6c-1.2,1.1,-1.4,1.7,-2.3,2.1c-.8,.5,-1.7,.7,-3.5,.2c-1.5,-.5,-1.5,-.3,-1.8,0c-.2,.2,-.2,.5,2.3,.9c4.3,.7,6.5,-2.4,6.5,-2.4c.6,-.9,-1.2,-.8,-1.2,-.8Z" class="gb"/>
<path fill-rule="evenodd" d="M566.2,511c-.5,.2,-1.2,.1,-1.6,-.2c-.3,-.3,-.2,-.7,.3,-.9c.5,-.2,1.2,-.1,1.5,.2c.4,.2,.3,.6,-.2,.9Z" class="gb"/>
<path fill-rule="evenodd" d="M566.1,510.9c-.4,.1,-1,.1,-1.3,-.2c-.3,-.2,-.2,-.5,.2,-.7c.4,-.1,1,-.1,1.2,.1c.3,.3,.2,.6,-.1,.8Z" class="gh"/>
<path d="M573.1,509c.8,-.9,-1.1,-.9,-1.1,-.9c-1.8,1.3,-1.3,1.8,-3.8,2.3c-.5,0,-.8,-.1,-1,-.1c-1.6,-.4,-1.6,-.1,-1.8,.1c-.1,.3,-.1,.7,2.5,.8c3.4,.2,5.2,-2.2,5.2,-2.2Z" class="gb"/>
<path d="M571.6,510.1v.1v-.1Z" class="gb"/>
<path fill-rule="evenodd" d="M567,515.3c-.4,.2,-1.2,.2,-1.6,-.1c-.4,-.2,-.4,-.6,.1,-.9c.4,-.2,1.1,-.2,1.5,0c.5,.3,.4,.7,0,1Z" class="gb"/>
<path fill-rule="evenodd" d="M566.8,515.2c-.3,.2,-.9,.1,-1.2,-.1c-.3,-.2,-.3,-.5,0,-.7c.4,-.2,.9,-.2,1.3,0c.3,.2,.3,.6,-.1,.8Z" class="gh"/>
<path fill-rule="evenodd" d="M571.3,512.4c-2.1,1.2,-2,1.7,-4.5,1.9l-.3,.1c-.3,.1,-.3,.2,-.4,.4c-.1,.2,1,.7,5,-.9c.7,-.3,1.1,-.6,1.1,-.6c.9,-.8,-.9,-.9,-.9,-.9Z" class="gb"/>
<path fill-rule="evenodd" d="M568,519.5c-.4,.3,-1.1,.4,-1.6,.2c-.5,-.3,-.6,-.7,-.2,-1c.4,-.2,1.1,-.3,1.6,-.1c.5,.2,.6,.6,.2,.9Z" class="gb"/>
<path fill-rule="evenodd" d="M567.8,519.4c-.3,.3,-.8,.3,-1.2,.1c-.4,-.1,-.5,-.4,-.2,-.7c.3,-.2,.8,-.2,1.2,-.1c.4,.2,.5,.5,.2,.7Z" class="gh"/>
<path fill-rule="evenodd" d="M571.1,516.7c-2,1.5,-4.3,2.2,-4.1,2.2v.3c0,.2,.2,.9,4.6,-1.4l.2,-.1c1.1,-.7,-.7,-1,-.7,-1Z" class="gb"/>
<path fill-rule="evenodd" d="M569.5,503.2c0,0,11.1,-.4,9.7,-6.3c-1.4,-5.8,-8.4,3.2,-9.8,5.7l.7,.1c0,0,4.1,-6,6.5,-6.2c2.4,-.1,1.9,1.8,1.1,2.5c-.7,.6,-2.8,2.6,-6.5,3.8c-.2,.1,-1.1,-.3,-1.3,-.2c-.3,.1,-.1,.6,-.4,.6Z" class="gi"/>
<path fill-rule="evenodd" d="M570.1,501.9c0,0,-3.3,-6.8,-7.7,-6.4c-4.3,.5,-4.5,3.8,1.7,6q6.2,2.2,6.2,2.2l.1,-1c0,0,-4.6,-1.3,-6.6,-2.6c-2.1,-1.2,-4.2,-2.7,-2.3,-3.1c1.9,-.4,3.4,-.4,5.8,2.4c1.2,1.3,2,2.8,2.5,3.4c.5,.6,.9,.2,.9,.2l-.6,-1.1Z" class="gi"/>
<path fill-rule="evenodd" d="M569.4,503.8c0,0,-.4,1.1,-2.2,3.4c-1.9,2.2,-1.7,6,-1.5,6.1c.2,.2,-.3,.8,-.3,.8c0,0,-.7,0,-1.1,-1.2c-.4,-1.2,-1.1,-3.6,2,-6.3c3.1,-2.8,3.5,-4.1,3.5,-4.1c0,0,1.3,-.2,-.4,1.3Z" class="gj"/>
<path fill-rule="evenodd" d="M569.7,502.3c0,0,1.2,4,1.4,6.3c.3,2.3,2.1,5.4,1.9,6.7c-.2,1.2,.8,1.1,.8,1.1c0,0,.7,-.6,-1.1,-4.8c-1.8,-4.2,-1.3,-5.9,-1.7,-7.2c-.5,-1.5,-.5,-2,-1.3,-2.1Z" class="gj"/>
<path d="M742.1,396.6c1.3,1,2.7,2.7,3.7,4c6.4,7.8,14.5,34.5,17.8,53.2c3.3,18.7,13,44.8,13,44.8l-15.3,6.2c0,0,-8,-30.3,-18.6,-53C730,424.2,729.2,417.4,726.2,403.5c.3,-5.4,12.8,-9.6,15.9,-6.9Z" class="g7"/>
<path d="M745.1,399.7c1.5,5.9,-14.8,12.8,-18.9,3.7c-6.6,-19.3,-35,-81.9,-40.4,-101.7c0,0,20.1,-41.2,33.1,-17.5c8.7,15.9,16.2,60.2,21.5,80.4c2.5,9.2,4.5,27.5,4.7,35.1Z" class="g7"/>
<path d="M666.8,301.2l-.1,-51.4h36.2c7.2,12.6,14.5,26.4,19.2,41.5c7.3,19.4,13.7,55.6,18.3,73.3c2.5,9.2,3.8,26.7,6.5,34.7c2.6,8,12.7,25.9,16.7,54.5c1.4,9.5,4.9,20.7,7.8,29.6l-14.9,5.1c-3.3,-10.6,-8.2,-24.7,-13.8,-36.7C730,424.2,729.2,417.4,726.2,403.5v-.1c-6.1,-17.9,-32.5,-71.1,-40.4,-94.9c-1.9,-7.3,-19.8,-7.5,-19,-7.3Z" class="ga"/>
<path fill-rule="evenodd" d="M777.1,498.8l-2,-6.4l-16.8,3.3l1.4,6.6c0,0,16,2.6,17.4,-3.5Z" class="gb"/>
<path d="M783.8,516.9c0,0,1,6.3,.2,9.4c-.8,3.1,-2.9,9,-15.5,8.4l-.2,-2.8c0,0,15.6,-14.5,15.5,-15Z" class="gc"/>
<path d="M754.2,516.9c0,0,-.9,6.3,-.1,9.4c.8,3.1,2.8,9,15.4,8.4l.2,-2.8c0,0,-15.5,-14.5,-15.5,-15Z" class="gc"/>
<path fill-rule="evenodd" d="M778.3,499.2c0,0,-8.8,-2.8,-18,-.1c0,0,1.3,5.6,2.8,6.8c1.4,1.2,10.3,2.1,10.5,2.1c.3,-.1,4.7,-8.8,4.7,-8.8Z" class="gd"/>
<path fill-rule="evenodd" d="M757.9,502.2c-.1,-10.8,4.3,-2.3,4.7,-1.4c.6,1.6,12.2,1.6,12.9,0c.3,-.9,4.1,-10.4,4.9,1.8c0,0,4,16.3,3.2,21.3c-1.9,7.6,-3.2,8.5,-14.6,8.5c-11.4,0,-13.6,-1.4,-14.6,-8.5c-.8,-5,3.5,-21.7,3.5,-21.7Z" class="ge"/>
<path fill-rule="evenodd" d="M764.5,532.2c0,1.1,1.6,1.1,3.6,1.1c1.9,0,3.6,0,3.6,-1.1c0,-1.1,-1.7,-2.1,-3.6,-2.1c-2,0,-3.6,1,-3.6,2.1Z" class="gc"/>
<path fill-rule="evenodd" d="M754.4,523.9c-.2,-1.5,0,-4,.4,-6.9c.7,-.3,1.4,-.6,2,-.9c3.6,-1.5,10.1,-5.8,7.7,1.4c0,0,-8.9,4.8,-6.1,13.6c-2.5,-1.2,-3.4,-3.3,-4,-7.2Z" class="gf"/>
<path fill-rule="evenodd" d="M783.1,516.3c-2.6,-5.7,-8.4,-7,-8.4,-7l.2,-2.4c3.1,.4,5.6,2.7,7.4,4.9c-2.3,-5.6,-7.4,-6.4,-7.4,-6.4l.2,-2.8c2.8,1,4.9,2.7,6.3,4.3c.6,2.6,1.3,6.1,1.7,9.4Z" class="gf"/>
<path fill-rule="evenodd" d="M763.1,505.4c0,0,-5,.8,-7.3,6.4c1.7,-2.2,4.2,-4.5,7.4,-4.9l.1,2.4c0,0,-5.7,1.2,-8.3,6.8c.5,-3.3,1.2,-6.7,1.8,-9.4c1.4,-1.5,3.5,-3.2,6.1,-4.1l.2,2.8Z" class="gf"/>
<path fill-rule="evenodd" d="M773.5,517.5c-3.7,-8.2,4.1,-2.9,7.7,-1.4c.7,.3,1.4,.6,2.1,.9c.3,2.9,.5,5.4,.3,6.9c-1,4,-1.8,6.1,-4,7.2c4.1,-9.2,-6.1,-13.6,-6.1,-13.6Z" class="gf"/>
<path d="M774.4,499.8c0,0,-1.5,19.5,-3.7,21.7c-2.3,2.2,-4.1,-.3,-5.6,-7.5c-1.4,-7.1,-2.7,-14.5,-2.7,-14.5c0,0,-.8,-2.6,3.2,-3.5c4.3,-1.1,10.3,.5,8.8,3.8Z" class="ge"/>
<path fill-rule="evenodd" d="M771.5,501.7c0,0,.5,-1.2,3.6,-.9c0,0,-.2,12.1,-1.6,16.7c-1.4,4.5,-2.1,6.7,-5.7,6.3c-3.7,-.4,-4.6,-6.6,-5.6,-11.6c-.9,-5.1,-1,-11.1,-1,-11.1c0,0,2.4,-.8,3.9,.6c0,0,.6,20.4,3.2,20.9c2.7,.4,3.8,-16.3,3.2,-20.9Z" class="gg"/>
<path fill-rule="evenodd" d="M765.2,504.4c-.5,.2,-1.2,.1,-1.5,-.2c-.3,-.3,-.1,-.7,.4,-.9c.5,-.2,1.2,-.1,1.5,.3c.3,.3,.1,.7,-.4,.8Z" class="gb"/>
<path fill-rule="evenodd" d="M765.1,504.3c-.4,.2,-1,.1,-1.2,-.2c-.3,-.2,-.1,-.5,.3,-.7c.4,-.1,1,0,1.2,.2c.3,.3,.1,.6,-.3,.7Z" class="gh"/>
<path fill-rule="evenodd" d="M765.7,508.9c-.5,.2,-1.2,.1,-1.5,-.2c-.4,-.2,-.3,-.6,.2,-.9c.5,-.2,1.2,-.1,1.6,.2c.3,.3,.2,.7,-.3,.9Z" class="gb"/>
<path fill-rule="evenodd" d="M765.6,508.8c-.4,.1,-1,.1,-1.2,-.1c-.3,-.3,-.2,-.6,.1,-.7c.4,-.2,1,-.2,1.3,.1c.3,.2,.2,.5,-.2,.7Z" class="gh"/>
<path fill-rule="evenodd" d="M766.6,513.2c-.4,.2,-1.1,.2,-1.5,-.1c-.5,-.2,-.4,-.6,0,-.9c.5,-.2,1.2,-.2,1.6,.1c.4,.2,.4,.6,-.1,.9Z" class="gb"/>
<path fill-rule="evenodd" d="M766.5,513.1c-.4,.2,-.9,.2,-1.3,0c-.3,-.3,-.3,-.6,.1,-.8c.3,-.2,.9,-.2,1.2,.1c.3,.2,.3,.5,0,.7Z" class="gh"/>
<path fill-rule="evenodd" d="M767,517.5c-.4,.3,-1.1,.3,-1.6,.1c-.4,-.2,-.5,-.6,-.2,-.9c.4,-.3,1.1,-.3,1.6,-.1c.5,.2,.6,.6,.2,.9Z" class="gb"/>
<path fill-rule="evenodd" d="M766.8,517.4c-.3,.2,-.8,.3,-1.2,.1c-.4,-.2,-.5,-.5,-.2,-.7c.3,-.2,.9,-.3,1.2,-.1c.4,.2,.5,.5,.2,.7Z" class="gh"/>
<path fill-rule="evenodd" d="M765.3,506.5c-.6,.2,-1.2,0,-1.6,-.3c-.3,-.3,-.1,-.7,.5,-.8c.5,-.2,1.2,-.1,1.5,.2c.3,.3,.1,.7,-.4,.9Z" class="gb"/>
<path fill-rule="evenodd" d="M765.2,506.4c-.5,.1,-1,0,-1.3,-.2c-.2,-.3,-.1,-.6,.4,-.7c.4,-.2,.9,-.1,1.2,.2c.2,.2,.1,.5,-.3,.7Z" class="gh"/>
<path fill-rule="evenodd" d="M766,511c-.5,.2,-1.2,.1,-1.6,-.2c-.3,-.3,-.2,-.7,.2,-.9c.5,-.2,1.2,-.1,1.6,.2c.4,.2,.3,.6,-.2,.9Z" class="gb"/>
<path fill-rule="evenodd" d="M765.8,510.9c-.4,.1,-.9,.1,-1.2,-.2c-.3,-.2,-.2,-.5,.2,-.7c.4,-.1,.9,-.1,1.2,.1c.3,.3,.2,.6,-.2,.8Z" class="gh"/>
<path fill-rule="evenodd" d="M766.8,515.3c-.5,.2,-1.2,.2,-1.6,-.1c-.4,-.2,-.4,-.6,0,-.9c.5,-.2,1.2,-.2,1.6,0c.4,.3,.4,.7,0,1Z" class="gb"/>
<path fill-rule="evenodd" d="M766.6,515.2c-.3,.2,-.9,.1,-1.2,-.1c-.4,-.2,-.3,-.5,0,-.7c.4,-.2,.9,-.2,1.3,0c.3,.2,.3,.6,-.1,.8Z" class="gh"/>
<path fill-rule="evenodd" d="M767.8,519.5c-.4,.3,-1.1,.4,-1.6,.2c-.5,-.3,-.6,-.7,-.2,-1c.4,-.2,1,-.3,1.5,-.1c.5,.2,.6,.6,.3,.9Z" class="gb"/>
<path fill-rule="evenodd" d="M767.6,519.4c-.3,.3,-.9,.3,-1.3,.1c-.3,-.1,-.4,-.4,-.1,-.7c.3,-.2,.8,-.2,1.2,-.1c.4,.2,.5,.5,.2,.7Z" class="gh"/>
<path fill-rule="evenodd" d="M772.3,504.4c.6,.2,1.3,.1,1.6,-.2c.3,-.3,.1,-.7,-.4,-.9c-.6,-.2,-1.3,-.1,-1.6,.3c-.3,.3,-.1,.7,.4,.8Z" class="gb"/>
<path fill-rule="evenodd" d="M772.5,504.3c.4,.2,.9,.1,1.2,-.2c.2,-.2,.1,-.5,-.4,-.7c-.4,-.1,-.9,0,-1.2,.2c-.2,.3,-.1,.6,.4,.7Z" class="gh"/>
<path fill-rule="evenodd" d="M764.6,505.9c.3,-.3,.2,-.4,1.8,0c3,.7,4.6,-1.2,5.7,-2.3c0,0,1.9,-.1,1.3,.8c0,0,-2.5,2.7,-4.7,2.5h-.1c-.4,0,-1,0,-1.7,-.1c-2.5,-.3,-2.5,-.7,-2.3,-.9Z" class="gi"/>
<path fill-rule="evenodd" d="M771.8,508.9c.5,.2,1.2,.1,1.6,-.2c.3,-.2,.2,-.6,-.3,-.9c-.5,-.2,-1.1,-.1,-1.5,.2c-.4,.3,-.3,.7,.2,.9Z" class="gb"/>
<path fill-rule="evenodd" d="M772,508.8c.4,.1,.9,.1,1.2,-.1c.3,-.3,.2,-.6,-.2,-.7c-.4,-.2,-.9,-.2,-1.2,.1c-.3,.2,-.2,.5,.2,.7Z" class="gh"/>
<path fill-rule="evenodd" d="M765.2,510.4c.2,-.2,.2,-.5,1.7,-.1c.3,0,.6,.1,.9,.1c2.3,-.4,2.2,-1,4,-2.3c0,0,1.8,0,1.1,.9c0,0,-1,.8,-2.3,1.4c-.2,.5,-.8,.9,-2.9,.8c-2.6,-.1,-2.7,-.5,-2.5,-.8Z" class="gi"/>
<path fill-rule="evenodd" d="M770.9,513.2c.5,.2,1.2,.2,1.6,-.1c.4,-.2,.4,-.6,-.1,-.9c-.4,-.2,-1.1,-.2,-1.5,.1c-.4,.2,-.4,.6,0,.9Z" class="gb"/>
<path fill-rule="evenodd" d="M771.1,513.1c.3,.2,.9,.2,1.2,0c.4,-.3,.3,-.6,0,-.8c-.4,-.2,-.9,-.2,-1.3,.1c-.3,.2,-.3,.5,.1,.7Z" class="gh"/>
<path fill-rule="evenodd" d="M765.9,514.8c.1,-.2,.1,-.3,.4,-.4l.3,-.1c2.5,-.2,2.4,-.7,4.4,-1.9c0,0,1.9,.1,1,.9c0,0,-.5,.3,-1.1,.6c-3.7,2.1,-5.1,1.1,-5,.9Z" class="gi"/>
<path fill-rule="evenodd" d="M770.5,517.5c.4,.3,1.1,.3,1.6,.1c.5,-.2,.6,-.6,.2,-.9c-.3,-.3,-1,-.3,-1.5,-.1c-.5,.2,-.6,.6,-.3,.9Z" class="gb"/>
<path fill-rule="evenodd" d="M770.7,517.4c.3,.2,.9,.3,1.3,.1c.4,-.2,.4,-.5,.1,-.7c-.3,-.2,-.8,-.3,-1.2,-.1c-.4,.2,-.5,.5,-.2,.7Z" class="gh"/>
<path fill-rule="evenodd" d="M766.5,519.3c.1,.1,.3,.1,.5,.1c2.1,0,4.5,-1.7,4.5,-1.7c1.2,-.7,-.6,-1,-.6,-1c-2.4,1.1,-2.1,1.6,-4.2,1.9c-.8,.2,-.2,.7,-.2,.7Z" class="gi"/>
<path fill-rule="evenodd" d="M772.3,506.5c.5,.2,1.2,0,1.5,-.3c.3,-.3,.1,-.7,-.4,-.8c-.5,-.2,-1.2,-.1,-1.5,.2c-.3,.3,-.1,.7,.4,.9Z" class="gb"/>
<path fill-rule="evenodd" d="M772.4,506.4c.4,.1,1,0,1.2,-.2c.2,-.3,.1,-.6,-.3,-.7c-.4,-.2,-1,-.1,-1.2,.2c-.3,.2,-.1,.5,.3,.7Z" class="gh"/>
<path fill-rule="evenodd" d="M765.4,503.6c1.1,1.1,1.3,1.7,2.2,2.1c.9,.5,1.8,.7,3.6,.2c1.5,-.5,1.5,-.3,1.7,0c.3,.2,.2,.5,-2.3,.9c-4.2,.7,-6.5,-2.4,-6.5,-2.4c-.5,-.9,1.3,-.8,1.3,-.8Z" class="gb"/>
<path fill-rule="evenodd" d="M771.6,511c.5,.2,1.2,.1,1.5,-.2c.4,-.3,.3,-.7,-.2,-.9c-.5,-.2,-1.2,-.1,-1.5,.2c-.4,.2,-.3,.6,.2,.9Z" class="gb"/>
<path fill-rule="evenodd" d="M771.7,510.9c.4,.1,1,.1,1.3,-.2c.2,-.2,.2,-.5,-.2,-.7c-.4,-.1,-1,-.1,-1.3,.1c-.2,.3,-.2,.6,.2,.8Z" class="gh"/>
<path d="M764.7,509c-.8,-.9,1.1,-.9,1.1,-.9c1.8,1.3,1.3,1.8,3.8,2.3c.4,0,.8,-.1,1,-.1c1.6,-.4,1.5,-.1,1.7,.1c.2,.3,.1,.7,-2.4,.8c-3.4,.2,-5.2,-2.2,-5.2,-2.2Z" class="gb"/>
<path d="M766.2,510.1v.1v-.1Z" class="gb"/>
<path fill-rule="evenodd" d="M770.8,515.3c.4,.2,1.1,.2,1.6,-.1c.4,-.2,.4,-.6,-.1,-.9c-.4,-.2,-1.1,-.2,-1.6,0c-.4,.3,-.4,.7,.1,1Z" class="gb"/>
<path fill-rule="evenodd" d="M770.9,515.2c.4,.2,.9,.1,1.3,-.1c.3,-.2,.3,-.5,0,-.7c-.4,-.2,-1,-.2,-1.3,0c-.3,.2,-.3,.6,0,.8Z" class="gh"/>
<path fill-rule="evenodd" d="M766.5,512.4c2.1,1.2,1.9,1.7,4.4,1.9l.4,.1c.3,.1,.3,.2,.3,.4c.2,.2,-.9,.7,-5,-.9c-.6,-.3,-1,-.6,-1,-.6c-.9,-.8,.9,-.9,.9,-.9Z" class="gb"/>
<path fill-rule="evenodd" d="M769.8,519.5c.4,.3,1.1,.4,1.5,.2c.5,-.3,.6,-.7,.3,-1c-.4,-.2,-1.1,-.3,-1.6,-.1c-.5,.2,-.6,.6,-.2,.9Z" class="gb"/>
<path fill-rule="evenodd" d="M770,519.4c.3,.3,.8,.3,1.2,.1c.4,-.1,.5,-.4,.2,-.7c-.3,-.2,-.9,-.2,-1.2,-.1c-.4,.2,-.5,.5,-.2,.7Z" class="gh"/>
<path fill-rule="evenodd" d="M766,517.7l.2,.1c4.4,2.3,4.6,1.6,4.6,1.4l-.1,-.3c.2,0,-2.1,-.7,-4.1,-2.2c0,0,-1.7,.3,-.6,1Z" class="gb"/>
<path fill-rule="evenodd" d="M768.3,503.2c0,0,-11.1,-.4,-9.7,-6.3c1.4,-5.8,8.4,3.2,9.7,5.7l-.6,.1c0,0,-4.2,-6,-6.6,-6.2c-2.4,-.1,-1.8,1.8,-1,2.5c.7,.6,2.8,2.6,6.5,3.8c.2,.1,1.1,-.3,1.3,-.2c.3,.1,0,.6,.4,.6Z" class="gi"/>
<path fill-rule="evenodd" d="M767.6,501.9c0,0,3.4,-6.8,7.7,-6.4c4.4,.5,4.6,3.8,-1.6,6q-6.3,2.2,-6.3,2.2v-1c0,0,4.6,-1.3,6.6,-2.6c2.1,-1.2,4.2,-2.7,2.3,-3.1c-1.9,-.4,-3.4,-.4,-5.9,2.4c-1.2,1.3,-1.9,2.8,-2.4,3.4c-.6,.6,-.9,.2,-.9,.2l.5,-1.1Z" class="gi"/>
<path fill-rule="evenodd" d="M768.4,503.8c0,0,.3,1.1,2.2,3.4c1.8,2.2,1.6,6,1.5,6.1c-.2,.2,.3,.8,.3,.8c0,0,.6,0,1,-1.2c.5,-1.2,1.1,-3.6,-1.9,-6.3c-3.1,-2.8,-3.5,-4.1,-3.5,-4.1c0,0,-1.3,-.2,.4,1.3Z" class="gj"/>
<path fill-rule="evenodd" d="M768.1,502.3c0,0,-1.2,4,-1.4,6.3c-.3,2.3,-2.1,5.4,-1.9,6.7c.2,1.2,-.9,1.1,-.9,1.1c0,0,-.6,-.6,1.2,-4.8c1.7,-4.2,1.3,-5.9,1.7,-7.2c.5,-1.5,.4,-2,1.3,-2.1Z" class="gj"/>
<path d="M701.6,239.9H636.3l-2,9.9h69.3l-2,-9.9Z" class="gk"/>
<path clip-path="url(#c2)" d="M915.9,86.7c0,33.8,-27.4,61.2,-61.2,61.2c-33.7,0,-61.1,-27.4,-61.1,-61.2c0,-33.8,27.4,-61.2,61.1,-61.2c33.8,0,61.2,27.4,61.2,61.2Z" class="gl"/>
<g clip-path="url(#c3)">
<path d="M227.3,965.9l-1,-42.3c0,0,3.4,-6.2,8.4,-15.4c-3.3,18,-5.9,38,-6.6,58.2c-.3,-.2,-.5,-.3,-.8,-.5ZM196.5,847.6l-.6,-.2c0,0,-7.2,34.7,-9.5,67.5c-.8,6.1,-1.3,12.3,-1.7,18.4c-4.5,5.5,-9,11.3,-13.4,17.4c-.8,-.1,-1.6,-.1,-2.4,-.1l-3.7,-20.8l11.4,-2.7L160.9,841.6c0,0,17.3,-1.4,37.2,-3.4c-.5,3,-1,6.2,-1.6,9.4ZM158,791.6c0,0,-10.4,3.6,-22,10c-9.7,5.2,-18.2,11.2,-23.9,18c-3.9,4.5,-6.6,9.3,-7.3,14.6c-.1,.7,-.1,1.4,-.1,2.3c-.2,1.9,0,3.9,.4,6c.9,7.2,3.3,17,6.6,28c9.4,34.5,21.8,66.8,21.8,66.8l1.6,-.4c2.3,5.9,4.4,11.2,6.3,15.9c-12.8,2.7,-23.7,7.7,-32.9,14.2C93.6,949.7,65.7,905.8,62.3,816.6c.8,.2,1.6,.4,2.4,.5l-.1,-1.4c1.6,.5,3.2,1,4.9,1.4L71,809.2c0,0,-8.1,-3.4,-16.5,-12.4c.6,-.7,.9,-1.2,.9,-1.2c0,0,50.6,-8.1,67.3,-14.3c8.4,-3.1,15,-7.3,19.6,-10.7l32.8,-25.3l20.4,34.5c-8.8,2.2,-22.9,6.1,-37.5,11.8Zm156,299.3H292.3l-45.7,-23.4c-2.9,-1.5,-6.2,-2.3,-9.6,-2.3h-3.7c13,-10,21.4,-26,21.7,-51.3c.1,-11.7,-3.1,-21.9,-8.8,-30.4c-4,-37.6,12.7,-106.4,19.9,-133.3c.3,-.7,.7,-1.4,1,-2c6.3,-.1,11.6,-1.3,15.8,-3.4c10.8,-5.4,6.5,-21.8,-5.6,-21.4c2.4,-16.7,-5,-30.1,-5,-30.1c0,0,-.5,-1.5,-1.4,-4C262.5,766.9,219,656.9,178.2,662.9l-10.9,-15c0,-.1,0,-.2,0,-.3c.3,-.1,.5,-.3,.8,-.5l4.8,8.5c0,0,5.4,-5.3,8.2,-13c0,0,10.1,-17.9,-1.3,-29.2c-7.9,-7.8,-13.6,-5.4,-23.9,-3c-10.2,2.3,-19.7,-12.7,-28.7,1c-6.9,10.4,6.9,20.4,12.7,21.2c0,0,.5,13,-.6,20.7c-1.4,10.2,7,15.6,16.2,12.3c1.4,-.4,2.9,.1,3.8,1.2l3,3.6c-5.1,3.4,-8.3,6.6,-13,13.5c-7,9.9,-12.2,23.2,-15.8,29.6c-6.3,11.5,-14.1,20.6,-14.1,20.6l-1.4,1.6c-11.3,13.2,-25.4,23.6,-41.3,30.5L43.5,780.8C38.5,770.5,35,756.9,35.8,739.2c-1.1,-2.1,-4.5,-.5,-4.7,2.2c-.5,8.1,-.6,24.3,3.9,39.8c-.8,.5,-1.8,1.1,-2.9,1.8c-1,-.2,-2.1,-.4,-3.2,-.6C22.1,773.3,16.2,761.6,13.1,746.7c-1.5,-1.9,-4.6,-.4,-4.2,2c1.3,6.8,4.5,19.8,11.3,32.8c-.1,0,-.2,.1,-.2,.1c-2.2,1.1,-8.4,4.5,-6.8,7.9c.8,1.7,2.1,2.1,2.1,2.1c0,0,-.9,3.7,3.6,5c0,0,-.6,3.7,2.2,4.6c0,0,-.2,4.9,4.2,4.3c0,0,6,-.5,8,-1.7c.5,-.4,1.3,-1.1,2,-1.9c3.9,3.6,8.3,6.9,13.3,9.6c.4,22.7,4.3,109.6,41.2,173.2c-7.2,8.9,-12.7,18.9,-16.9,29.2c-11.1,26.7,-13.8,42.7,-9.9,52.3c-7.1,1.1,-14,3.8,-19.9,8.1L20,1090.9H2c-3.9,0,-7,3.2,-7,7.1v5.7c0,3.9,3.1,7.1,7,7.1H314c3.9,0,7.1,-3.2,7.1,-7.1V1098c0,-3.9,-3.2,-7.1,-7.1,-7.1Z" class="gm"/>
<path d="M21.1,801.6c.6,0,1,-.2,1.4,-.5c4.6,-4,.7,-11.7,2.4,-13.5c1.7,-1.7,11.3,-2.7,11.3,-2.7c0,0,-10.1,-3.1,-13.6,-4.4c-1,-.4,-2.1,-.8,-3.4,-1.1c.3,.7,.7,1.3,1,2c-.1,0,-.2,.1,-.2,.1c-2.2,1.1,-8.4,4.5,-6.8,7.9c.8,1.7,2.1,2.1,2.1,2.1c0,0,-.9,3.7,3.6,4.9c0,0,-.6,3.8,2.2,4.7c0,0,0,.2,0,.5ZM187.7,766.5c-1,-23,-10.5,-32.1,-10.5,-32.1l-6.3,3.7l4.1,7.2l.1,-.1l12.6,21.3ZM160.3,638.4c0,0,2.3,1.6,5.3,1.9c3.2,.2,5.3,-1.4,5.3,-1.4c0,0,.6,-2.4,-3.3,-4.3c-4,-2,-7.3,3.8,-7.3,3.8Zm-1,28.3l3,3.6c-5.1,3.4,-8.3,6.6,-13,13.5c-5.8,8.2,-10.4,18.8,-13.8,25.8c10.6,-4.4,33.6,-26.8,38.2,-31.5c4.2,-4.3,12.2,-9.8,20.5,-4.4c15.5,10,30.7,24.1,35.4,32.6c0,0,-.3,-1.5,-.9,-4.1c-15.4,-23.7,-33.2,-42,-50.5,-39.4l-3.3,-4.6c-4,1.6,-10,4.3,-15.7,8.3c0,.1,.1,.1,.1,.2Zm-14.6,-1.5c5.5,-1.3,8,-10,7.8,-15.3C152.2,640.3,149,637,149,637c-4.3,1.5,-7.5,1.2,-9,1c0,4.4,0,10.7,-.7,15.2c-.8,5.8,1.5,10,5.4,12Zm101.9,402.2c-2.9,-1.5,-6.2,-2.3,-9.6,-2.3H62.7c.1,.3,.2,.7,.3,.9c-7.1,1.1,-14,3.9,-19.9,8.2L20,1090.8H292.3l-45.7,-23.4ZM165.3,1055l39.9,.7v-7.8l-13.9,-.7l-4.9,-6.2c0,0,-20.3,7.2,-22.2,11.4c-1.9,4.2,1.1,2.6,1.1,2.6ZM200.2,787.6l-8.9,-15.1l4.2,7.1c-8.8,2.3,-22.9,6.2,-37.5,11.9c0,0,-10.4,3.6,-22,10c-7.5,4,-14.3,8.5,-19.6,13.5c-1.1,1.4,-2,2.7,-3,3.9c-.4,.1,-.8,.3,-1.2,.4c0,.1,-.1,.1,-.1,.2c-3.9,4.5,-6.6,9.3,-7.3,14.5c-.1,.7,-.1,1.5,-.1,2.4c-.2,1.9,0,3.9,.4,6c.9,7.2,3.3,17,6.6,28c9.4,34.4,21.8,66.8,21.8,66.8l10,-2.4c0,0,-24.1,-73,-25.6,-87.5C116.3,832.7,128.7,817,128.7,817c0,0,-.3,0,-.8,-.1c2.1,-1.2,4.4,-2.5,6.9,-3.9c18.7,-10.6,65.4,-25.4,65.4,-25.4Zm5.3,9l-9.6,50.7c0,0,-7.2,34.7,-9.5,67.5c-.8,6.1,-1.3,12.3,-1.7,18.3c-3,19.1,4.5,82.8,4.5,82.8h16.7c0,0,-4.1,-95.4,-5.7,-115.8c-1.6,-20.3,27.2,-104.3,27.2,-104.3l-21.9,.8ZM123,742l-3.6,-8l-1.4,1.6c-11.3,13.2,-25.4,23.6,-41.3,30.5L48.1,778.6c-1.8,1.7,-2.8,2.8,-2.8,2.8c0,0,38.2,-12.1,50.9,-17.7C109,758.1,123,742,123,742Zm3,-128.3c.3,-.8,.7,-1.6,1.2,-2.5c9,-13.6,18.5,1.4,28.7,-1c2.8,-.6,5.2,-1.2,7.4,-1.6c-4.5,1.8,-13.1,4.7,-18.1,2.9c-6.9,-2.5,-7.7,1.5,-15,2.3c-1.8,.2,-3.2,.1,-4.2,-.1Z" class="gn"/>
</g>
<path clip-path="url(#c4)" d="M147.3,644.5c0,1,-.9,1.8,-1.9,1.8c-1,0,-1.9,-.8,-1.9,-1.8c0,-1.1,.9,-1.9,1.9,-1.9c1,0,1.9,.8,1.9,1.9Zm172,458.4v.8c0,.7,-.1,1.4,-.4,2c-.8,2,-2.7,3.4,-4.9,3.4H2c-2.9,0,-5.3,-2.4,-5.3,-5.4V1098c0,-3,2.4,-5.4,5.3,-5.4H314c2.9,0,5.3,2.4,5.3,5.4v4.9ZM44.1,1075.7c5.4,-3.9,11.5,-6.4,17.9,-7.6c.6,-.1,1.2,-.2,1.8,-.3c.6,-.1,1.2,-.2,1.8,-.2c1.5,-.2,2.9,-.2,4.4,-.3l157.7,-.3h9.4c3,0,6,.7,8.7,2.1l39.3,20.1H25.4l18.7,-13.5Zm30.4,-61.2c3.6,-8.8,8.5,-18.1,15.1,-26.7c.4,-.5,.7,-1,1.1,-1.5c.4,-.5,.8,-1,1.2,-1.5c4.6,-5.6,10,-10.9,16.3,-15.5c.5,-.3,1,-.7,1.4,-1c.5,-.4,1,-.7,1.5,-1.1c8.3,-5.5,17.9,-9.9,29.2,-12.4c.6,-.2,1.2,-.3,1.7,-.4c.6,-.1,1.2,-.2,1.8,-.3c6.2,-1.2,12.9,-1.9,20.1,-1.9c1.2,0,2.4,0,3.5,.1c.2,0,.4,0,.6,0c.4,0,.8,0,1.2,0c.3,0,.6,0,.9,0c.3,.1,.6,.1,.9,.1c.4,0,.8,0,1.1,0c3.5,.2,7,.5,10.3,.9c0,3,0,6,.1,9c0,.9,0,1.8,.1,2.8c0,.9,0,1.9,.1,2.8c.3,11,1.1,20.7,1.9,28.6c-4.2,-2.9,-9.4,-4.7,-14.9,-4.7c-.7,0,-1.3,.1,-1.9,.1c-.7,.1,-1.4,.1,-2.1,.2c-.7,.1,-1.4,.3,-2.1,.4c-3,.8,-5.9,2,-8.4,3.7c-.5,.3,-.9,.7,-1.4,1c-.5,.4,-.9,.7,-1.4,1.1c-5.4,4.8,-8.9,11.8,-8.9,19.6c0,14.3,11.8,26,26.2,26c3,0,6,-.5,8.7,-1.5c.1,.1,.2,.2,.3,.4c-11.2,4.9,-14.4,6.6,-15,8.3c-1.3,3.9,.1,5.2,.8,5.6c.2,.1,.5,.2,.8,.2h15.6v2.1c0,1,.8,1.8,1.8,1.8h21c.9,0,1.6,-.7,1.8,-1.5l.3,-2.4c.9,-.1,1.6,-.8,1.6,-1.7l.7,-19.3l3.2,-18.2h17.2c.4,0,.9,-.2,1.2,-.5c.3,-.3,.5,-.8,.5,-1.2l-.6,-26.7v-1.8l-.5,-18.3c.2,.1,.5,.3,.7,.4c3.1,2.2,6,4.6,8.6,7.2c2.3,2.3,4.3,4.8,6.1,7.3c.8,1.2,1.5,2.4,2.2,3.6c1.2,2,2.2,4.2,3.1,6.5c2.4,6,3.5,12.6,3.4,19.6c-.2,20.7,-5.8,35.9,-17,46.7c-1.1,1,-2.3,2,-3.5,3L70,1063.9c-2,0,-3.9,.1,-5.8,.3c-3.1,-9.5,.2,-25.2,10.3,-49.7ZM50.5,814.3c3.1,1.5,6.5,2.7,10.1,3.7c2.6,62.3,17.2,102,29.3,124.5c5.7,10.7,11.4,18.6,16,24.1c-6,4.5,-11.3,9.6,-15.9,15C56.1,921.3,51.1,840.4,50.5,814.3Zm-1.9,-4.9c-.6,-.3,-1.2,-.6,-1.7,-.9c-1.2,-.8,-2.3,-1.5,-3.5,-2.3c-.7,-.5,-1.4,-1,-2,-1.5c-1.3,-1,-2.5,-2,-3.6,-3c.3,-.3,.5,-.7,.8,-1c.8,-1,1.5,-1.9,2,-2.6c0,0,.1,-.1,.1,-.2c.2,0,.4,0,.6,-.1c.8,.7,1.6,1.4,2.4,2c1,.8,2,1.6,3,2.3c.6,.4,1.2,.8,1.8,1.2c.3,.2,.6,.5,.9,.7c.3,.1,.5,.3,.7,.4c.7,.5,1.4,.9,2.1,1.3c3.8,2.4,7.1,4,9.2,4.9c.5,.2,.9,.4,1.3,.5v.2l.1,1.8v1.8c-.2,0,-.3,-.1,-.6,-.1c0,0,-.1,-.1,-.2,-.1c-.5,-.1,-1,-.3,-1.5,-.4c-2.7,-.8,-5.3,-1.7,-7.7,-2.7c-.8,-.4,-1.6,-.8,-2.4,-1.2c-.6,-.3,-1.2,-.6,-1.8,-1ZM35.3,799.3h-.1c-.4,.5,-.7,.9,-1.1,1.4c-.5,.5,-.9,.9,-1.2,1.2c-.2,.2,-.4,.3,-.5,.4c-1.2,.7,-4.9,1.3,-7.3,1.5c-1.1,.1,-1.4,-.2,-1.5,-.3c-.2,-.2,-.3,-.4,-.4,-.6c1.8,-.2,4.4,-.6,6.4,-1.8c.6,-.4,.9,-1.2,.8,-1.9c-.1,-.2,-.1,-.4,-.2,-.5c-.2,-.4,-.5,-.6,-.9,-.7c-.5,-.2,-1,-.2,-1.5,.1c-1.9,1.1,-4.9,1.4,-6.3,1.4c-.8,-.4,-.9,-1.4,-.9,-2c1,-.7,3.2,-2.1,5.8,-2.2c.2,0,.4,-.1,.6,-.2c.6,-.2,1,-.7,1.1,-1.3c0,-.1,0,-.2,0,-.3c-.1,-.9,-.7,-1.5,-1.5,-1.6c-.1,-.1,-.2,-.1,-.3,-.1c-.6,0,-1.1,.1,-1.6,.2c-2.8,.5,-5,1.8,-6.1,2.6C17.3,794,17,793.1,17,792.5c1.3,-1,3.9,-2.8,5.7,-3c.1,0,.2,0,.2,-.1c.6,-.1,1.1,-.6,1.3,-1.1c0,-.3,.1,-.5,0,-.7c0,-.8,-.6,-1.4,-1.4,-1.5c-.2,-.1,-.3,-.1,-.5,-.1c-.4,.1,-.9,.2,-1.3,.3c-2.2,.7,-4.5,2.1,-5.8,3.1c-.1,-.2,-.3,-.4,-.4,-.7c-.4,-.8,.7,-2.5,4.8,-4.9c.3,-.2,.7,-.4,1.1,-.6c.1,0,.2,-.1,.4,-.1c.1,0,.2,0,.4,0c.4,0,1,.1,1.7,.1c1.3,.2,3,.4,4.8,.8c.1,0,.3,0,.4,0c.7,.2,1.3,.3,2,.4c0,0,.1,0,.1,0c.7,.2,1.3,.3,2,.5c.3,0,.5,.1,.8,.1c.4,.1,.9,.2,1.3,.3c.4,.1,.8,.2,1.2,.3c.2,.1,.5,.1,.7,0c.1,0,.3,0,.4,-.1l1.3,-.5l4.5,-2l1.6,-.7l1.2,-.5l.4,-.2l2.4,-1L77.4,767.8c15.8,-6.9,30.2,-17.4,41.5,-30.5l3.7,8l1.5,3.5l7.4,16.1c-2.6,2.5,-11.6,10.6,-25.1,15.6c-11,4,-37.2,9,-53.4,11.8c-.7,.1,-1.4,.3,-2.1,.4c-.6,.1,-1.2,.2,-1.8,.3c-2.8,.5,-5.1,.9,-6.8,1.2c-.8,.1,-1.4,.2,-1.9,.3c-.2,0,-.3,0,-.4,0c-.3,.1,-.5,.1,-.6,.1c-.2,.1,-.5,.2,-.7,.3c-.1,.1,-.3,.2,-.4,.4c-.5,.8,-1.2,1.6,-1.9,2.5c-.3,.5,-.7,1,-1.1,1.5ZM10.6,748.4c0,-.5,.2,-.7,.4,-.8c.2,0,.4,-.1,.6,0c2.7,13.1,7.7,23.8,13.5,32.4c-1.4,-.2,-2.7,-.3,-3.8,-.3C14.8,767,11.8,754.5,10.6,748.4Zm22.3,-6.9c0,-.5,.3,-1,.7,-1.3c.2,-.1,.3,-.2,.5,-.2c-.7,16.3,2.3,29.2,6.8,39.2c.1,.2,.2,.5,.3,.7l-2.1,.9l-2,.9c-.2,-.4,-.3,-.7,-.4,-1c-.1,-.6,-.3,-1.2,-.4,-1.7C32.2,764.1,32.4,748.8,32.9,741.5ZM135.1,714.4c1.1,-2.2,2.4,-4.9,4,-8.1c3.1,-6.6,6.9,-14.8,11.6,-21.4c4.2,-6.1,7.2,-9.2,11.3,-12.2c.4,-.3,.9,-.6,1.4,-.9c.5,-.4,1,-.7,1.5,-1c1.6,-1,3.4,-2.1,5.6,-3.3c1.3,-.8,2.7,-1.5,4.1,-1.9c1.4,-.6,2.9,-.9,4.4,-1.1c.6,-.1,1.3,-.1,2,-.1c2.8,-.1,5.7,.4,8.8,1.6c34.5,12.6,68.9,96.4,78.4,121.1c.2,.6,.5,1.3,.7,1.9c.4,1,.7,1.9,1,2.7h-.8l-62.6,3.2l-8.3,-14l-.9,-1.6l-1,-1.6l-18.9,-32l-1.8,-3l-2.4,-4l2.6,-1.8c.3,0,.7,0,1.1,.1c.3,0,.5,0,.8,0c.4,0,.9,0,1.4,-.1c.7,0,1.4,0,2.1,0c3,-.2,6.6,-.6,10.2,-1.5c.9,-.2,1.5,-1.2,1.3,-2.1c-.3,-.9,-1.2,-1.5,-2.1,-1.3c-3.5,.9,-7,1.3,-9.8,1.4l9.3,-6.6c.8,-.6,1,-1.6,.4,-2.4c-.5,-.8,-1.6,-1,-2.4,-.4l-10.9,7.7l-2.8,2l-4.5,3.1l-23.6,17l-1.4,1.1l-1.4,1l-5,3.6l-1.4,1l-1.5,1.1l-1.4,1l-7,-15.6l-.5,-1.1l-1.6,-3.5l-3.7,-8c2.1,-2.5,8.3,-10.4,13.7,-20Zm21.5,-50.7c-.6,0,-1.1,.1,-1.7,.3c-4.1,1.4,-8.2,1,-10.9,-1.2c-2.5,-2.1,-3.5,-5.3,-3,-9.2c.9,-6.2,.8,-15.3,.7,-19.2c3.3,-.1,6.4,-1.5,8.4,-2.7c.7,2,2.2,4.5,5.6,5.6c1.4,.4,2.6,.5,3.8,.5c-.4,.7,-.1,1.6,.5,2.1c.5,.3,1.1,.4,1.6,.2c.1,-.1,.2,-.1,.3,-.2c.2,-.1,.4,-.2,.6,-.4c.1,-.2,.4,-.5,.7,-.9c.3,-.3,.7,-.6,1.1,-.9c.1,-.1,.2,-.2,.2,-.2c.5,-.3,.9,-.5,1.4,-.7c.1,0,.3,0,.4,-.1c.4,0,.8,0,1.4,.3c.2,.2,.5,.3,.7,.5c1.6,1.5,1.4,3.9,.7,5.5c0,.2,-.1,.4,-.2,.6c-.2,.2,-.3,.5,-.5,.7c-.3,.5,-.7,.9,-1.1,1.2q-.1,.1,-.1,.1c-.5,.4,-1,.6,-1.6,.8c-.3,.1,-.6,.1,-.9,.1c-.2,0,-.5,0,-.7,.1c-.6,.2,-1.1,.8,-1.1,1.5c-.1,1,.7,1.8,1.6,1.8c.1,0,.3,0,.4,0c.5,0,1.1,0,1.6,-.2l8.7,12c-2.2,.6,-4.4,1.5,-6.5,2.7c-2.3,1.4,-4.3,2.6,-6.1,3.7l-1.9,-2.4c-1.1,-1.3,-2.6,-2,-4.1,-2ZM140.1,630.9c-.2,-.1,-.4,-.1,-.7,-.2C136,629.9,130.2,626,128,621.1c-1.4,-3,-1.2,-6,.7,-8.8c4.7,-7.2,9,-5.3,15.1,-2.7c3.8,1.6,8,3.5,12.5,2.4c1,-.2,2,-.4,3,-.6c8.3,-2,12.8,-3.1,19.3,3.3c3.7,3.7,4.9,8.2,4.9,12.5c-.1,2.1,-.3,4.1,-.8,5.9c-1.1,4.9,-3.1,8.6,-3.2,8.6q0,.1,0,.1v-.1c-1.7,4.9,-4.6,8.8,-6.3,10.9l-2.9,-5.1c.8,-.8,1.6,-1.9,2.1,-3.2c.9,-2.1,1,-4.3,.3,-6.2c-.3,-1.2,-1,-2.3,-2,-3.2c-1.3,-1.1,-2.7,-1.7,-4.3,-1.6c-.1,0,-.3,0,-.5,0c-.4,0,-.8,.1,-1.2,.3q-.1,0,-.2,0q.1,-.1,.1,-.2c0,-.2,.1,-.4,.1,-.4c.1,-.9,-.5,-1.7,-1.3,-1.9c0,0,-.1,0,-.1,0c0,-.1,-.1,-.1,-.1,-.1c-.6,-.1,-1.2,.2,-1.6,.6c-.2,.3,-.3,.6,-.4,.9c0,0,-.1,.8,-.7,1.3c-.1,.1,-.2,.1,-.2,.2c-.5,.2,-1,.3,-1.6,.3c-.6,0,-1.3,-.2,-1.9,-.4c-3.6,-1.1,-3.9,-5,-3.9,-5.1c0,-.5,-.2,-.9,-.6,-1.2c-.1,-.1,-.3,-.2,-.4,-.3c-.6,-.3,-1.3,-.2,-1.8,.2c-.1,.1,-3.9,3.1,-8.2,3.4c-.6,.1,-1.2,.1,-1.8,0Zm52,414.7l-2.9,-3.7c2.5,-1.1,4.6,-2.1,5.8,-2.9c.5,-.3,.9,-1,.8,-1.7c0,-.1,-.5,-4.5,-1.3,-11.4c-.2,-1.8,-.4,-3.7,-.6,-5.7c-.1,-.8,-.1,-1.6,-.2,-2.5h14.1l-3.2,17.7c0,.1,0,.2,0,.3l-.3,9.9H192.1Zm-.4,-13.7c.2,2.1,.4,3.7,.5,4.7c-1.4,.7,-3.5,1.7,-5.8,2.8c-.4,0,-.7,.1,-1.1,.3c0,.1,-.1,.2,-.2,.2c-1,.5,-2.1,.9,-3.1,1.4c-.1,-.1,-.2,-.2,-.3,-.3c4.1,-2.2,7.5,-5.3,10,-9.1ZM166.5,927.7l-1.7,.4l-1.7,.4l-26.9,6.4l-1.6,.4c-2.4,-6.6,-12.8,-34.7,-21,-64.4c-2.6,-9.7,-5,-19.4,-6.8,-28.7c-.1,-.2,-.1,-.4,-.1,-.6c-.3,-1.7,-.4,-3.3,-.3,-4.9c.3,-5.1,2.3,-9.9,5.7,-14.3c5.9,-7.9,15.9,-14.8,27.2,-20.6c5.7,-2.9,11.8,-5.6,17.8,-8c.6,-.2,1.1,-.4,1.7,-.6c.5,-.2,1.1,-.5,1.6,-.7c13.2,-4.9,25.9,-8.6,34.3,-10.7l9,15.2c-.6,3.3,-3.5,19,-7.1,39.6c-4.6,.5,-9.1,.9,-13.3,1.3c-4.3,.4,-8.2,.7,-11.5,1c-6.6,.6,-10.8,.9,-11,.9c-.5,.1,-1,.3,-1.3,.7c-.3,.4,-.4,.9,-.3,1.4l15.4,83.9l-8.1,1.9Zm-29,10.5L163.8,932l3,16.8c-.9,0,-1.9,0,-2.9,0c-7.7,0,-14.8,.7,-21.4,2c-1.5,-3.8,-3.2,-8.1,-5,-12.6Zm2.6,-175.6l4.8,-3.4l1.5,-1.1l1.4,-1l22.6,-16.3l2.4,4.1l-22.6,17.4l-1.4,1.1l-5.9,4.5l-2.8,-5.3ZM106.9,784c.2,-.1,.5,-.2,.7,-.3c16.2,-6,25.9,-15.9,27.1,-17.2l2.6,-1.8l2.7,5.4c-4.3,3.1,-10.4,6.8,-17.9,9.6c-3.7,1.4,-9,2.8,-15.2,4.3ZM52.6,801.9c-.4,-.3,-.9,-.6,-1.4,-.9c-.5,-.3,-1,-.7,-1.5,-1c-1.2,-.9,-2.6,-1.9,-3.9,-2.9c1.7,-.3,3.6,-.6,5.8,-1c.3,.3,.5,.5,.7,.8c.4,.4,.8,.8,1.2,1.3c.4,.4,.8,.8,1.2,1.2c6.1,6.2,11.9,9.5,14.4,10.7l-1,4.9c-.6,-.2,-1.2,-.4,-1.8,-.6l-.2,-4.5c0,-.8,-.5,-1.4,-1.1,-1.6c-.2,-.1,-5.3,-1.9,-12.4,-6.4Zm11.7,16.9c.1,0,.3,0,.4,0c.4,0,.8,-.1,1.1,-.4c.1,-.1,.3,-.2,.4,-.4c.9,.3,1.9,.6,2.9,.8c.1,0,.2,0,.4,0c.3,0,.6,0,.9,-.2c.4,-.3,.7,-.7,.8,-1.2l1.5,-7.9c.2,-.8,-.3,-1.6,-1,-1.9c-.2,-.1,-7,-3,-14.5,-10.6c8.7,-1.4,50.9,-8.4,66.1,-14c9.7,-3.6,17,-8.6,21.6,-12.3l29.7,-22.8l18.2,30.7c-9.8,2.5,-24.8,6.9,-39.7,13c-3.2,1.3,-7.9,3.3,-13.2,5.9c-12.3,6.1,-23.4,13.5,-30.2,22.2c-.2,.3,-.4,.6,-.6,.8c-3.2,4.2,-5.3,8.7,-6,13.4c-.1,.7,-.2,1.5,-.2,2.4c-.1,2.1,0,4.3,.5,6.5c0,.1,0,.2,0,.3c1,7.3,3.4,17.2,6.7,28.1c9.3,34.2,21.7,66.3,21.8,66.7c.3,.7,.9,1.2,1.6,1.2c.2,0,.3,-.1,.4,-.1h.2c1.7,4.5,3.4,8.7,4.9,12.5c-11.7,2.7,-21.7,7.3,-30.2,13.1C94,946.8,67.8,903.7,64.1,818.8c.1,0,.2,0,.2,0ZM182.7,938.5c-.1,3.8,-.2,7.6,-.3,11.3c-2.5,-.3,-5.2,-.5,-7.8,-.7c2.7,-3.6,5.4,-7.2,8.1,-10.6Zm-12.3,10.4l-3.2,-17.8l9.8,-2.3c.9,-.2,1.5,-1.1,1.3,-2L163,843.1c4.9,-.3,18,-1.4,33,-2.9c-.3,1.8,-9,41.8,-11.3,74.3q0,.1,0,.2c-.8,5.9,-1.3,11.9,-1.7,17.8c-4.2,5.3,-8.4,10.7,-12.6,16.4Zm6.8,69c0,-4.2,-3.4,-7.6,-7.5,-7.6c-4.2,0,-7.6,3.4,-7.6,7.6c0,4,3.3,7.4,7.3,7.5c1.9,5.2,4.4,9.9,7.1,14c-2.2,.7,-4.5,1,-6.8,1c-12.5,0,-22.7,-10.1,-22.7,-22.5c0,-6.7,3,-12.8,7.7,-16.9c.4,-.4,.9,-.8,1.3,-1.1c.5,-.4,1,-.7,1.5,-1c1.3,-.9,2.7,-1.6,4.2,-2.1c.7,-.3,1.5,-.5,2.2,-.7c.7,-.2,1.4,-.4,2.1,-.5c1.2,-.2,2.4,-.3,3.7,-.3c5.9,0,11.4,2.3,15.4,6.1c1,9.2,2,14.7,2,14.9c.1,.8,.9,1.4,1.7,1.4h1.4c.3,2.8,.5,5.4,.8,7.7c-2,5.5,-6,10,-11.2,12.6c-2.6,-3.9,-5,-8.4,-6.9,-13.3c2.5,-1.2,4.3,-3.8,4.3,-6.8Zm-10.1,.1c.3,1.2,.7,2.4,1,3.6c-1.5,-.6,-2.5,-2,-2.5,-3.7c0,-2.3,1.8,-4.1,4.1,-4.1c2.2,0,4,1.8,4,4.1c0,1.5,-.8,2.8,-2,3.5c-.4,-1.4,-.8,-2.8,-1.2,-4.2c-.2,-.9,-1.1,-1.5,-2.1,-1.3c-.9,.2,-1.5,1.2,-1.3,2.1Zm35.2,38.9l-.1,.4H184.4v-.4h17.9Zm-10,-3.5H166.7c0,-.2,.1,-.5,.2,-1c1.3,-1.2,8.4,-4.3,13.9,-6.8c.6,-.2,1.1,-.5,1.6,-.7c.6,-.2,1.2,-.5,1.7,-.7c.6,-.3,1.3,-.6,1.9,-.8l3.9,5c.3,.4,.8,.7,1.4,.7h12.8l-.1,4.3H192.3Zm79,-258.3c.2,.4,.5,1.1,.9,1.9c1.8,4.6,4.7,13.8,3.6,24.7c-.1,.5,-.2,1.1,-.3,1.7c-.1,.6,-.2,1.2,-.3,1.7c-.7,4.1,-2.1,8.3,-4.4,12.6c-.1,.1,-.1,.2,-.2,.3c-.8,1.5,-1.6,3.1,-2.6,4.8c-.6,1.2,-1.2,2.4,-1.9,3.6c-.3,.6,-.6,1.2,-.9,1.8c-.3,.4,-.6,.9,-.8,1.4c-.1,.1,-.1,.2,-.1,.2c-7.4,13.7,-17.2,31.8,-25.2,46.5c-.9,1.8,-1.9,3.5,-2.7,5.1c-.4,.7,-.7,1.3,-1.1,1.9c-1.1,2.1,-2.2,4.1,-3.1,5.9c-.8,1.3,-1.5,2.6,-2.1,3.8c-3.2,5.9,-5.2,9.6,-5.3,9.7c-.1,.3,-.2,.6,-.2,.9l.2,8.6l.2,8.8l.5,21.9l.1,2v2l1.1,47.4H190.3c-.2,-1.5,-.6,-4.2,-1.1,-7.7c-.1,-1.2,-.3,-2.4,-.4,-3.8c-.1,-.9,-.2,-2,-.4,-3c-.1,-1.2,-.2,-2.5,-.4,-3.8c-.2,-2.6,-.5,-5.5,-.7,-8.5c-.6,-7.2,-1.1,-15.4,-1.3,-24.2c0,-.9,0,-1.9,0,-2.8c-.1,-.9,-.1,-1.9,-.1,-2.8c0,-1.3,0,-2.6,0,-4c0,-.5,0,-1.1,0,-1.7c0,-.6,0,-1.2,0,-1.8c0,-2,.1,-4.1,.1,-6.2c.1,-3.3,.3,-6.7,.5,-10.2c0,-.9,.1,-1.9,.1,-2.9c.1,-1,.2,-2,.3,-3c.3,-4.3,.7,-8.5,1.2,-12.8c0,-.1,.1,-.2,.1,-.2c2.9,-33.8,18,-112.2,18.8,-116.5l61.8,-3.2l1.8,-.1h.7ZM287,832.5c.9,3.4,.1,8.3,-4.9,10.8c-3.3,1.6,-7.3,2.6,-12,3c1.4,-2.6,2.7,-5,3.8,-7c2.6,-4.8,4.1,-9.6,4.9,-14.1c4.8,.5,7.4,4.1,8.2,7.3ZM228.4,938.3L228.1,924c.4,-.8,1.5,-2.8,3,-5.6c-1,6.7,-1.9,13.4,-2.7,19.9ZM244,977.8c-1,-1.2,-2.1,-2.3,-3.2,-3.4c-3.2,-3.3,-6.8,-6.2,-10.9,-8.9c.6,-17.7,2.8,-36.7,6.4,-56.7c6.7,-12.3,16.2,-29.9,24.5,-45.2c-7.5,30.2,-18.5,81,-16.8,114.2Zm70,111.4H292.7L247.4,1066c-2.9,-1.5,-6.1,-2.3,-9.4,-2.5c.2,-.2,.4,-.3,.6,-.5c11.8,-11.3,17.9,-27.8,18.1,-49.1c.2,-11.6,-2.8,-22,-8.9,-31c-3.6,-37.2,12.8,-105.2,19.9,-132.1c.2,-.3,.3,-.6,.5,-.9c6,-.2,11.3,-1.4,15.5,-3.5c6.4,-3.2,8,-9.7,6.7,-14.8c-1.2,-4.6,-5,-9.2,-11.1,-9.9c1.6,-15.4,-4.6,-27.7,-5.4,-29.1C271.8,786.5,232.5,677.9,191,662.7c-4.1,-1.5,-8.1,-2,-12,-1.6l-3.9,-5.4c1.8,-2,5.4,-6.5,7.6,-12.5c1.2,-2.2,10,-19.5,-1.6,-31C173.2,604.5,167,606,158.5,608c-1,.2,-1.9,.4,-2.9,.7c-3.4,.7,-6.8,-.7,-10.4,-2.3c-5.9,-2.5,-13.1,-5.6,-19.5,4c-2.5,3.8,-2.8,8,-.9,12.2c2.6,5.7,9,10.1,13.4,11.4c.1,3.5,.3,13,-.6,19.1c-.7,5.1,.8,9.5,4.2,12.4c3.6,3,9,3.6,14.3,1.8c.6,-.2,1.4,0,1.9,.6l1.7,2.1c-4.2,3.1,-7.4,6.5,-11.9,12.9c-4.8,6.9,-8.7,15.2,-11.9,21.9c-1.5,3.1,-2.8,5.9,-3.9,7.9c-6.2,11.2,-13.8,20.2,-13.9,20.3l-1.4,1.6c-11.1,12.9,-25.2,23.2,-40.7,30L44.4,778.5c-4.5,-9.9,-7.6,-22.7,-6.8,-39.2c0,-.3,-.1,-.6,-.2,-.9c-.8,-1.5,-2.3,-2.2,-4,-1.8c-1.9,.4,-3.9,2.2,-4,4.7c-.5,7.6,-.7,23.5,3.6,39.1c-.4,.2,-.8,.5,-1.2,.7c-.6,-.1,-1.3,-.2,-1.9,-.3C23.4,772,17.8,760.7,14.9,746.3c-.1,-.2,-.2,-.5,-.4,-.7c-1.2,-1.5,-3.2,-1.9,-5,-1.1c-1.7,.8,-2.6,2.6,-2.3,4.5c1.2,6.3,4.2,18.9,10.7,31.7c-5.6,3.3,-7.7,6.5,-6.3,9.6c.6,1.1,1.3,1.8,1.9,2.2c.1,1.7,.8,4,3.6,5.2c.1,1.6,.6,3.6,2.3,4.7c.2,1,.6,2.6,1.8,3.6c.7,.6,1.8,1.3,3.4,1.3c.3,0,.6,0,.9,-.1c1,-.1,6.4,-.6,8.7,-1.9c.4,-.3,.8,-.6,1.2,-1c3.5,3.1,7.3,5.9,11.5,8.2c.5,24.3,5,109.3,40.8,172c-7.2,9.3,-12.6,19.3,-16.5,28.7c-10.2,24.7,-13.5,41.1,-10.5,51.6c-6.7,1.3,-13,4,-18.7,8.1l-22.6,16.3H2c-4.8,0,-8.8,3.9,-8.8,8.8v5.7c0,4.9,4,8.8,8.8,8.8H314c4.8,0,8.8,-3.9,8.8,-8.8V1098c0,-4.9,-4,-8.8,-8.8,-8.8Z" class="go"/>
<image x="-12" y="379" width="824" height="578" xlink:href="shade/1.png"/>
<image x="299" y="915" width="52" height="51" xlink:href="shade/2.png"/>
<image x="17" y="220" width="763" height="552" xlink:href="shade/3.png"/>
<image x="363" y="314" width="517" height="745" xlink:href="shade/4.png"/>
<image x="148" y="314" width="690" height="515" xlink:href="shade/5.png"/>
<image clip-path="url(#c5)" preserveAspectRatio="none" x="14" y="960" width="308" height="307" xlink:href="img/1.png"/>
<g clip-path="url(#c1)">
<path d="M14.2,146.9c-2.2,0,-4.4,.2,-6.5,.4c-2.2,.2,-4.4,.5,-6.5,.9c-2.1,.5,-4.2,1,-6.3,1.6c-2.1,.7,-4.2,1.4,-6.2,2.2c-2,.9,-4,1.8,-5.9,2.9c-2,1,-3.9,2.1,-5.7,3.3c-1.8,1.3,-3.6,2.6,-5.3,3.9c-1.7,1.4,-3.3,2.9,-4.8,4.5c-1.6,1.5,-3,3.1,-4.4,4.8c-1.4,1.7,-2.7,3.5,-4,5.3c-1.2,1.8,-2.3,3.7,-3.3,5.6c-1.1,2,-2,4,-2.8,6c-.9,2,-1.6,4.1,-2.3,6.2c-.6,2.1,-1.1,4.2,-1.6,6.4c-.4,2.1,-.7,4.3,-.9,6.5c-.2,2.1,-.3,4.3,-.3,6.5c0,2.2,.1,4.4,.3,6.6c.2,2.2,.5,4.3,.9,6.5c.5,2.1,1,4.3,1.6,6.4c.7,2.1,1.4,4.1,2.3,6.1c.8,2.1,1.7,4.1,2.8,6c1,1.9,2.1,3.8,3.3,5.6c1.3,1.8,2.6,3.6,4,5.3c1.4,1.7,2.8,3.3,4.4,4.9c1.5,1.5,3.1,3,4.8,4.4c1.7,1.4,3.5,2.7,5.3,3.9c1.8,1.2,3.7,2.3,5.7,3.4c1.9,1,3.9,2,5.9,2.8c2,.8,4.1,1.6,6.2,2.2c2.1,.6,4.2,1.2,6.3,1.6c2.1,.4,4.3,.7,6.5,1c2.1,.2,4.3,.3,6.5,.3c2.2,0,4.4,-.1,6.6,-.3c2.2,-.3,4.3,-.6,6.5,-1c2.1,-.4,4.3,-1,6.4,-1.6c2.1,-.6,4.1,-1.4,6.2,-2.2c2,-.8,4,-1.8,5.9,-2.8c1.9,-1.1,3.8,-2.2,5.6,-3.4c1.9,-1.2,3.6,-2.5,5.3,-3.9c1.7,-1.4,3.3,-2.9,4.9,-4.4c1.5,-1.6,3,-3.2,4.4,-4.9c1.4,-1.7,2.7,-3.5,3.9,-5.3c1.2,-1.8,2.4,-3.7,3.4,-5.6c1,-1.9,2,-3.9,2.8,-6c.8,-2,1.6,-4,2.2,-6.1c.7,-2.1,1.2,-4.3,1.6,-6.4c.4,-2.2,.8,-4.3,1,-6.5c.2,-2.2,.3,-4.4,.3,-6.6c0,-2.2,-.1,-4.4,-.3,-6.5c-.2,-2.2,-.6,-4.4,-1,-6.5c-.4,-2.2,-.9,-4.3,-1.6,-6.4c-.6,-2.1,-1.4,-4.2,-2.2,-6.2c-.8,-2,-1.8,-4,-2.8,-6c-1,-1.9,-2.2,-3.8,-3.4,-5.6c-1.2,-1.8,-2.5,-3.6,-3.9,-5.3c-1.4,-1.7,-2.9,-3.3,-4.4,-4.8C60,165,58.4,163.5,56.7,162.1c-1.7,-1.3,-3.4,-2.6,-5.3,-3.9c-1.8,-1.2,-3.7,-2.3,-5.6,-3.3c-1.9,-1.1,-3.9,-2,-5.9,-2.9c-2.1,-.8,-4.1,-1.5,-6.2,-2.2c-2.1,-.6,-4.3,-1.1,-6.4,-1.6c-2.2,-.4,-4.3,-.7,-6.5,-.9c-2.2,-.2,-4.4,-.4,-6.6,-.4Z" class="gp"/>
<path d="M905.6,263.9c-2.2,0,-4.4,.1,-6.5,.3c-2.2,.3,-4.4,.6,-6.5,1c-2.2,.4,-4.3,1,-6.4,1.6c-2.1,.6,-4.2,1.4,-6.2,2.2c-2,.9,-4,1.8,-5.9,2.8c-2,1.1,-3.9,2.2,-5.7,3.4c-1.8,1.2,-3.6,2.5,-5.3,3.9c-1.7,1.4,-3.3,2.9,-4.8,4.4c-1.6,1.6,-3.1,3.2,-4.4,4.9c-1.4,1.7,-2.7,3.5,-4,5.3c-1.2,1.8,-2.3,3.7,-3.3,5.6c-1.1,2,-2,3.9,-2.8,6c-.9,2,-1.6,4.1,-2.3,6.2c-.6,2.1,-1.1,4.2,-1.6,6.3c-.4,2.2,-.7,4.3,-.9,6.5c-.2,2.2,-.3,4.4,-.3,6.6c0,2.2,.1,4.4,.3,6.6c.2,2.1,.5,4.3,.9,6.5c.5,2.1,1,4.2,1.6,6.3c.7,2.1,1.4,4.2,2.3,6.2c.8,2,1.7,4,2.8,6c1,1.9,2.1,3.8,3.3,5.6c1.3,1.8,2.6,3.6,4,5.3c1.3,1.7,2.8,3.3,4.4,4.8c1.5,1.6,3.1,3.1,4.8,4.5c1.7,1.4,3.5,2.7,5.3,3.9c1.8,1.2,3.7,2.3,5.7,3.4c1.9,1,3.9,1.9,5.9,2.8c2,.8,4.1,1.5,6.2,2.2c2.1,.6,4.2,1.1,6.4,1.6c2.1,.4,4.3,.7,6.5,.9c2.1,.3,4.3,.4,6.5,.4c2.2,0,4.4,-.1,6.6,-.4c2.2,-.2,4.3,-.5,6.5,-.9c2.1,-.5,4.3,-1,6.4,-1.6c2.1,-.7,4.1,-1.4,6.2,-2.2c2,-.9,4,-1.8,5.9,-2.8c1.9,-1.1,3.8,-2.2,5.6,-3.4c1.9,-1.2,3.6,-2.5,5.3,-3.9c1.7,-1.4,3.3,-2.9,4.9,-4.5c1.5,-1.5,3,-3.1,4.4,-4.8c1.4,-1.7,2.7,-3.5,3.9,-5.3c1.2,-1.8,2.4,-3.7,3.4,-5.6c1,-2,2,-4,2.8,-6c.8,-2,1.6,-4.1,2.2,-6.2c.6,-2.1,1.2,-4.2,1.6,-6.3c.4,-2.2,.8,-4.4,1,-6.5c.2,-2.2,.3,-4.4,.3,-6.6c0,-2.2,-.1,-4.4,-.3,-6.6c-.2,-2.2,-.6,-4.3,-1,-6.5c-.4,-2.1,-1,-4.2,-1.6,-6.3c-.6,-2.1,-1.4,-4.2,-2.2,-6.2c-.8,-2.1,-1.8,-4,-2.8,-6c-1,-1.9,-2.2,-3.8,-3.4,-5.6c-1.2,-1.8,-2.5,-3.6,-3.9,-5.3c-1.4,-1.7,-2.9,-3.3,-4.4,-4.9c-1.6,-1.5,-3.2,-3,-4.9,-4.4c-1.7,-1.4,-3.4,-2.7,-5.3,-3.9c-1.8,-1.2,-3.7,-2.3,-5.6,-3.4c-1.9,-1,-3.9,-1.9,-5.9,-2.8c-2.1,-.8,-4.1,-1.6,-6.2,-2.2c-2.1,-.6,-4.3,-1.2,-6.4,-1.6c-2.2,-.4,-4.3,-.7,-6.5,-1c-2.2,-.2,-4.4,-.3,-6.6,-.3Z" class="gq"/>
<path d="M14.2,363.8c-2.2,0,-4.4,.1,-6.5,.3c-2.2,.2,-4.4,.6,-6.5,1c-2.1,.4,-4.2,1,-6.3,1.6c-2.1,.6,-4.2,1.4,-6.2,2.2c-2,.8,-4,1.8,-5.9,2.8c-2,1,-3.9,2.2,-5.7,3.4c-1.8,1.2,-3.6,2.5,-5.3,3.9c-1.7,1.4,-3.3,2.9,-4.8,4.4c-1.6,1.6,-3,3.2,-4.4,4.9c-1.4,1.7,-2.7,3.4,-4,5.3c-1.2,1.8,-2.3,3.7,-3.3,5.6c-1.1,1.9,-2,3.9,-2.8,5.9c-.9,2.1,-1.6,4.1,-2.3,6.2c-.6,2.1,-1.1,4.3,-1.6,6.4c-.4,2.2,-.7,4.3,-.9,6.5c-.2,2.2,-.3,4.4,-.3,6.6c0,2.2,.1,4.4,.3,6.5c.2,2.2,.5,4.4,.9,6.5c.5,2.2,1,4.3,1.6,6.4c.7,2.1,1.4,4.2,2.3,6.2c.8,2,1.7,4,2.8,5.9c1,2,2.1,3.9,3.3,5.7c1.3,1.8,2.6,3.6,4,5.3c1.4,1.7,2.8,3.3,4.4,4.8c1.5,1.6,3.1,3.1,4.8,4.4c1.7,1.4,3.5,2.7,5.3,4c1.8,1.2,3.7,2.3,5.7,3.3c1.9,1.1,3.9,2,5.9,2.8c2,.9,4.1,1.6,6.2,2.3c2.1,.6,4.2,1.1,6.3,1.6c2.1,.4,4.3,.7,6.5,.9c2.1,.2,4.3,.3,6.5,.3c2.2,0,4.4,-.1,6.6,-.3c2.2,-.2,4.3,-.5,6.5,-.9c2.1,-.5,4.3,-1,6.4,-1.6c2.1,-.7,4.1,-1.4,6.2,-2.3c2,-.8,4,-1.7,5.9,-2.8c1.9,-1,3.8,-2.1,5.6,-3.3c1.9,-1.3,3.6,-2.6,5.3,-4c1.7,-1.3,3.3,-2.8,4.9,-4.4c1.5,-1.5,3,-3.1,4.4,-4.8c1.4,-1.7,2.7,-3.5,3.9,-5.3c1.2,-1.8,2.4,-3.7,3.4,-5.7c1,-1.9,2,-3.9,2.8,-5.9c.8,-2,1.6,-4.1,2.2,-6.2c.7,-2.1,1.2,-4.2,1.6,-6.4c.4,-2.1,.8,-4.3,1,-6.5c.2,-2.1,.3,-4.3,.3,-6.5c0,-2.2,-.1,-4.4,-.3,-6.6c-.2,-2.2,-.6,-4.3,-1,-6.5c-.4,-2.1,-.9,-4.3,-1.6,-6.4c-.6,-2.1,-1.4,-4.1,-2.2,-6.2c-.8,-2,-1.8,-4,-2.8,-5.9c-1,-1.9,-2.2,-3.8,-3.4,-5.6C68.7,391.7,67.4,390,66,388.3c-1.4,-1.7,-2.9,-3.3,-4.4,-4.9c-1.6,-1.5,-3.2,-3,-4.9,-4.4c-1.7,-1.4,-3.4,-2.7,-5.3,-3.9c-1.8,-1.2,-3.7,-2.4,-5.6,-3.4c-1.9,-1,-3.9,-2,-5.9,-2.8c-2.1,-.8,-4.1,-1.6,-6.2,-2.2c-2.1,-.6,-4.3,-1.2,-6.4,-1.6c-2.2,-.4,-4.3,-.8,-6.5,-1c-2.2,-.2,-4.4,-.3,-6.6,-.3Z" class="gp"/>
<path d="M928.6,463.7c-2.2,0,-4.4,.1,-6.6,.3c-2.2,.2,-4.4,.5,-6.5,1c-2.2,.4,-4.3,.9,-6.4,1.6c-2.1,.6,-4.1,1.3,-6.2,2.2c-2,.8,-4,1.8,-5.9,2.8c-1.9,1,-3.8,2.2,-5.6,3.4c-1.9,1.2,-3.6,2.5,-5.3,3.9c-1.7,1.4,-3.3,2.9,-4.9,4.4c-1.5,1.6,-3,3.2,-4.4,4.9c-1.4,1.7,-2.7,3.4,-3.9,5.3c-1.2,1.8,-2.4,3.7,-3.4,5.6c-1,1.9,-2,3.9,-2.8,5.9c-.9,2.1,-1.6,4.1,-2.2,6.2c-.7,2.1,-1.2,4.2,-1.6,6.4c-.5,2.1,-.8,4.3,-1,6.5c-.2,2.2,-.3,4.4,-.3,6.6c0,2.2,.1,4.3,.3,6.5c.2,2.2,.5,4.4,1,6.5c.4,2.2,.9,4.3,1.6,6.4c.6,2.1,1.3,4.2,2.2,6.2c.8,2,1.8,4,2.8,5.9c1,2,2.2,3.8,3.4,5.7c1.2,1.8,2.5,3.5,3.9,5.2c1.4,1.7,2.9,3.4,4.4,4.9c1.6,1.6,3.2,3,4.9,4.4c1.7,1.4,3.4,2.7,5.3,3.9c1.8,1.3,3.7,2.4,5.6,3.4c1.9,1.1,3.9,2,5.9,2.8c2.1,.9,4.1,1.6,6.2,2.2c2.1,.7,4.2,1.2,6.4,1.6c2.1,.5,4.3,.8,6.5,1c2.2,.2,4.4,.3,6.6,.3c2.2,0,4.3,-.1,6.5,-.3c2.2,-.2,4.4,-.5,6.5,-1c2.2,-.4,4.3,-.9,6.4,-1.6c2.1,-.6,4.2,-1.3,6.2,-2.2c2,-.8,4,-1.7,5.9,-2.8c2,-1,3.8,-2.1,5.7,-3.4c1.8,-1.2,3.6,-2.5,5.2,-3.9c1.7,-1.4,3.4,-2.8,4.9,-4.4c1.6,-1.5,3,-3.2,4.4,-4.9c1.4,-1.7,2.7,-3.4,3.9,-5.2c1.3,-1.9,2.4,-3.7,3.4,-5.7c1.1,-1.9,2,-3.9,2.8,-5.9c.9,-2,1.6,-4.1,2.2,-6.2c.7,-2.1,1.2,-4.2,1.6,-6.4c.5,-2.1,.8,-4.3,1,-6.5c.2,-2.2,.3,-4.3,.3,-6.5c0,-2.2,-.1,-4.4,-.3,-6.6c-.2,-2.2,-.5,-4.4,-1,-6.5c-.4,-2.2,-.9,-4.3,-1.6,-6.4c-.6,-2.1,-1.3,-4.1,-2.2,-6.2c-.8,-2,-1.7,-4,-2.8,-5.9c-1,-1.9,-2.1,-3.8,-3.4,-5.6c-1.2,-1.9,-2.5,-3.6,-3.9,-5.3c-1.4,-1.7,-2.8,-3.3,-4.4,-4.9c-1.5,-1.5,-3.2,-3,-4.9,-4.4c-1.6,-1.4,-3.4,-2.7,-5.2,-3.9c-1.9,-1.2,-3.7,-2.4,-5.7,-3.4c-1.9,-1,-3.9,-2,-5.9,-2.8c-2,-.9,-4.1,-1.6,-6.2,-2.2c-2.1,-.7,-4.2,-1.2,-6.4,-1.6c-2.1,-.5,-4.3,-.8,-6.5,-1c-2.2,-.2,-4.3,-.3,-6.5,-.3Z" class="gq"/>
<path d="M928.6,697.5c-2.2,0,-4.4,.1,-6.6,.3c-2.2,.2,-4.4,.6,-6.5,1c-2.2,.4,-4.3,1,-6.4,1.6c-2.1,.6,-4.1,1.4,-6.2,2.2c-2,.8,-4,1.8,-5.9,2.8c-1.9,1.1,-3.8,2.2,-5.6,3.4c-1.9,1.2,-3.6,2.5,-5.3,3.9c-1.7,1.4,-3.3,2.9,-4.9,4.4c-1.5,1.6,-3,3.2,-4.4,4.9c-1.4,1.7,-2.7,3.5,-3.9,5.3c-1.2,1.8,-2.4,3.7,-3.4,5.6c-1,1.9,-2,3.9,-2.8,6c-.9,2,-1.6,4,-2.2,6.1c-.7,2.1,-1.2,4.3,-1.6,6.4c-.5,2.2,-.8,4.3,-1,6.5c-.2,2.2,-.3,4.4,-.3,6.6c0,2.2,.1,4.4,.3,6.5c.2,2.2,.5,4.4,1,6.5c.4,2.2,.9,4.3,1.6,6.4c.6,2.1,1.3,4.2,2.2,6.2c.8,2,1.8,4,2.8,6c1,1.9,2.2,3.8,3.4,5.6c1.2,1.8,2.5,3.6,3.9,5.3c1.4,1.7,2.9,3.3,4.4,4.8c1.6,1.6,3.2,3.1,4.9,4.5c1.7,1.3,3.4,2.6,5.3,3.9c1.8,1.2,3.7,2.3,5.6,3.3c1.9,1.1,3.9,2,5.9,2.9c2.1,.8,4.1,1.5,6.2,2.2c2.1,.6,4.2,1.1,6.4,1.6c2.1,.4,4.3,.7,6.5,.9c2.2,.2,4.4,.4,6.6,.4c2.2,0,4.3,-.2,6.5,-.4c2.2,-.2,4.4,-.5,6.5,-.9c2.2,-.5,4.3,-1,6.4,-1.6c2.1,-.7,4.2,-1.4,6.2,-2.2c2,-.9,4,-1.8,5.9,-2.9c2,-1,3.8,-2.1,5.7,-3.3c1.8,-1.3,3.6,-2.6,5.2,-3.9c1.7,-1.4,3.4,-2.9,4.9,-4.5c1.6,-1.5,3,-3.1,4.4,-4.8c1.4,-1.7,2.7,-3.5,3.9,-5.3c1.3,-1.8,2.4,-3.7,3.4,-5.6c1.1,-2,2,-4,2.8,-6c.9,-2,1.6,-4.1,2.2,-6.2c.7,-2.1,1.2,-4.2,1.6,-6.4c.5,-2.1,.8,-4.3,1,-6.5c.2,-2.1,.3,-4.3,.3,-6.5c0,-2.2,-.1,-4.4,-.3,-6.6c-.2,-2.2,-.5,-4.3,-1,-6.5c-.4,-2.1,-.9,-4.3,-1.6,-6.4c-.6,-2.1,-1.3,-4.1,-2.2,-6.1c-.8,-2.1,-1.7,-4.1,-2.8,-6c-1,-1.9,-2.1,-3.8,-3.4,-5.6c-1.2,-1.8,-2.5,-3.6,-3.9,-5.3c-1.4,-1.7,-2.8,-3.3,-4.4,-4.9c-1.5,-1.5,-3.2,-3,-4.9,-4.4c-1.6,-1.4,-3.4,-2.7,-5.2,-3.9c-1.9,-1.2,-3.7,-2.3,-5.7,-3.4c-1.9,-1,-3.9,-2,-5.9,-2.8c-2,-.8,-4.1,-1.6,-6.2,-2.2c-2.1,-.6,-4.2,-1.2,-6.4,-1.6c-2.1,-.4,-4.3,-.8,-6.5,-1c-2.2,-.2,-4.3,-.3,-6.5,-.3Z" class="gq"/>
<path d="M14.2,764.5c-2.2,0,-4.4,.1,-6.5,.3c-2.2,.2,-4.4,.5,-6.5,1c-2.1,.4,-4.2,.9,-6.3,1.6c-2.1,.6,-4.2,1.3,-6.2,2.2c-2,.8,-4,1.8,-5.9,2.8c-2,1,-3.9,2.2,-5.7,3.4c-1.8,1.2,-3.6,2.5,-5.3,3.9c-1.7,1.4,-3.3,2.8,-4.8,4.4c-1.6,1.5,-3,3.2,-4.4,4.9c-1.4,1.7,-2.7,3.4,-4,5.2c-1.2,1.9,-2.3,3.7,-3.3,5.7c-1.1,1.9,-2,3.9,-2.8,5.9c-.9,2.1,-1.6,4.1,-2.3,6.2c-.6,2.1,-1.1,4.2,-1.6,6.4c-.4,2.1,-.7,4.3,-.9,6.5c-.2,2.2,-.3,4.4,-.3,6.6c0,2.1,.1,4.3,.3,6.5c.2,2.2,.5,4.4,.9,6.5c.5,2.2,1,4.3,1.6,6.4c.7,2.1,1.4,4.2,2.3,6.2c.8,2,1.7,4,2.8,5.9c1,2,2.1,3.8,3.3,5.7c1.3,1.8,2.6,3.5,4,5.2c1.4,1.7,2.8,3.4,4.4,4.9c1.5,1.6,3.1,3,4.8,4.4c1.7,1.4,3.5,2.7,5.3,3.9c1.8,1.3,3.7,2.4,5.7,3.4c1.9,1,3.9,2,5.9,2.8c2,.9,4.1,1.6,6.2,2.2c2.1,.7,4.2,1.2,6.3,1.6c2.1,.5,4.3,.8,6.5,1c2.1,.2,4.3,.3,6.5,.3c2.2,0,4.4,-.1,6.6,-.3c2.2,-.2,4.3,-.5,6.5,-1c2.1,-.4,4.3,-.9,6.4,-1.6c2.1,-.6,4.1,-1.3,6.2,-2.2c2,-.8,4,-1.8,5.9,-2.8c1.9,-1,3.8,-2.1,5.6,-3.4c1.9,-1.2,3.6,-2.5,5.3,-3.9c1.7,-1.4,3.3,-2.8,4.9,-4.4c1.5,-1.5,3,-3.2,4.4,-4.9c1.4,-1.7,2.7,-3.4,3.9,-5.2c1.2,-1.9,2.4,-3.7,3.4,-5.7c1,-1.9,2,-3.9,2.8,-5.9c.8,-2,1.6,-4.1,2.2,-6.2c.7,-2.1,1.2,-4.2,1.6,-6.4c.4,-2.1,.8,-4.3,1,-6.5c.2,-2.2,.3,-4.4,.3,-6.5c0,-2.2,-.1,-4.4,-.3,-6.6c-.2,-2.2,-.6,-4.4,-1,-6.5c-.4,-2.2,-.9,-4.3,-1.6,-6.4c-.6,-2.1,-1.4,-4.1,-2.2,-6.2c-.8,-2,-1.8,-4,-2.8,-5.9c-1,-2,-2.2,-3.8,-3.4,-5.7C68.7,792.4,67.4,790.7,66,789c-1.4,-1.7,-2.9,-3.4,-4.4,-4.9c-1.6,-1.6,-3.2,-3,-4.9,-4.4C55,778.3,53.3,777,51.4,775.8c-1.8,-1.2,-3.7,-2.4,-5.6,-3.4c-1.9,-1,-3.9,-2,-5.9,-2.8c-2.1,-.9,-4.1,-1.6,-6.2,-2.2c-2.1,-.7,-4.3,-1.2,-6.4,-1.6c-2.2,-.5,-4.3,-.8,-6.5,-1c-2.2,-.2,-4.4,-.3,-6.6,-.3Z" class="gp"/>
<path d="M21.6,563.6c-2.2,0,-4.3,.1,-6.5,.3c-2.2,.2,-4.4,.5,-6.5,1c-2.2,.4,-4.3,.9,-6.4,1.6c-2.1,.6,-4.1,1.3,-6.1,2.2c-2,.8,-4,1.7,-5.9,2.8c-2,1,-3.8,2.1,-5.7,3.4c-1.8,1.2,-3.6,2.5,-5.2,3.9c-1.7,1.4,-3.4,2.8,-4.9,4.4c-1.6,1.5,-3,3.2,-4.4,4.9c-1.4,1.7,-2.7,3.4,-3.9,5.2c-1.3,1.9,-2.4,3.7,-3.4,5.7c-1.1,1.9,-2,3.9,-2.8,5.9c-.9,2,-1.6,4.1,-2.2,6.2c-.7,2.1,-1.2,4.2,-1.6,6.4c-.5,2.1,-.8,4.3,-1,6.5c-.2,2.2,-.3,4.3,-.3,6.5c0,2.2,.1,4.4,.3,6.6c.2,2.2,.5,4.4,1,6.5c.4,2.2,.9,4.3,1.6,6.4c.6,2.1,1.3,4.1,2.2,6.2c.8,2,1.7,4,2.8,5.9c1,1.9,2.1,3.8,3.4,5.6c1.2,1.9,2.5,3.6,3.9,5.3c1.4,1.7,2.8,3.3,4.4,4.9c1.5,1.5,3.2,3,4.9,4.4c1.6,1.4,3.4,2.7,5.2,3.9c1.9,1.2,3.7,2.4,5.7,3.4c1.9,1,3.9,2,5.9,2.8c2,.9,4,1.6,6.1,2.2c2.1,.7,4.2,1.2,6.4,1.6c2.1,.5,4.3,.8,6.5,1c2.2,.2,4.3,.3,6.5,.3c2.2,0,4.4,-.1,6.6,-.3c2.2,-.2,4.4,-.5,6.5,-1c2.2,-.4,4.3,-.9,6.4,-1.6c2.1,-.6,4.1,-1.3,6.2,-2.2c2,-.8,4,-1.8,5.9,-2.8c1.9,-1,3.8,-2.2,5.6,-3.4c1.9,-1.2,3.6,-2.5,5.3,-3.9c1.7,-1.4,3.3,-2.9,4.9,-4.4c1.5,-1.6,3,-3.2,4.4,-4.9c1.4,-1.7,2.7,-3.4,3.9,-5.3c1.2,-1.8,2.4,-3.7,3.4,-5.6c1,-1.9,2,-3.9,2.8,-5.9c.8,-2.1,1.6,-4.1,2.2,-6.2c.7,-2.1,1.2,-4.2,1.6,-6.4c.4,-2.1,.8,-4.3,1,-6.5c.2,-2.2,.3,-4.4,.3,-6.6c0,-2.2,-.1,-4.3,-.3,-6.5c-.2,-2.2,-.6,-4.4,-1,-6.5c-.4,-2.2,-.9,-4.3,-1.6,-6.4c-.6,-2.1,-1.4,-4.2,-2.2,-6.2c-.8,-2,-1.8,-4,-2.8,-5.9c-1,-2,-2.2,-3.8,-3.4,-5.7c-1.2,-1.8,-2.5,-3.5,-3.9,-5.2C72,586.4,70.5,584.7,69,583.2c-1.6,-1.6,-3.2,-3,-4.9,-4.4c-1.7,-1.4,-3.4,-2.7,-5.3,-3.9c-1.8,-1.3,-3.7,-2.4,-5.6,-3.4c-1.9,-1.1,-3.9,-2,-5.9,-2.8c-2.1,-.9,-4.1,-1.6,-6.2,-2.2c-2.1,-.7,-4.2,-1.2,-6.4,-1.6c-2.1,-.5,-4.3,-.8,-6.5,-1c-2.2,-.2,-4.4,-.3,-6.6,-.3Z" class="gp"/>
<path d="M917.1,892.9c-2.2,0,-4.4,.1,-6.6,.3c-2.2,.2,-4.3,.5,-6.5,1c-2.1,.4,-4.2,.9,-6.3,1.6c-2.1,.6,-4.2,1.3,-6.2,2.2c-2.1,.8,-4,1.8,-6,2.8c-1.9,1,-3.8,2.1,-5.6,3.4c-1.8,1.2,-3.6,2.5,-5.3,3.9c-1.7,1.4,-3.3,2.8,-4.9,4.4c-1.5,1.5,-3,3.2,-4.4,4.9c-1.4,1.7,-2.7,3.4,-3.9,5.2c-1.2,1.9,-2.3,3.7,-3.4,5.7c-1,1.9,-1.9,3.9,-2.8,5.9c-.8,2,-1.6,4.1,-2.2,6.2c-.6,2.1,-1.2,4.2,-1.6,6.4c-.4,2.1,-.7,4.3,-1,6.5c-.2,2.2,-.3,4.4,-.3,6.6c0,2.1,.1,4.3,.3,6.5c.3,2.2,.6,4.4,1,6.5c.4,2.2,1,4.3,1.6,6.4c.6,2.1,1.4,4.2,2.2,6.2c.9,2,1.8,4,2.8,5.9c1.1,2,2.2,3.8,3.4,5.7c1.2,1.8,2.5,3.5,3.9,5.2c1.4,1.7,2.9,3.4,4.4,4.9c1.6,1.6,3.2,3,4.9,4.4c1.7,1.4,3.5,2.7,5.3,3.9c1.8,1.3,3.7,2.4,5.6,3.4c2,1,3.9,2,6,2.8c2,.9,4.1,1.6,6.2,2.2c2.1,.7,4.2,1.2,6.3,1.6c2.2,.5,4.3,.8,6.5,1c2.2,.2,4.4,.3,6.6,.3c2.2,0,4.4,-.1,6.6,-.3c2.1,-.2,4.3,-.5,6.5,-1c2.1,-.4,4.2,-.9,6.3,-1.6c2.1,-.6,4.2,-1.3,6.2,-2.2c2,-.8,4,-1.8,6,-2.8c1.9,-1,3.8,-2.1,5.6,-3.4c1.8,-1.2,3.6,-2.5,5.3,-3.9c1.7,-1.4,3.3,-2.8,4.8,-4.4c1.6,-1.5,3.1,-3.2,4.5,-4.9c1.4,-1.7,2.7,-3.4,3.9,-5.2c1.2,-1.9,2.3,-3.7,3.4,-5.7c1,-1.9,1.9,-3.9,2.8,-5.9c.8,-2,1.5,-4.1,2.2,-6.2c.6,-2.1,1.1,-4.2,1.6,-6.4c.4,-2.1,.7,-4.3,.9,-6.5c.3,-2.2,.4,-4.4,.4,-6.5c0,-2.2,-.1,-4.4,-.4,-6.6c-.2,-2.2,-.5,-4.4,-.9,-6.5c-.5,-2.2,-1,-4.3,-1.6,-6.4c-.7,-2.1,-1.4,-4.2,-2.2,-6.2c-.9,-2,-1.8,-4,-2.8,-5.9c-1.1,-2,-2.2,-3.8,-3.4,-5.7c-1.2,-1.8,-2.5,-3.5,-3.9,-5.2c-1.4,-1.7,-2.9,-3.4,-4.5,-4.9c-1.5,-1.6,-3.1,-3,-4.8,-4.4c-1.7,-1.4,-3.5,-2.7,-5.3,-3.9c-1.8,-1.3,-3.7,-2.4,-5.6,-3.4c-2,-1,-4,-2,-6,-2.8c-2,-.9,-4.1,-1.6,-6.2,-2.2c-2.1,-.7,-4.2,-1.2,-6.3,-1.6c-2.2,-.5,-4.4,-.8,-6.5,-1c-2.2,-.2,-4.4,-.3,-6.6,-.3Z" class="gq"/>
</g>
<image x="379" y="1237" width="26" height="26" xlink:href="shade/6.png"/>
<image x="400" y="1233" width="9" height="8" xlink:href="shade/7.png"/>
<image x="368" y="1225" width="49" height="47" xlink:href="shade/8.png"/>
<path clip-path="url(#c6)" d="M369.3,1136.1c3.7,7.4,9.7,13.4,17.1,17.1l5.7,-5.7c.7,-.7,1.8,-.9,2.7,-.6c2.9,.9,6,1.5,9.2,1.5c1.5,0,2.6,1.1,2.6,2.6v9.1c0,1.4,-1.1,2.6,-2.6,2.6c-24.4,0,-44.1,-19.8,-44.1,-44.2c0,-1.4,1.1,-2.6,2.6,-2.6h9.1c1.4,0,2.6,1.2,2.6,2.6c0,3.2,.5,6.4,1.4,9.3c.3,.9,.1,1.9,-.6,2.6l-5.7,5.7Z" class="gr"/>
<path clip-path="url(#c7)" d="M422,1183.8c0,-2.1,-1.1,-4,-2.8,-5l-27,-15.6l-27,15.6c-1.7,1,-2.9,2.9,-2.9,5v29.4c0,3.3,2.7,5.9,6,5.9h47.8c3.3,0,6,-2.6,6,-5.9l-.1,-29.4Zm-29.8,14.7l-24.7,-15.2l24.7,-14.2l24.7,14.2l-24.7,15.2Z" class="gr"/>
<path d="M422.1,1070.2H746.4v3.9H422.1v-3.9Z" class="gs"/>
</svg>