<?xml version="1.0" encoding="UTF-8" standalone="no"?>
<!DOCTYPE svg PUBLIC "-//W3C//DTD SVG 1.1//EN"
"http://www.w3.org/Graphics/SVG/1.1/DTD/svg11.dtd">
<svg viewBox="0 0 909 1286" version="1.1" xmlns="http://www.w3.org/2000/svg" xmlns:xlink="http://www.w3.org/1999/xlink">
<defs>
<clipPath id="c0_2"><path d="M0,1298.2V0H910.6V1298.2Z"/></clipPath>
<clipPath id="c1_2"><path d="M0,1287.9V0H910.6V1287.9Z"/></clipPath>
<clipPath id="c2_2"><path d="M0,366.2V27.2H351.3v339Z"/></clipPath>
<clipPath id="c3_2"><path d="M0,366.2v-78H158.5v78Z"/></clipPath>
<clipPath id="c4_2"><path d="M158.5,331.7V259.5H350.7v72.2Z"/></clipPath>
<clipPath id="c5_2"><path d="M455.3,1287.9V1177.1H910.6v110.8Z"/></clipPath>
<clipPath id="c6_2"><path d="M463.6,1287.9v-60.8h447v60.8Z"/></clipPath>
<clipPath id="c7_2"><path d="M474.9,1287.9v-59.5H910.6v59.5Z"/></clipPath>
<clipPath id="c8_2"><path d="M798.7,1196.1v-27.5h27.5v27.5Z"/></clipPath>
<clipPath id="c9_2"><path d="M501.5,1250.3v-19.5H521v19.5Z"/></clipPath>
<clipPath id="ca_2"><path d="M95.6,1222.7v-22.9h22.9v22.9Z"/></clipPath>
<clipPath id="cb_2"><path d="M196.2,1267.8V1039.6H424.4v228.2Z"/></clipPath>
<style type="text/css"><![CDATA[
.g0_2{
fill: #FFFFFF;
}
.g1_2{
fill: #8ED9D2;
}
.g2_2{
fill: #232859;
}
.g3_2{
fill: #F6867A;
}
.g4_2{
fill: #AD2688;
}
.g5_2{
fill: #B791C8;
}
.g6_2{
fill: #8A2A8B;
}
.g7_2{
fill: #57C5B3;
}
.g8_2{
fill: #AD2E89;
}
.g9_2{
fill: #252758;
}
]]></style>
</defs>
<path clip-path="url(#c0_2)" d="M0,0H910.6V1287.9H0V0Z" class="g0_2"/>
<path clip-path="url(#c1_2)" d="M0,0H910.6V1287.9H0V0Z" class="g0_2"/>
<path d="M201.2,211c8.8,0,16,7.1,16,15.9c0,8.8,-7.2,15.9,-16,15.9c-8.8,0,-16,-7.1,-16,-15.9c0,-8.8,7.2,-15.9,16,-15.9Z" class="g1_2"/>
<path clip-path="url(#c2_2)" d="M20.8,70.7c-2.4,3,-3.8,6.8,-3.4,11c.5,8,7.1,14.5,15.2,14.9c9.1,.5,16.8,-6.9,16.8,-15.9c0,-3.8,-1.3,-7.2,-3.5,-10c-1.7,-2,-1.3,-4.9,.7,-6.6c4.7,-3.9,7.7,-9.7,7.6,-16.2C54.2,37,45.4,27.9,34.5,27.3c-12,-.7,-22,8.9,-22,20.7c0,6.5,2.9,12.2,7.5,16.1c2.1,1.7,2.5,4.6,.8,6.6Z" class="g2_2"/>
<image x="11" y="26" width="45" height="72" xlink:href="shade/1.png"/>
<path d="M264.2,273.8H264c-1.2,0,-1.9,-1.3,-1.3,-2.4c.9,-1.2,2.3,-2.1,3.3,-2.7c1.6,-1,2.4,-1.5,2.4,-2.4c0,-.8,-.8,-1.3,-2.4,-2.3c-1.7,-.9,-3.9,-2.3,-3.9,-5.1c0,-2.7,2.3,-4,3.9,-5.1c1.6,-.9,2.4,-1.5,2.4,-2.3c0,-.9,-.8,-1.4,-2.4,-2.3c-1.7,-1,-3.9,-2.4,-3.9,-5c0,-2.8,2.3,-4.1,3.9,-5.1c1.1,-.7,1.9,-1.1,2.2,-1.6c.3,-.4,.7,-.8,1.2,-.8h.3c1.1,0,1.9,1.3,1.2,2.4c-.8,1.3,-2.2,2.1,-3.3,2.7c-1.6,1,-2.3,1.5,-2.3,2.4c0,.8,.7,1.3,2.3,2.3c1.7,1,4,2.3,4,5c0,2.7,-2.4,4,-4,5.1c-1.6,.9,-2.3,1.5,-2.3,2.3c0,.9,.7,1.4,2.3,2.3c1.7,1,4,2.4,4,5.1c0,2.8,-2.4,4.1,-4,5.1c-1,.7,-1.8,1.1,-2.1,1.6c-.3,.4,-.7,.8,-1.3,.8Zm10.7,0h-.2c-1.2,0,-2,-1.3,-1.3,-2.4c.8,-1.2,2.2,-2.1,3.3,-2.7c1.6,-1,2.3,-1.5,2.3,-2.4c0,-.8,-.7,-1.3,-2.3,-2.3c-1.7,-.9,-4,-2.3,-4,-5.1c0,-2.7,2.4,-4,4,-5.1c1.6,-.9,2.3,-1.5,2.3,-2.3c0,-.9,-.7,-1.4,-2.3,-2.3c-1.7,-1,-4,-2.4,-4,-5c0,-2.8,2.4,-4.1,4,-5.1c1.1,-.7,1.8,-1.1,2.1,-1.6c.3,-.4,.8,-.8,1.3,-.8h.2c1.2,0,1.9,1.3,1.3,2.4c-.9,1.3,-2.3,2.1,-3.3,2.7c-1.6,1,-2.4,1.5,-2.4,2.4c0,.8,.8,1.3,2.4,2.3c1.7,1,3.9,2.3,3.9,5c0,2.7,-2.3,4,-3.9,5.1c-1.6,.9,-2.4,1.5,-2.4,2.3c0,.9,.8,1.4,2.4,2.3c1.7,1,3.9,2.4,3.9,5.1c0,2.8,-2.3,4.1,-3.9,5.1c-1.1,.7,-1.8,1.1,-2.1,1.6c-.4,.4,-.8,.8,-1.3,.8Zm10.5,0h-.2c-1.2,0,-1.9,-1.3,-1.3,-2.4c.9,-1.2,2.3,-2.1,3.3,-2.7c1.6,-1,2.4,-1.5,2.4,-2.4c0,-.8,-.8,-1.3,-2.4,-2.3c-1.7,-.9,-3.9,-2.3,-3.9,-5.1c0,-2.7,2.3,-4,3.9,-5.1c1.6,-.9,2.4,-1.5,2.4,-2.3c0,-.9,-.8,-1.4,-2.4,-2.3c-1.7,-1,-3.9,-2.4,-3.9,-5c0,-2.8,2.3,-4.1,3.9,-5.1c1.1,-.7,1.8,-1.1,2.2,-1.6c.3,-.4,.7,-.8,1.2,-.8h.2c1.2,0,2,1.3,1.3,2.4c-.8,1.3,-2.2,2.1,-3.3,2.7c-1.6,1,-2.3,1.5,-2.3,2.4c0,.8,.7,1.3,2.3,2.3c1.7,1,4,2.3,4,5c0,2.7,-2.4,4,-4,5.1c-1.6,.9,-2.3,1.5,-2.3,2.3c0,.9,.7,1.4,2.3,2.3c1.7,1,4,2.4,4,5.1c0,2.8,-2.4,4.1,-4,5.1c-1,.7,-1.8,1.1,-2.1,1.6c-.3,.4,-.8,.8,-1.3,.8Z" class="g3_2"/>
<image x="126" y="122" width="37" height="43" xlink:href="shade/2.png"/>
<path clip-path="url(#c2_2)" d="M306.6,288.2c-21,33.6,-39.6,50.4,-57.1,51.4h-1.7c-19,0,-33.2,-18.4,-46.9,-36.2c-6.7,-8.7,-13,-16.9,-19.5,-22.3c-17.3,-14.7,-28,-3.8,-40.3,8.8c-9.1,9.2,-18.5,18.7,-31.2,18.8h-.1c-8.6,0,-16.1,-7.9,-23.6,-20.5h2.7c6.8,11.2,13.7,18.3,21,18.2c11.9,-.1,20.9,-9.2,29.7,-18.1c12,-12.2,24.5,-24.8,43.2,-8.9c6.6,5.6,13,13.9,19.8,22.7c13.8,17.9,28.1,36.5,46.8,35.4c16.5,-.9,34.5,-17.1,54.8,-49.3h2.4M132.4,274.9H130c-6.3,-13.7,-12.5,-30,-19.1,-47.3C90,172.7,66.2,110.5,30.9,110.5c-59.2,0,-90.3,154.5,-94.2,175.6h-2.3c1.7,-9.2,9.4,-48.6,23.3,-87.6C-21.2,138.6,3.4,108.3,30.9,108.3c36.8,0,60.9,63,82.1,118.5c6.6,17.3,12.9,34.1,19.4,48.1Z" class="g4_2"/>
<image x="-76" y="208" width="429" height="124" xlink:href="shade/3.png"/>
<path clip-path="url(#c3_2)" d="M8.9,366.2c-1.2,0,-2.4,-.1,-3.7,-.3c-35.8,-4.6,-35.8,-77.7,-80.8,-77.7H86.2c7.5,12.6,15,20.5,23.6,20.5h.1c12.7,-.1,22.1,-9.6,31.2,-18.8c.5,-.6,1.1,-1.1,1.6,-1.7h14c.3,.2,.7,.5,1,.7C136.1,309.1,118.5,326,94.2,326c-5.9,0,-12.3,-1,-19.1,-3.2c-4.7,-1.5,-8.7,-2.2,-12.3,-2.2c-14.7,0,-21.1,11.4,-27.4,22.8C29,354.8,22.9,366.2,8.9,366.2M109.7,306.4c-7.2,0,-14,-7.1,-20.8,-18.2h50.8l-.1,.1c-8.8,8.9,-17.8,18,-29.7,18.1q-.1,0,-.2,0Z" class="g5_2"/>
<path d="M109.9,308.7h-.1c-8.6,0,-16.1,-7.9,-23.6,-20.5h2.7c6.8,11.1,13.6,18.2,20.8,18.2q.1,0,.2,0c11.9,-.1,20.9,-9.2,29.7,-18.1l.1,-.1h3c-.5,.6,-1.1,1.1,-1.6,1.7c-9.1,9.2,-18.5,18.7,-31.2,18.8Z" class="g6_2"/>
<path clip-path="url(#c4_2)" d="M298.4,331c-5.8,0,-11.8,-1.5,-18,-5.3c39.1,-9.3,70.3,-37.5,70.3,-37.5c0,0,-22.3,42.8,-52.3,42.8M243.8,288.2H191.5c-2.9,-3.3,-5.8,-6.3,-8.7,-8.8c-3,-2.5,-5.8,-4.3,-8.4,-5.5c2.2,-2,4.5,-3.9,6.9,-5.9c7,-5.6,13.7,-8,20.3,-8c15.3,0,29.4,13,42.2,28.2m-55.2,0H158.5c4.5,-4.1,9.1,-8.4,14,-12.7c2.8,1.1,5.7,2.9,8.9,5.6c2.4,2,4.8,4.4,7.2,7.1Z" class="g5_2"/>
<path d="M191.5,288.2h-2.9c-2.4,-2.7,-4.8,-5.1,-7.2,-7.1c-3.2,-2.7,-6.1,-4.5,-8.9,-5.6c.6,-.5,1.3,-1.1,1.9,-1.6c2.6,1.2,5.4,3,8.4,5.5c2.9,2.5,5.8,5.5,8.7,8.8Z" class="g6_2"/>
<image x="155" y="286" width="198" height="41" xlink:href="shade/4.png"/>
<image x="184" y="210" width="35" height="34" xlink:href="shade/5.png"/>
<path d="M282,73c0,.7,-.1,1.4,-.2,2.1c-.2,.7,-.4,1.4,-.6,2.1c-.3,.6,-.7,1.3,-1,1.9c-.4,.6,-.9,1.1,-1.4,1.6c-.5,.5,-1.1,1,-1.7,1.4c-.5,.4,-1.2,.7,-1.8,1c-.7,.3,-1.4,.5,-2.1,.6c-.7,.1,-1.4,.2,-2.1,.2c-.7,0,-1.4,-.1,-2.1,-.2c-.7,-.1,-1.4,-.3,-2.1,-.6c-.6,-.3,-1.3,-.6,-1.9,-1c-.6,-.4,-1.1,-.9,-1.6,-1.4c-.5,-.5,-1,-1,-1.4,-1.6c-.4,-.6,-.7,-1.3,-1,-1.9c-.2,-.7,-.5,-1.4,-.6,-2.1c-.1,-.7,-.2,-1.4,-.2,-2.1c0,-.7,.1,-1.4,.2,-2.1c.1,-.7,.4,-1.4,.6,-2.1c.3,-.6,.6,-1.2,1,-1.8c.4,-.6,.9,-1.2,1.4,-1.7c.5,-.5,1,-.9,1.6,-1.3c.6,-.4,1.3,-.8,1.9,-1c.7,-.3,1.4,-.5,2.1,-.7c.7,-.1,1.4,-.2,2.1,-.2c.7,0,1.4,.1,2.1,.2c.7,.2,1.4,.4,2.1,.7c.6,.2,1.3,.6,1.8,1c.6,.4,1.2,.8,1.7,1.3c.5,.5,1,1.1,1.4,1.7c.3,.6,.7,1.2,1,1.8c.2,.7,.4,1.4,.6,2.1c.1,.7,.2,1.4,.2,2.1Z" class="g7_2"/>
<path clip-path="url(#c5_2)" d="M455.3,1301.9H954.1c0,0,-5.8,-43.6,-29.8,-93.4c-24,-49.8,-66.1,-37.7,-72.9,17.4c-6.7,55,-63.6,18.9,-104.2,33.9c0,0,-53.4,33.4,-85,-4c-31.6,-37.4,-73.6,-32.7,-103.7,0c-30.1,32.6,-89,43.1,-103.2,46.1Z" class="g8_2"/>
<path clip-path="url(#c6_2)" d="M464.3,1301.9H954c0,0,-54.6,-2.8,-86.8,-16.6C835,1271.7,797.9,1212.9,753.9,1231.5c-43.9,18.7,-48.7,74.3,-89.7,46.9c-40.9,-27.4,-59.5,-13.6,-72.3,-2.8c-12.7,10.7,-15.6,-29.4,-32.2,-13.3c-16.4,16.1,-62.4,39.6,-95.4,39.6Z" class="g9_2"/>
<image x="463" y="1212" width="492" height="92" xlink:href="shade/6.png"/>
<path clip-path="url(#c7_2)" d="M942.5,1301.9c-31.4,-4.2,-68.7,-24.2,-83.3,-38.4c-3.3,-3.1,-6.2,-4.5,-9,-4.1c-4.8,.5,-8.1,5.6,-11.3,10.5c-2.5,3.9,-5.1,8,-7.9,8.4c-1.3,.3,-2.7,-.4,-4,-1.6c-14.8,-12.5,-33.9,-23.7,-73.5,2.9c-23.9,16,-34.7,3.1,-49.7,-14.6c-10,-11.7,-21.4,-25,-39.1,-32.5c-30.1,-12.7,-57,10,-80.7,30.2c-11.8,9.8,-22.9,19.2,-33.2,23.6c-23.1,9.9,-58.1,14.1,-75.7,15.6h19c18.1,-2.5,40.8,-6.6,57.4,-13.6c10.7,-4.6,22,-14,33.8,-24c23.4,-19.7,49.7,-42,78.5,-29.8c17.3,7.3,28.4,20.4,38.2,32c15.1,17.8,27.1,31.9,52.6,14.9c41.7,-27.7,60,-12.2,70.9,-3c1.8,1.7,3.8,2.4,5.7,2c3.8,-.5,6.5,-4.7,9.5,-9.4c2.9,-4.5,5.9,-9.1,9.7,-9.5c2.2,-.2,4.6,.9,7.3,3.5c13.2,12.8,44.3,30.1,73.5,36.9h11.3Z" class="g7_2"/>
<path clip-path="url(#c8_2)" d="M826.2,1182.4c0,.9,-.1,1.8,-.3,2.6c-.1,.9,-.4,1.8,-.8,2.6c-.3,.9,-.7,1.7,-1.2,2.4c-.5,.8,-1.1,1.4,-1.7,2.1c-.7,.6,-1.4,1.2,-2.1,1.7c-.8,.5,-1.6,.9,-2.4,1.3c-.8,.3,-1.7,.6,-2.6,.8c-.9,.1,-1.8,.2,-2.7,.2c-.9,0,-1.8,-.1,-2.7,-.2c-.8,-.2,-1.7,-.5,-2.5,-.8c-.9,-.4,-1.7,-.8,-2.4,-1.3c-.8,-.5,-1.5,-1.1,-2.1,-1.7c-.6,-.7,-1.2,-1.3,-1.7,-2.1c-.5,-.7,-.9,-1.5,-1.3,-2.4c-.3,-.8,-.6,-1.7,-.8,-2.6c-.1,-.8,-.2,-1.7,-.2,-2.6c0,-.9,.1,-1.8,.2,-2.7c.2,-.9,.5,-1.8,.8,-2.6c.4,-.8,.8,-1.6,1.3,-2.4c.5,-.7,1.1,-1.4,1.7,-2.1c.6,-.6,1.3,-1.2,2.1,-1.7c.7,-.5,1.5,-.9,2.4,-1.3c.8,-.3,1.7,-.6,2.5,-.7c.9,-.2,1.8,-.3,2.7,-.3c.9,0,1.8,.1,2.7,.3c.9,.1,1.8,.4,2.6,.7c.8,.4,1.6,.8,2.4,1.3c.7,.5,1.4,1.1,2.1,1.7c.6,.7,1.2,1.4,1.7,2.1c.5,.8,.9,1.6,1.2,2.4c.4,.8,.7,1.7,.8,2.6c.2,.9,.3,1.8,.3,2.7Z" class="g7_2"/>
<path clip-path="url(#c9_2)" d="M521,1240.6c0,.6,-.1,1.2,-.2,1.9c-.1,.6,-.3,1.2,-.5,1.8c-.3,.6,-.6,1.1,-.9,1.7c-.4,.5,-.8,1,-1.3,1.5c-.4,.4,-.9,.8,-1.4,1.2c-.6,.3,-1.1,.6,-1.7,.9c-.6,.2,-1.2,.4,-1.8,.5c-.7,.1,-1.3,.2,-1.9,.2c-.7,0,-1.3,-.1,-1.9,-.2c-.7,-.1,-1.3,-.3,-1.9,-.5c-.6,-.3,-1.1,-.6,-1.7,-.9c-.5,-.4,-1,-.8,-1.4,-1.2c-.5,-.5,-.9,-1,-1.2,-1.5c-.4,-.6,-.7,-1.1,-.9,-1.7c-.3,-.6,-.5,-1.2,-.6,-1.8c-.1,-.7,-.2,-1.3,-.2,-1.9c0,-.7,.1,-1.3,.2,-1.9c.1,-.7,.3,-1.3,.6,-1.9c.2,-.6,.5,-1.1,.9,-1.7c.3,-.5,.7,-1,1.2,-1.4c.4,-.5,.9,-.9,1.4,-1.2c.6,-.4,1.1,-.7,1.7,-.9c.6,-.3,1.2,-.5,1.9,-.6c.6,-.1,1.2,-.2,1.9,-.2c.6,0,1.2,.1,1.9,.2c.6,.1,1.2,.3,1.8,.6c.6,.2,1.1,.5,1.7,.9c.5,.3,1,.7,1.4,1.2c.5,.4,.9,.9,1.3,1.4c.3,.6,.6,1.1,.9,1.7c.2,.6,.4,1.2,.5,1.9c.1,.6,.2,1.2,.2,1.9Z" class="g7_2"/>
<image x="804" y="32" width="106" height="51" xlink:href="shade/7.png"/>
<image x="-29" y="1143" width="167" height="85" xlink:href="shade/8.png"/>
<path clip-path="url(#ca_2)" d="M118.5,1211.3c0,.7,0,1.4,-.2,2.2c-.1,.7,-.3,1.4,-.6,2.1c-.3,.7,-.7,1.4,-1.1,2c-.4,.6,-.9,1.2,-1.4,1.8c-.5,.5,-1.1,1,-1.8,1.4c-.6,.4,-1.2,.8,-1.9,1c-.7,.3,-1.4,.6,-2.2,.7c-.7,.1,-1.5,.2,-2.2,.2c-.8,0,-1.5,-.1,-2.3,-.2c-.7,-.1,-1.4,-.4,-2.1,-.7c-.7,-.2,-1.4,-.6,-2,-1c-.6,-.4,-1.2,-.9,-1.7,-1.4c-.6,-.6,-1,-1.2,-1.5,-1.8c-.4,-.6,-.7,-1.3,-1,-2c-.3,-.7,-.5,-1.4,-.7,-2.1c-.1,-.8,-.2,-1.5,-.2,-2.2c0,-.8,.1,-1.5,.2,-2.3c.2,-.7,.4,-1.4,.7,-2.1c.3,-.7,.6,-1.4,1,-2c.5,-.6,.9,-1.2,1.5,-1.8c.5,-.5,1.1,-1,1.7,-1.4c.6,-.4,1.3,-.8,2,-1c.7,-.3,1.4,-.6,2.1,-.7c.8,-.1,1.5,-.2,2.3,-.2c.7,0,1.5,.1,2.2,.2c.8,.1,1.5,.4,2.2,.7c.7,.2,1.3,.6,1.9,1c.7,.4,1.3,.9,1.8,1.4c.5,.6,1,1.2,1.4,1.8c.4,.6,.8,1.3,1.1,2c.3,.7,.5,1.4,.6,2.1c.2,.8,.2,1.5,.2,2.3Z" class="g7_2"/>
<image clip-path="url(#cb_2)" preserveAspectRatio="none" x="196" y="1040" width="228" height="228" xlink:href="img/1.png"/>
</svg>